<?xml version="1.0" standalone="no"?>
<!DOCTYPE svg PUBLIC "-//W3C//DTD SVG 1.1//EN" "http://www.w3.org/Graphics/SVG/1.1/DTD/svg11.dtd" >
<svg xmlns="http://www.w3.org/2000/svg">
<metadata></metadata>
<defs>
<font id="flexolight" horiz-adv-x="1970" >
<font-face units-per-em="3333" ascent="2633" descent="-700" />
<missing-glyph horiz-adv-x="1000" />
<glyph unicode="ff" horiz-adv-x="2137" d="M94 1781h324v200q0 252 125 382t372 130q57 0 119 -10l-16 -145h-66q-170 0 -259 -81.5t-89 -265.5v-210h855v200q0 252 125.5 382t371.5 130q59 0 119 -10l-15 -145h-66q-170 0 -259 -81.5t-89 -265.5v-210h410v-155h-410v-1626h-187v1626h-855v-1626h-186v1626h-324 v155z" />
<glyph unicode="fi" horiz-adv-x="1867" d="M1612 0h-187v1626h-821v-1626h-186v1626h-324v155h324v200q0 252 125 382t372 130q57 0 119 -10l-16 -145h-66q-170 0 -259 -81.5t-89 -265.5v-210h1008v-1781zM1518 2183q-66 0 -89 33t-23 120t24 122t88 35t88.5 -35t24.5 -122t-23.5 -120t-89.5 -33z" />
<glyph unicode="fl" horiz-adv-x="1887" d="M94 1781h324v200q0 252 125 382t372 130q319 0 689 -24v-1991q0 -288 148 -472l-155 -85q-91 103 -135.5 231.5t-44.5 308.5v1877h-465q-170 0 -259 -81.5t-89 -265.5v-210h410v-155h-410v-1626h-186v1626h-324v155z" />
<glyph unicode="ffi" horiz-adv-x="2908" d="M418 1781v200q0 252 125 382t372 130q57 0 119 -10l-16 -145h-66q-170 0 -259 -81.5t-89 -265.5v-210h855v200q0 252 125.5 382t371.5 130q59 0 119 -10l-15 -145h-66q-170 0 -259 -81.5t-89 -265.5v-210h1007v-1781h-186v1626h-821v-1626h-187v1626h-855v-1626h-186 v1626h-324v155h324zM2560 2183q-66 0 -89 33t-23 120t24 122t88 35t88 -35t24 -122t-23 -120t-89 -33z" />
<glyph unicode="ffl" horiz-adv-x="2929" d="M2056 1781v-155h-410v-1626h-187v1626h-855v-1626h-186v1626h-324v155h324v200q0 252 125 382t372 130q57 0 119 -10l-16 -145h-66q-170 0 -259 -81.5t-89 -265.5v-210h855v200q0 252 125.5 382t371.5 130q321 0 689 -24v-1991q0 -287 149 -472l-155 -85 q-91 103 -135.5 231.5t-44.5 308.5v1877h-465q-170 0 -259 -81.5t-89 -265.5v-210h410z" />
<glyph unicode="fb" horiz-adv-x="3070" d="M418 1781v200q0 252 125 382t372 130q319 0 689 -24v-738q283 74 534 74q268 0 426.5 -87.5t233.5 -286.5t75 -540q0 -174 -19.5 -308t-62 -236.5t-105 -172.5t-152.5 -114.5t-200.5 -64t-252.5 -19.5q-387 0 -656 138q-7 132 -7 295v1929h-466q-170 0 -259 -81.5 t-89 -265.5v-210h410v-155h-410v-1626h-186v1626h-324v155h324zM1609 229q99 -44 226.5 -67t245.5 -23q170 0 284.5 41t186 133.5t102.5 232t31 345.5q0 145 -11 249.5t-38.5 191.5t-72 143t-114.5 94.5t-163.5 55t-220.5 16.5q-111 0 -239 -22.5t-222 -54.5v-1039 q0 -148 5 -296z" />
<glyph unicode="ffb" horiz-adv-x="4112" d="M1646 1626v-1626h-187v1626h-855v-1626h-186v1626h-324v155h324v200q0 252 125 382t372 130q57 0 119 -10l-16 -145h-66q-170 0 -259 -81.5t-89 -265.5v-210h855v200q0 252 125.5 382t371.5 130q321 0 689 -24v-738q284 74 535 74q268 0 426.5 -87.5t233.5 -286.5 t75 -540q0 -174 -19.5 -308t-62 -236.5t-105 -172.5t-152.5 -114.5t-200.5 -64t-252.5 -19.5q-387 0 -657 138q-7 164 -7 295v1929h-465q-170 0 -259 -81.5t-89 -265.5v-210h410v-155h-410zM2645 525q0 -118 6 -296q99 -44 226.5 -67t245.5 -23q170 0 284 41t186 133.5 t103 232t31 345.5q0 144 -11 249t-38.5 192t-72 143t-114.5 94.5t-163.5 55t-220.5 16.5q-111 0 -239 -22t-223 -55v-1039z" />
<glyph unicode="ffh" horiz-adv-x="4120" d="M604 1781h855v200q0 252 125.5 382t371.5 130q321 0 689 -24v-741q281 74 550 77q127 1 227 -14t171.5 -41.5t123 -70t83 -92.5t49.5 -117.5t24.5 -135.5t6.5 -155v-1179h-186v1127q0 96 -7.5 162.5t-29 128.5t-60 100t-100.5 67t-151 41.5t-211 12.5q-247 0 -490 -81 v-1558h-186v2338h-465q-170 0 -259 -81.5t-89 -265.5v-210h410v-155h-410v-1626h-187v1626h-855v-1626h-186v1626h-324v155h324v200q0 252 125 382t372 130q57 0 119 -10l-16 -145h-66q-170 0 -259 -81.5t-89 -265.5v-210z" />
<glyph unicode="ffj" horiz-adv-x="2989" d="M604 1626v-1626h-186v1626h-324v155h324v200q0 252 125 382t372 130q57 0 119 -10l-16 -145h-66q-170 0 -259 -81.5t-89 -265.5v-210h855v200q0 252 125.5 382t371.5 130q59 0 119 -10l-15 -145h-66q-170 0 -259 -81.5t-89 -265.5v-210h1082v-1808q0 -348 -131 -500.5 t-410 -152.5q-31 0 -46 2l16 146q48 3 85.5 9t79 20t72.5 35t60 55.5t47.5 80t29.5 110.5t11 146v1702h-896v-1626h-187v1626h-855zM2524 2336q0 87 23.5 122t87.5 35t88.5 -35t24.5 -122t-23.5 -120t-89.5 -33t-88.5 33t-22.5 120z" />
<glyph unicode="ffk" horiz-adv-x="3828" d="M2645 949l818 832h236l-875 -886l931 -895h-258l-852 826v-826h-185v2338h-466q-170 0 -259 -81.5t-89 -265.5v-210h410v-155h-410v-1626h-187v1626h-855v-1626h-186v1626h-324v155h324v200q0 252 125 382t372 130q57 0 119 -10l-16 -145h-66q-170 0 -259 -81.5 t-89 -265.5v-210h855v200q0 252 125.5 382t371.5 130q321 0 689 -24v-1520z" />
<glyph unicode="fh" horiz-adv-x="3078" d="M94 1626v155h324v200q0 252 125 382t372 130q319 0 689 -24v-741q279 74 549 77q127 1 227 -14t171.5 -41.5t123 -70t83 -92.5t49.5 -117.5t24.5 -135.5t6.5 -155v-1179h-186v1127q0 63 -3 112t-11 97t-22 83t-36 68.5t-53 56t-72 42t-94.5 30.5t-119.5 17t-148 6 q-248 0 -489 -81v-1558h-187v2338h-465q-170 0 -259 -81.5t-89 -265.5v-210h410v-155h-410v-1626h-186v1626h-324z" />
<glyph unicode="fj" horiz-adv-x="1947" d="M604 1781h1083v-1808q0 -348 -131.5 -500.5t-410.5 -152.5q-31 0 -46 2l16 146q48 3 85.5 9t79 20t72.5 35t60 55.5t47.5 80t29.5 110.5t11 146v1702h-896v-1626h-186v1626h-324v155h324v200q0 252 125 382t372 130q57 0 119 -10l-16 -145h-66q-170 0 -259 -81.5 t-89 -265.5v-210zM1482 2336q0 87 23.5 122t87.5 35q65 0 89 -35t24 -122t-23 -120t-90 -33q-66 0 -88.5 33t-22.5 120z" />
<glyph unicode="fk" horiz-adv-x="2786" d="M94 1781h324v200q0 252 125 382t372 130q319 0 689 -24v-1520l817 832h236l-874 -886l930 -895h-257l-852 826v-826h-186v2338h-466q-170 0 -259 -81.5t-89 -265.5v-210h410v-155h-410v-1626h-186v1626h-324v155z" />
<glyph unicode=" "  horiz-adv-x="1000" />
<glyph unicode="&#x09;" horiz-adv-x="1000" />
<glyph unicode="&#xa0;" horiz-adv-x="1000" />
<glyph unicode="!" horiz-adv-x="743" d="M371 -24q-66 0 -89 33t-23 120t24 122t88 35t88.5 -35t24.5 -122t-23.5 -120t-89.5 -33zM288 679l-33 1651h232l-33 -1651h-166z" />
<glyph unicode="&#x22;" horiz-adv-x="1086" d="M252 1572l-26 897h208l-26 -897h-156zM677 1572l-26 897h209l-26 -897h-157z" />
<glyph unicode="#" horiz-adv-x="1866" d="M237 1621h367q14 108 50.5 374.5t45.5 334.5h164l-96 -709h480q13 98 48.5 358t47.5 351h166l-97 -709h302v-158h-325l-78 -593h310v-157h-333l-97 -713h-165l97 713h-480l-96 -713h-165l96 713h-329v157h352l79 593h-344v158zM1147 870l79 593h-480l-80 -593h481z" />
<glyph unicode="$" horiz-adv-x="1650" d="M176 185q257 -41 528 -41q112 0 198 11t164.5 41t129.5 79t81 128.5t30 186.5q0 73 -14.5 130.5t-47.5 103.5t-74 80.5t-107 65.5t-131.5 54.5t-161.5 52.5q-74 22 -127.5 39.5t-113.5 41t-102 45t-86.5 50.5t-73.5 60.5t-56.5 71.5t-43 85.5t-24.5 102t-9 121.5 q0 148 40 255.5t120 176t192 105.5t265 48v316h158v-311q267 -1 536 -46l-18 -157q-243 36 -437 36q-124 0 -217 -8.5t-181 -33t-144 -66t-89.5 -110t-33.5 -161.5q0 -60 5 -105.5t19.5 -85.5t32.5 -69t52.5 -57t71 -48.5t96 -44t119.5 -42.5t150 -45q115 -33 201 -67.5 t171 -88t139 -118.5t87.5 -158t33.5 -207q0 -295 -154.5 -442t-461.5 -176v-319h-158v311h-17q-177 0 -300 11t-257 38z" />
<glyph unicode="%" horiz-adv-x="2699" d="M655 974q-119 0 -203 28t-138 79.5t-85 138.5t-42.5 189.5t-11.5 248.5t11.5 248.5t42.5 189.5t85 138.5t138 79.5t203 28t203 -28t138 -79.5t85 -138.5t43 -189.5t12 -248.5t-12 -248.5t-43 -189.5t-85 -138.5t-138 -79.5t-203 -28zM655 1096q79 0 137.5 17t95 56.5 t58.5 81.5t32 115.5t13 133t3 158.5t-3 158.5t-13 133t-32 115.5t-58.5 81.5t-95 56.5t-137.5 17q-48 0 -88.5 -6.5t-71.5 -20.5t-56 -31t-43.5 -44.5t-31.5 -53.5t-21.5 -65.5t-14 -72.5t-8 -82.5t-3 -88.5t-0.5 -97q0 -120 4 -188.5t22 -150t53 -123.5t99.5 -71t159.5 -29 zM2029 -12q-119 0 -203 28t-137.5 79.5t-84.5 138.5t-42.5 190t-11.5 249t11.5 248t42.5 189t84.5 138.5t137.5 79.5t203 28q99 0 174 -18t128 -57.5t88 -93.5t55 -134t28 -169.5t8 -210.5q0 -103 -5.5 -183t-20 -153.5t-38.5 -126.5t-60.5 -97t-87 -70.5t-117.5 -40.5 t-152 -14zM2029 110q79 0 137.5 17t95 56.5t58.5 81.5t32 115.5t13 133.5t3 159t-3 158.5t-13 133t-32 115.5t-58.5 81.5t-95 56.5t-137.5 17q-53 0 -96.5 -9t-76.5 -23t-58.5 -40.5t-42.5 -52t-29 -67t-18.5 -76.5t-10 -89.5t-4.5 -97t-1 -107.5t1 -107.5t4.5 -97t10 -90 t18.5 -77t29.5 -67t42.5 -52t58 -40.5t76.5 -23t96.5 -9zM571 -48l1368 2426h171l-1368 -2426h-171z" />
<glyph unicode="&#x26;" horiz-adv-x="2195" d="M2044 0h-239l-193 226q-261 -250 -709 -250q-374 0 -555 158.5t-181 482.5q0 100 30 187.5t77.5 153t121.5 126.5t146.5 104.5t168.5 90.5q-61 71 -98 120.5t-85 126.5t-72 156t-24 160q0 111 29 198.5t80.5 145.5t124.5 96.5t156.5 55t182.5 16.5q88 0 166 -15.5 t149 -52t122 -91t81 -136.5t30 -185q0 -72 -17 -137t-44.5 -116.5t-72.5 -100t-89.5 -84t-108.5 -74t-116 -65t-125 -60.5l626 -729q159 236 191 590l180 -9q-48 -456 -246 -728zM1368 1839q0 99 -26.5 169.5t-78 110t-117 57.5t-152.5 18q-80 0 -146 -20t-119 -61.5 t-82.5 -113.5t-29.5 -169q0 -64 21.5 -128t61 -123t74 -102t81.5 -96q14 -15 20 -22q59 29 94.5 47t88 46.5t85 51t72.5 53t64 60.5t46.5 65t32.5 74.5t10 82.5zM1493 366l-676 790q-59 -31 -103 -56.5t-93.5 -59.5t-85.5 -67t-70 -76t-55 -89t-33.5 -102.5t-12.5 -120.5 q0 -75 18 -138t49 -108.5t75.5 -81t94.5 -58t109 -37t116 -20.5t119 -6q326 0 548 230z" />
<glyph unicode="'" horiz-adv-x="660" d="M252 1572l-26 897h208l-26 -897h-156z" />
<glyph unicode="(" horiz-adv-x="977" d="M712 2430l116 -97q-103 -101 -181 -239.5t-124.5 -279t-75.5 -303.5t-39 -301t-10 -283t10 -282.5t39 -300.5t75.5 -303.5t124.5 -279t181 -239.5l-116 -97q-117 113 -206 251.5t-145.5 282.5t-92 310t-49.5 324t-14 334t14 334.5t49.5 324t92 309.5t145.5 283t206 252z " />
<glyph unicode=")" horiz-adv-x="977" d="M266 -575l-117 97q103 101 181 239.5t124.5 279t75.5 303.5t39 300.5t10 282.5t-10 283t-39 301t-75.5 303.5t-124.5 279t-181 239.5l117 97q144 -140 246 -316.5t157 -373.5t79 -393.5t24 -419.5t-24 -419t-79 -393.5t-157 -373.5t-246 -316z" />
<glyph unicode="*" horiz-adv-x="1577" d="M1048 1170l-260 441l-255 -443l-129 75l262 451h-525v144h522l-259 449l131 75l253 -444l261 444l125 -75l-259 -449h522v-144h-524l262 -453z" />
<glyph unicode="+" horiz-adv-x="1950" d="M881 1069v712h185v-712h712v-177h-712v-716h-185v716h-709v177h709z" />
<glyph unicode="," horiz-adv-x="714" d="M95 -437l230 836h227l-293 -836h-164z" />
<glyph unicode="-" horiz-adv-x="1348" d="M248 801v169h852v-169h-852z" />
<glyph unicode="." horiz-adv-x="688" d="M344 -24q-66 0 -89 33t-23 120t24 122t88 35t88 -35t24 -122t-23 -120t-89 -33z" />
<glyph unicode="/" horiz-adv-x="1355" d="M99 -268l945 2680h187l-946 -2680h-186z" />
<glyph unicode="0" horiz-adv-x="2084" d="M1041 -24q-124 0 -225 17.5t-180 54.5t-139 88.5t-104 126.5t-73 161t-46 199.5t-24 234t-7 272.5t7 272.5t24 234t46 199.5t73 161t104 126.5t139 88.5t180 54.5t225 17.5q142 0 253.5 -24t195.5 -69t145 -118.5t101 -163t63.5 -213t33 -258t9.5 -308.5t-9.5 -308.5 t-33 -258t-63.5 -213t-101 -163t-145 -118.5t-195.5 -69t-253.5 -24zM1041 143q95 0 173.5 15.5t137.5 41t104.5 71t77 91.5t53.5 117.5t34 134.5t19 157.5t8.5 170.5t1.5 188q0 128 -2.5 211.5t-11 188t-26 171t-47 140.5t-75 119t-107.5 84t-147.5 56t-192.5 17 q-96 0 -174 -15.5t-137 -40.5t-104.5 -71t-76.5 -91t-52.5 -118t-33.5 -134.5t-18.5 -157.5t-8 -170.5t-1.5 -188.5t1.5 -188.5t8 -170t18.5 -157.5t33.5 -134.5t52.5 -118t76.5 -91.5t104.5 -71t137 -40.5t174 -15.5z" />
<glyph unicode="1" horiz-adv-x="1137" d="M655 0v2044q-304 -89 -580 -132l-9 166q165 26 334 77t291 105h153v-2260h-189z" />
<glyph unicode="2" horiz-adv-x="1756" d="M189 2064l-20 158q352 62 659 62q141 0 255 -17t209.5 -55.5t160 -98.5t100 -148t35.5 -201q0 -154 -44.5 -280.5t-133 -224.5t-204 -172.5t-271.5 -139.5q-123 -51 -212.5 -110.5t-149.5 -124.5t-100.5 -151.5t-63.5 -175t-41 -212.5h1219v-173h-1450q20 117 37 200 t38 171t43.5 150.5t51.5 127t64 112t79 95t98.5 86t120.5 75t147 70.5q128 54 225.5 111.5t181.5 133t128.5 170.5t44.5 206q0 225 -150 314.5t-505 89.5q-264 0 -552 -48z" />
<glyph unicode="3" horiz-adv-x="1770" d="M735 2284q94 0 173 -5.5t161 -21t146.5 -40t123 -65t97 -94.5t61 -129.5t22.5 -168.5q0 -435 -365 -569v-2q58 -14 113.5 -42.5t109 -75.5t93.5 -106.5t64.5 -140.5t24.5 -173q0 -153 -38.5 -269t-107.5 -193t-175.5 -125t-232.5 -68t-287 -20q-322 0 -612 57l23 163 q13 -2 81 -10.5t91.5 -11.5t82.5 -9.5t93.5 -9t83 -5t90.5 -2.5q148 0 257.5 14.5t197.5 48t143 89t83.5 138.5t28.5 196q0 195 -117.5 312t-311.5 136q-140 14 -351 14q-17 0 -50 -0.5t-50 -0.5v154q231 5 451 37q185 27 289 141t104 277q0 80 -16.5 142t-43 105t-73 73.5 t-94.5 47.5t-120 26.5t-135.5 12.5t-155.5 3q-217 0 -537 -47l-21 160q165 30 296 43.5t310 13.5z" />
<glyph unicode="4" horiz-adv-x="1974" d="M1311 0v556h-1023q-178 0 -178 140q0 78 111 221l954 1230q107 137 212 137q51 0 82.5 -35.5t31.5 -109.5v-1421h319v-162h-319v-556h-190zM1311 2039l-1019 -1321h1019v1321z" />
<glyph unicode="5" horiz-adv-x="1795" d="M456 2088l-51 -752q163 10 271 10q98 0 177.5 -3.5t162.5 -13t148.5 -26t130 -42.5t112 -62t89 -85.5t67.5 -111.5t40.5 -142t14.5 -176q0 -191 -52.5 -327.5t-157.5 -220t-253 -122t-350 -38.5q-335 0 -642 59l22 163q274 -47 534 -47q155 0 265 16t196.5 53t138 101.5 t77.5 158.5t26 226q0 87 -20 156t-55 118.5t-92 85t-120.5 57.5t-152 34.5t-175.5 17t-201 4.5q-210 0 -396 -11l74 1092h1269v-172h-1097z" />
<glyph unicode="6" horiz-adv-x="2009" d="M1060 1372q152 0 266 -18t213.5 -64t162 -122.5t98 -196.5t35.5 -284q0 -141 -26 -251t-78 -187.5t-122 -131t-166.5 -84.5t-201.5 -44t-237 -13q-134 0 -242.5 22t-189 61.5t-140.5 101.5t-99 136t-63 171t-33.5 200t-9.5 230q0 205 11.5 363t40.5 298.5t75 242 t117.5 185t164.5 137.5t220.5 91.5t281.5 53t350 15.5q44 0 161 -2l17 -163q-329 -11 -354 -12q-324 -19 -500 -103q-262 -125 -340 -436q-28 -110 -34 -246q392 50 622 50zM992 1207q-166 0 -568 -53q-7 -124 -7 -304q0 -84 5 -152t20.5 -143.5t41.5 -133t70 -111.5 t103.5 -89t145 -56t192.5 -21q244 0 385.5 56t203 173.5t61.5 318.5q0 93 -14 165.5t-39.5 126.5t-68 93t-93 64t-121 40t-145 20.5t-172.5 5.5z" />
<glyph unicode="7" horiz-adv-x="1669" d="M1547 2059l-949 -2059h-214l985 2091h-1293v169h1331q165 0 165 -109q0 -39 -25 -92z" />
<glyph unicode="8" horiz-adv-x="2023" d="M1010 2284q366 0 567 -139t201 -406q0 -210 -82 -343.5t-289 -220.5q408 -147 408 -579q0 -148 -43 -259t-114 -179t-177.5 -109.5t-218.5 -57t-252 -15.5q-143 0 -259.5 18.5t-219.5 63t-172.5 114.5t-109.5 178.5t-40 249.5q0 122 30 218.5t87 164.5t126 113.5 t159 78.5q-198 85 -281.5 220t-83.5 344q0 269 196 407t568 138zM1010 143q110 0 195.5 11t167.5 41.5t135 81.5t85.5 135t32.5 197q0 124 -44.5 213t-133 143t-202.5 82t-271 39q-107 -12 -188.5 -31t-157.5 -54.5t-124.5 -86.5t-77.5 -128t-29 -177q0 -110 32.5 -193 t86 -134.5t134.5 -83t166.5 -43.5t192.5 -12zM1046 1250q95 14 169.5 33t148 53.5t121.5 81.5t77.5 118t29.5 161q0 101 -31.5 177t-83.5 122t-129.5 74.5t-158 39t-179.5 10.5q-100 0 -179.5 -10t-156 -38.5t-128 -74.5t-82.5 -122t-31 -178q0 -405 613 -447z" />
<glyph unicode="9" horiz-adv-x="2005" d="M936 888q-152 0 -266 18t-213.5 64t-162 122.5t-98 196.5t-35.5 284q0 141 26 251t78 187.5t122 131t166.5 84.5t201.5 44t237 13q134 0 242.5 -22t189.5 -61.5t141 -101.5t99 -136t63 -171t33.5 -200t9.5 -230q0 -205 -11.5 -363t-40.5 -298.5t-75 -242t-117.5 -185 t-164.5 -137.5t-220.5 -91.5t-281.5 -53t-350 -15.5q-45 0 -162 2l-17 163q329 11 354 12q324 19 500 103q261 124 340 433q28 111 35 249q-392 -50 -623 -50zM1579 1355v55q0 84 -5 152t-20.5 143.5t-41 133t-69.5 111.5t-103.5 89t-145.5 56t-193 21q-244 0 -385 -56 t-202.5 -173.5t-61.5 -318.5q0 -108 17.5 -189t56 -138t90 -93.5t128.5 -57.5t161.5 -29t198.5 -8q168 0 568 53q7 115 7 249z" />
<glyph unicode=":" horiz-adv-x="745" d="M372 -24q-66 0 -88.5 33t-22.5 120t23.5 122t87.5 35q65 0 89 -35t24 -122t-23 -120t-90 -33zM372 1258q-66 0 -88.5 33t-22.5 120t23.5 122t87.5 35q65 0 89 -35t24 -122t-23 -120t-90 -33z" />
<glyph unicode=";" horiz-adv-x="815" d="M479 1258q-66 0 -88.5 33t-22.5 120t23.5 122t87.5 35q65 0 89 -35t24 -122t-23 -120t-90 -33zM133 -437l230 836h227l-293 -836h-164z" />
<glyph unicode="&#x3c;" horiz-adv-x="1968" d="M161 889v179l1560 756v-196l-1354 -648l1354 -651v-196z" />
<glyph unicode="=" horiz-adv-x="2140" d="M267 555v175h1606v-175h-1606zM267 1227v176h1606v-176h-1606z" />
<glyph unicode="&#x3e;" horiz-adv-x="1968" d="M247 329l1354 651l-1354 648v196l1560 -756v-179l-1560 -756v196z" />
<glyph unicode="?" horiz-adv-x="1651" d="M710 679h-167l-3 197q0 10 -0.5 41t-0.5 43q0 78 26 131.5t70.5 82.5t102 47.5t121 31t127.5 27t121.5 42.5t102 71t70.5 118t26 178q0 102 -12.5 174t-44.5 129t-80.5 92t-128 57.5t-180 31.5t-241.5 9q-223 0 -488 -47l-35 162q288 57 589 57q114 0 201 -6t176 -23.5 t153 -47t122 -78.5t93 -116.5t55.5 -162t20.5 -214.5q0 -79 -10.5 -146t-24 -117t-43 -93t-50.5 -71t-64.5 -54t-67 -39t-76 -28.5t-73.5 -20.5t-76 -17q-65 -14 -96.5 -22t-79.5 -28t-71 -43.5t-41.5 -64.5t-19.5 -96zM515 129q0 87 23.5 122t87.5 35q65 0 89 -35t24 -122 t-23 -120t-90 -33q-66 0 -88.5 33t-22.5 120z" />
<glyph unicode="@" horiz-adv-x="3112" d="M2881 1277q31 -180 31 -386q0 -313 -88 -541t-263 -370.5t-423 -210t-580 -67.5q-266 0 -477.5 42.5t-376.5 133t-274.5 230t-166.5 335.5t-57 448q0 258 60 456.5t173 336.5t284.5 227t386 129t485.5 40q102 0 188 -15.5t163 -53.5t130.5 -96.5t84.5 -148.5t31 -206 v-751q0 -163 -7 -296q-289 -136 -644 -136q-331 0 -481.5 125t-150.5 389q0 210 111 343.5t319 176.5q180 37 669 52q0 258 -93 355t-337 97q-229 0 -407.5 -31.5t-327 -104.5t-245.5 -190t-150 -292t-53 -406q0 -164 26.5 -299.5t76.5 -240.5t125.5 -186t170.5 -137.5 t215 -92.5t254.5 -52t294.5 -16q225 0 402 32.5t322.5 106.5t241.5 191.5t148 291.5t52 402q0 191 -24 333zM2008 923v385q-456 -8 -608 -46q-304 -73 -304 -365q0 -201 110.5 -279.5t345.5 -78.5q222 0 450 88q6 133 6 296z" />
<glyph unicode="A" horiz-adv-x="2182" d="M303 0h-201l848 2221q26 68 60.5 100.5t84.5 32.5q97 0 147 -133l838 -2221h-209l-259 691h-1050zM624 854h927l-462 1237z" />
<glyph unicode="B" horiz-adv-x="2138" d="M986 2354q103 0 189.5 -5.5t181 -21t168.5 -41.5t142.5 -70t114 -103t72.5 -143t27 -188q0 -465 -344 -590q70 -23 126 -54.5t105.5 -82t82.5 -117t52 -161t19 -212.5q0 -104 -24.5 -188.5t-66.5 -145t-107 -106t-137.5 -73.5t-166.5 -45.5t-186.5 -24t-203.5 -6.5 q-400 0 -742 55v2274q322 49 698 49zM1002 1112h-519v-936q286 -32 530 -32q100 0 175.5 4.5t153 17t133 34.5t105 58t80 86t48 120.5t17.5 159.5q0 88 -18.5 158.5t-51.5 121.5t-84.5 88t-109 60t-134.5 36.5t-153 18.5t-172 5zM483 1271h519q95 0 170 5t148 18.5t127 36 t101 58t76.5 84.5t46 115.5t16.5 149.5t-19 149t-50.5 112.5t-83 80.5t-107 54t-131 32t-147 16t-163.5 4q-230 0 -503 -33v-882z" />
<glyph unicode="C" horiz-adv-x="1728" d="M1645 183l18 -158q-255 -49 -509 -49q-160 0 -286.5 23t-224 67.5t-168 117.5t-118.5 165t-77 219t-41 270t-12 327t12.5 327t41 270t76.5 219t119 165t168.5 117.5t223.5 67.5t286 23q269 0 509 -46l-19 -162q-247 37 -387 37q-160 0 -282.5 -22t-210.5 -59.5 t-149 -105.5t-98.5 -142.5t-57.5 -189.5t-26.5 -226.5t-6.5 -272.5q0 -122 4.5 -215.5t16 -188.5t31.5 -164.5t52.5 -137t77.5 -114t106.5 -86t141 -63t179.5 -36.5t222 -13q130 0 388 36z" />
<glyph unicode="D" horiz-adv-x="2236" d="M913 2184q-165 0 -429 -32v-1972q251 -34 429 -34q483 0 684 189q139 130 176 386q19 141 19 444t-18 437q-36 257 -171 388q-197 190 -670 194h-20zM289 28v2277q322 49 694 49q128 0 236 -11.5t197 -36.5t161.5 -59t129.5 -84t100 -106.5t74.5 -131t52 -154t33 -179 t17.5 -201.5t5 -226t-5 -226t-17.5 -201.5t-33 -179t-52 -154t-74.5 -131t-100 -106.5t-129.5 -84t-161.5 -59t-197 -36.5t-236 -11.5q-353 0 -694 52z" />
<glyph unicode="E" horiz-adv-x="1770" d="M1590 2323v-157h-566q-123 0 -205 -7.5t-146.5 -29.5t-100 -53.5t-58.5 -89t-30.5 -126.5t-7.5 -174v-416h1065v-165h-1065v-464q0 -105 7.5 -174t30.5 -126t58.5 -88.5t100 -53t146.5 -28.5t205 -7h566v-160q-238 -10 -556 -10q-100 0 -165 2.5t-152.5 13t-143 30 t-117 56t-96 88.5t-57.5 130.5t-23 178.5v1341q0 100 23 178.5t57.5 131t95.5 89.5t117.5 57t143 30.5t152.5 13t165 2.5q233 0 556 -13z" />
<glyph unicode="F" horiz-adv-x="1737" d="M480 0h-195v1834q0 100 22.5 178.5t57.5 131t96 89.5t117 57t143 30.5t153 13t165 2.5q321 0 557 -13v-157h-567q-123 0 -205 -7.5t-146.5 -29.5t-100.5 -53.5t-59 -89t-30.5 -126.5t-7.5 -174v-416h1066v-165h-1066v-1105z" />
<glyph unicode="G" horiz-adv-x="2117" d="M1273 1036v164h628v-856q0 -57 -12 -103.5t-32 -82t-54 -63t-70 -47t-89.5 -33t-102 -21t-117.5 -12t-126.5 -5.5t-138.5 -1q-160 0 -286 23t-223 67.5t-168 117.5t-119 165t-76.5 219t-41 270t-12.5 327q0 162 9 292t31 247t57 205.5t87 163.5t122 126t161.5 86.5 t205 52t253.5 16.5q372 0 667 -49l-19 -164q-300 40 -544 40q-160 0 -282.5 -21.5t-211 -58.5t-149 -105t-98 -142t-57.5 -188.5t-26.5 -227t-6.5 -273.5q0 -110 3 -194t11.5 -172t23.5 -153.5t39 -131.5t58 -113t80.5 -90.5t106.5 -72t135.5 -50t168.5 -31.5t205 -10 q69 0 126 5t100 13t76.5 23t56.5 29.5t39 38t25 43.5t13.5 50.5t6 55.5t1.5 61v570h-434z" />
<glyph unicode="H" horiz-adv-x="2297" d="M1806 1278v1052h196v-2330h-196v1108h-1315v-1108h-196v2330h196v-1052h1315z" />
<glyph unicode="I" horiz-adv-x="779" d="M292 0v2330h196v-2330h-196z" />
<glyph unicode="J" horiz-adv-x="1274" d="M795 669v1661h196v-1604q0 -207 -30 -344t-103.5 -230.5t-194 -134.5t-302.5 -41q-162 0 -304 49l17 155q119 -34 268 -34q83 0 147.5 13t123.5 48t98 92.5t61.5 151t22.5 218.5z" />
<glyph unicode="K" horiz-adv-x="1933" d="M484 2330v-1080l1077 1080h250l-1129 -1126l1160 -1204h-261l-1097 1144v-1144h-196v2330h196z" />
<glyph unicode="L" horiz-adv-x="1601" d="M1552 164v-162q-221 -8 -513 -8q-100 0 -165 2.5t-152.5 13t-143.5 30t-117 56t-95.5 88.5t-57.5 130.5t-23 178.5v1837h196v-1689q0 -104 7.5 -172.5t30.5 -125.5t59 -88.5t100.5 -53.5t146.5 -29.5t205 -7.5h522z" />
<glyph unicode="M" horiz-adv-x="2842" d="M240 0l146 2219q9 135 122 135q90 0 149 -127l762 -1635l771 1634q60 128 148 128q115 0 124 -136l140 -2218h-196l-125 2018l-745 -1592q-27 -58 -53 -84.5t-66 -26.5t-66.5 27t-53.5 84l-738 1591l-130 -2017h-189z" />
<glyph unicode="N" horiz-adv-x="2340" d="M589 2224l1273 -1953v2059h184v-2217q0 -69 -33 -103t-87 -34q-51 0 -91.5 32t-83.5 98l-1272 1954v-2060h-184v2217q0 69 33 103t87 34q49 0 90 -32.5t84 -97.5z" />
<glyph unicode="O" horiz-adv-x="2266" d="M1134 -24q-175 0 -308.5 29t-233.5 92.5t-167 156t-108.5 229t-59 301t-17.5 381.5t17.5 381.5t59 301t108.5 229t167 156t233.5 92.5t308.5 29t308 -29t232.5 -92.5t166.5 -156t108.5 -229t59 -301t17.5 -381.5t-17.5 -381.5t-59 -301t-108.5 -229t-166.5 -156 t-232.5 -92.5t-308 -29zM1134 147q109 0 198.5 16.5t157 42.5t119.5 74t87.5 95t60.5 122t38.5 139t21 162t9.5 175t2 192q0 116 -2 193t-9.5 175t-21 162t-38.5 138.5t-60.5 122t-87.5 95t-119.5 73.5t-157 42.5t-198.5 16.5q-99 0 -182 -11.5t-147.5 -38t-115.5 -57 t-88.5 -81t-65 -97t-45 -118.5t-28 -131.5t-15.5 -149.5t-6.5 -159.5t-1.5 -174.5q0 -117 1.5 -192.5t9 -174.5t21 -162t38 -138.5t60 -122.5t88 -95t120 -74t157.5 -42.5t200 -16.5z" />
<glyph unicode="P" horiz-adv-x="2027" d="M483 974v-974h-195v2302q341 52 698 52q113 0 205 -7t187.5 -26.5t168 -52t138 -85.5t107.5 -124t66.5 -171.5t24.5 -224.5q0 -123 -22 -222t-61 -172.5t-99 -128t-130.5 -90t-162 -57t-186 -30t-209.5 -8.5q-153 0 -530 19zM483 2151v-1004q237 -24 503 -24 q141 0 246 14.5t193.5 51t144.5 97.5t86.5 155t30.5 222q0 281 -157 402t-532 121q-250 0 -515 -35z" />
<glyph unicode="Q" horiz-adv-x="2267" d="M1134 -24q-150 0 -269 22t-213 65.5t-162.5 115t-117 164t-77.5 218.5t-42 272t-13 332t13 332t42 272t77.5 218.5t117 164t162.5 115t213 65.5t269 22q175 0 308 -29t233 -92.5t167 -156t108.5 -229t59 -301t17.5 -381.5q0 -232 -20.5 -405t-68 -313t-126.5 -232 t-194 -148.5t-273 -77.5q30 -52 70.5 -97t83 -80t101.5 -70.5t111.5 -62.5t128.5 -62l-148 -106q-171 83 -211 106q-210 118 -307 281q-23 38 -40 78zM1828 1165q0 116 -2 193t-9 175t-21 162t-38.5 139t-60 122t-88 94.5t-120 73.5t-157 42.5t-198.5 16.5 q-110 0 -199.5 -16.5t-157.5 -42.5t-120 -73.5t-87.5 -94.5t-60.5 -122.5t-38.5 -139t-20.5 -162t-9 -174.5t-2 -193q0 -152 3.5 -245.5t18 -214t42 -192.5t78 -150.5t123.5 -120t181 -68.5t249 -27q109 0 198.5 16.5t157 42.5t120 74t88 95t60 122t38.5 139t21 162t9 174.5 t2 192.5z" />
<glyph unicode="R" horiz-adv-x="2079" d="M484 0h-196v2302q343 52 698 52q114 0 205 -6.5t187 -25t168.5 -50t138 -83.5t108 -122.5t67 -170t24.5 -223.5q0 -137 -28.5 -244.5t-79.5 -182.5t-128.5 -128t-168.5 -82.5t-205 -44.5l581 -991h-229l-560 977h-53q-175 0 -529 18v-995zM484 2152v-984q237 -23 502 -23 q176 0 299.5 24t217 83t139 163.5t45.5 258.5q0 278 -156.5 395.5t-532.5 117.5q-240 0 -514 -35z" />
<glyph unicode="S" horiz-adv-x="1714" d="M1030 2181q-128 0 -224.5 -9t-187 -34t-148 -67.5t-92 -113t-34.5 -167.5q0 -61 5 -108t20 -88t33.5 -70.5t54.5 -58.5t73 -49.5t99.5 -45t123.5 -44t155 -46.5q118 -34 207 -69.5t176.5 -91t143.5 -122t90.5 -162.5t34.5 -214q0 -175 -53 -299.5t-159 -200 t-254.5 -110.5t-349.5 -35q-182 0 -309 11.5t-266 39.5l20 165q279 -43 545 -43q115 0 204 11.5t170 42.5t133.5 81.5t83.5 132.5t31 192q0 64 -12.5 117.5t-33.5 95.5t-59 78t-79 63.5t-102.5 54t-121.5 47.5t-145 46q-76 23 -131 41t-117 41.5t-105 46t-89 52.5t-76 62 t-58 73t-44 88t-25.5 105t-9.5 125q0 136 33.5 239.5t97 173.5t161 114t217.5 63t275 19q282 0 567 -48l-18 -162q-247 37 -451 37z" />
<glyph unicode="T" horiz-adv-x="1666" d="M1586 2330v-166h-655v-2164h-196v2164h-656v166h1507z" />
<glyph unicode="U" horiz-adv-x="2228" d="M1938 2330v-1586q0 -179 -39 -313t-108 -220t-175 -139.5t-228.5 -74.5t-280.5 -21q-157 0 -279.5 21t-228.5 74.5t-175 139.5t-108 220t-39 313v1586h194v-1612q0 -291 150.5 -430.5t485.5 -139.5q338 0 487 139t149 431v1612h195z" />
<glyph unicode="V" horiz-adv-x="2066" d="M1966 2330l-793 -2220q-25 -70 -58 -102t-83 -32q-95 0 -143 134l-787 2220h208l724 -2072l734 2072h198z" />
<glyph unicode="W" horiz-adv-x="3047" d="M350 2330l489 -2058l570 1661q24 69 55 100.5t79 31.5q47 0 79.5 -32.5t55.5 -100.5l548 -1659l480 2057h191l-528 -2218q-32 -136 -138 -136q-95 0 -140 136l-553 1669l-572 -1669q-24 -70 -57.5 -103t-82.5 -33q-106 0 -138 136l-537 2218h199z" />
<glyph unicode="X" horiz-adv-x="1976" d="M987 1364l599 966h215l-707 -1133l751 -1197h-228l-637 1021l-632 -1021h-217l742 1189l-714 1141h227z" />
<glyph unicode="Y" horiz-adv-x="1849" d="M1019 908v-908h-198v908l-741 1422h215l629 -1215l638 1215h207z" />
<glyph unicode="Z" horiz-adv-x="1761" d="M1585 2132l-1221 -1964h1256v-168h-1376q-130 0 -130 83q0 45 43 115l1223 1964h-1186v168h1305q130 0 130 -83q0 -46 -44 -115z" />
<glyph unicode="[" horiz-adv-x="967" d="M481 2250v-2633h359v-161h-540v2952h542v-158h-361z" />
<glyph unicode="\" horiz-adv-x="1355" d="M1070 -268l-946 2680h187l945 -2680h-186z" />
<glyph unicode="]" horiz-adv-x="966" d="M124 2250v158h542v-2952h-540v161h359v2633h-361z" />
<glyph unicode="^" horiz-adv-x="1632" d="M706 2330h221l540 -1195h-185l-466 1014l-466 -1014h-185z" />
<glyph unicode="_" horiz-adv-x="1670" d="M-10 -470v167h1690v-167h-1690z" />
<glyph unicode="`" horiz-adv-x="728" d="M446 1915l-372 458h242l287 -458h-157z" />
<glyph unicode="a" horiz-adv-x="1857" d="M287 1587l-17 157q191 30 337 45.5t315 15.5q99 0 179.5 -9t158.5 -31t135 -61.5t101.5 -97t67 -142t22.5 -191.5v-864q0 -131 -7 -295q-297 -138 -724 -138q-183 0 -311 26.5t-218 87t-132 161.5t-42 248q0 484 435 549q234 35 814 55v110q0 81 -9 139.5t-32 108.5 t-60.5 82t-97 54.5t-140 32.5t-189.5 10q-219 0 -586 -53zM339 505q0 -89 19.5 -151.5t57.5 -105t103.5 -66.5t148.5 -34t201 -10q288 0 527 89q5 150 5 296v425q-538 -10 -754 -51q-109 -21 -174 -62t-99.5 -121t-34.5 -209z" />
<glyph unicode="b" horiz-adv-x="1922" d="M270 409v2060h186v-738q283 74 534 74q268 0 426.5 -87.5t233.5 -286.5t75 -540q0 -174 -19.5 -308t-62 -236.5t-105 -172.5t-152.5 -114.5t-200.5 -64t-252.5 -19.5q-387 0 -656 138q-7 132 -7 295zM456 1564v-1039q0 -148 5 -296q99 -44 226.5 -67t245.5 -23 q170 0 284.5 41t186 133.5t102.5 232t31 345.5q0 145 -11 249.5t-38.5 191.5t-72 143t-114.5 94.5t-163.5 55t-220.5 16.5q-111 0 -238.5 -22t-222.5 -55z" />
<glyph unicode="c" horiz-adv-x="1470" d="M1349 182l19 -158q-247 -48 -431 -48q-127 0 -229.5 25t-177 68.5t-130 110.5t-90.5 143t-56.5 174t-29.5 196t-8 217q0 131 9 233.5t32 198.5t61 165.5t97 128t139.5 94.5t188.5 55.5t244 19.5q194 0 378 -46l-16 -148q-153 28 -292 28q-99 0 -178.5 -9t-143 -24.5 t-111.5 -43.5t-83 -60t-59.5 -80.5t-39.5 -97t-23 -118.5t-11 -137t-3 -159q0 -87 2.5 -151t10.5 -135.5t22 -122.5t38.5 -104t58.5 -89.5t82 -69.5t110.5 -52t143 -30.5t178.5 -11.5q110 0 298 38z" />
<glyph unicode="d" horiz-adv-x="1921" d="M1456 1731v738h186v-2060q0 -131 -7 -295q-269 -138 -656 -138q-142 0 -252.5 19.5t-200.5 64t-152.5 114.5t-105 172.5t-62 236.5t-19.5 308q0 341 75 540t233.5 286.5t426.5 87.5q250 0 534 -74zM1456 1564q-95 33 -222.5 55t-238.5 22q-127 0 -220.5 -16.5t-163.5 -55 t-114.5 -94.5t-72 -143t-38.5 -191.5t-11 -249.5q0 -206 31 -345.5t102.5 -232t186 -133.5t284.5 -41q118 0 245.5 23t226.5 67q5 148 5 296v1039z" />
<glyph unicode="e" horiz-adv-x="1941" d="M945 -24q-169 0 -297 45.5t-210 124t-132.5 196.5t-71 250.5t-20.5 298.5q0 248 39 416.5t130 282t238.5 164.5t366.5 51q173 0 304.5 -36t217.5 -100.5t140 -163t76.5 -213.5t22.5 -261q0 -92 -5 -184q-151 -25 -417.5 -50t-456.5 -33l-466 -19q6 -67 13.5 -119t20 -107 t30 -96.5t44 -82.5t60 -70t79.5 -55t102.5 -41.5t128 -24t157.5 -8.5q258 0 624 52l19 -160q-192 -29 -351 -43t-386 -14zM400 899l516 24q337 16 641 53q4 55 4 142q0 122 -30 215.5t-95.5 164.5t-178 108t-269.5 37q-119 0 -209 -18.5t-155.5 -60t-108.5 -99.5 t-68.5 -144.5t-36 -186.5t-10.5 -235z" />
<glyph unicode="f" horiz-adv-x="1096" d="M604 1991v-210h410v-155h-410v-1626h-186v1626h-324v155h324v200q0 252 125 382t372 130q57 0 119 -10l-16 -145h-66q-170 0 -259 -81.5t-89 -265.5z" />
<glyph unicode="g" horiz-adv-x="1928" d="M327 -618l17 157q361 -54 591 -54q163 0 265 22t161 76t80.5 130.5t21.5 199.5v177q-283 -74 -534 -74q-201 0 -337 45t-226.5 150.5t-131 275.5t-40.5 423t44.5 424t143.5 276t244.5 150t359.5 45q387 0 656 -138q7 -132 7 -295v-1520q0 -128 -34 -223.5t-91 -154 t-144.5 -93.5t-181 -48t-213.5 -13q-169 0 -317 15.5t-341 46.5zM986 1642q-169 0 -283.5 -40.5t-186.5 -131t-103 -226t-31 -334.5q0 -141 11 -243.5t38.5 -187t72.5 -139t115 -91.5t163 -53t220 -16q111 0 239 22.5t222 54.5v999q0 148 -5 296q-99 44 -226.5 67t-245.5 23 z" />
<glyph unicode="h" horiz-adv-x="1933" d="M1693 0h-186v1127q0 63 -3 112t-11 97t-22 83t-36 68.5t-53 56t-72 42t-94.5 30.5t-119.5 17t-148 6q-248 0 -489 -81v-1558h-186v2469h186v-741q279 74 549 77q127 1 227 -14t171.5 -41.5t123 -70t83 -92.5t49.5 -117.5t24.5 -135.5t6.5 -155v-1179z" />
<glyph unicode="i" horiz-adv-x="697" d="M348 2183q-66 0 -89 33t-23 120t24 122t88 35t88.5 -35t24.5 -122t-23.5 -120t-89.5 -33zM255 0v1781h186v-1781h-186z" />
<glyph unicode="j" horiz-adv-x="707" d="M260 -76v1857h186v-1808q0 -348 -131.5 -500.5t-410.5 -152.5q-30 0 -45 2l16 146q48 3 85.5 9t79 20t72.5 35t60 55.5t47.5 80t29.5 110.5t11 146zM353 2183q-66 0 -89 33t-23 120t24 122t88 35t88.5 -35t24.5 -122t-23.5 -120t-89.5 -33z" />
<glyph unicode="k" horiz-adv-x="1641" d="M459 2469v-1520l817 832h236l-874 -886l930 -895h-257l-852 826v-826h-186v2469h186z" />
<glyph unicode="l" horiz-adv-x="709" d="M239 461v2008h186v-1991q0 -287 149 -472l-155 -85q-91 103 -135.5 231.5t-44.5 308.5z" />
<glyph unicode="m" horiz-adv-x="3046" d="M455 1247v-1247h-186v1364q0 163 7 295q153 61 355.5 103.5t373.5 42.5q325 0 468 -156q304 156 687 156q110 0 198.5 -17.5t151 -48t108.5 -78t73.5 -99t44 -120t22 -133.5t5.5 -146v-1163h-186v1119q0 96 -8.5 166.5t-30 131t-57 100.5t-89.5 68.5t-128 41t-173 12.5 q-118 0 -262.5 -34.5t-268.5 -99.5q48 -125 48 -342v-1163h-186v1119q0 145 -20.5 237.5t-74.5 159t-148.5 95t-242.5 28.5q-94 0 -238.5 -28.5t-237.5 -67.5q-5 -150 -5 -296z" />
<glyph unicode="n" horiz-adv-x="2011" d="M454 1247v-1247h-186v1364q0 130 7 295q160 66 369.5 106t434.5 40q98 0 180 -10.5t144.5 -29t112.5 -48t84.5 -62.5t59.5 -78t40 -88.5t23.5 -101t11.5 -108.5t3 -116v-1163h-186v1118q0 72 -3.5 125.5t-14 106.5t-28.5 90.5t-46.5 72t-69 57t-95.5 39t-126.5 24 t-161.5 7.5q-124 0 -290 -29t-258 -68q-5 -150 -5 -296z" />
<glyph unicode="o" horiz-adv-x="2000" d="M1000 -24q-217 0 -363 48.5t-239.5 159.5t-134 282t-40.5 425t40.5 424.5t134 281.5t239.5 159.5t363 48.5q173 0 300.5 -32.5t219.5 -99.5t148 -177t82.5 -257.5t26.5 -347.5q0 -199 -26.5 -346.5t-82.5 -257.5t-148 -177.5t-219.5 -100.5t-300.5 -33zM1000 141 q135 0 231 23.5t166.5 75.5t111.5 141t60.5 212.5t19.5 297.5q0 218 -28.5 358t-99 229.5t-180.5 125.5t-281 36q-112 0 -194.5 -14t-150.5 -48t-112.5 -89t-75 -139.5t-43.5 -196.5t-13 -262t13 -262t43.5 -196.5t75 -139.5t112.5 -89.5t150.5 -48.5t194.5 -14z" />
<glyph unicode="p" horiz-adv-x="1924" d="M456 50v-706h-186v2028q0 130 7 295q269 138 657 138q142 0 252.5 -19.5t200.5 -64t152.5 -114.5t105 -172.5t62 -236.5t19.5 -308q0 -341 -75 -540t-233.5 -286.5t-426.5 -87.5q-251 0 -535 74zM456 217q95 -32 222.5 -54.5t238.5 -22.5q127 0 220.5 16.5t163.5 55 t114.5 94.5t72 143t38.5 191.5t11 249.5q0 206 -31 345.5t-102.5 232t-185.5 133.5t-284 41q-118 0 -245.5 -23t-226.5 -67q-6 -133 -6 -296v-1039z" />
<glyph unicode="q" horiz-adv-x="1922" d="M1643 1372v-2028h-186v706q-284 -74 -534 -74q-268 0 -426.5 87.5t-233.5 286.5t-75 540q0 174 19.5 308t62 236.5t105 172.5t152.5 114.5t200.5 64t252.5 19.5q387 0 656 -138q7 -164 7 -295zM1457 1256q0 148 -5 296q-99 44 -226.5 67t-245.5 23q-170 0 -284.5 -41 t-186 -133.5t-102.5 -232t-31 -345.5q0 -145 11 -249.5t38.5 -191.5t72 -143t114.5 -94.5t163.5 -55t220.5 -16.5q111 0 238.5 22t222.5 55v1039z" />
<glyph unicode="r" horiz-adv-x="1165" d="M452 0h-185v1372q0 163 7 295q269 138 656 138q97 0 166 -8l-17 -167q-68 6 -149 6q-118 0 -245.5 -22.5t-226.5 -66.5q-6 -178 -6 -296v-1251z" />
<glyph unicode="s" horiz-adv-x="1552" d="M879 1640q-48 0 -78.5 -0.5t-78 -3.5t-79.5 -8t-72.5 -14.5t-68 -23.5t-56 -35t-45 -47.5t-27.5 -63.5t-11 -81q0 -69 20 -121t41.5 -82t86.5 -61t101 -43t140 -42q52 -16 80 -24q102 -31 174.5 -58t140 -61t111 -72t76.5 -86.5t48 -109t15 -136.5q0 -113 -33.5 -198.5 t-92 -140.5t-145.5 -89.5t-184.5 -48.5t-219.5 -14q-285 0 -547 54l19 153q242 -39 452 -39q52 0 82 0.5t83 3.5t85.5 8t78.5 16t75 26t61 38.5t50.5 53.5t30.5 71.5t12 91.5q0 35 -4 65t-14.5 56t-21.5 47t-33 40.5t-40.5 34t-52.5 31t-59.5 27.5t-72 26.5t-80.5 26 t-92 27.5q-196 58 -257 83q-181 73 -250 196q-52 94 -52 226q0 107 29.5 188t81 133.5t130 85t168.5 46t203 13.5q281 0 558 -55l-19 -151q-244 41 -447 41z" />
<glyph unicode="t" horiz-adv-x="1140" d="M426 2254l186 30v-503h408v-155h-408v-1158q0 -72 7.5 -124.5t25.5 -89.5t42 -60t64 -36t83.5 -17.5t107.5 -4.5q36 0 81 5l16 -149q-89 -16 -161 -16q-238 0 -345 108t-107 349v1193h-335v155h335v473z" />
<glyph unicode="u" horiz-adv-x="2004" d="M261 618v1163h186v-1118q0 -72 3.5 -125.5t14 -106.5t28.5 -90.5t46.5 -72t69 -57t95.5 -39t126.5 -24t161.5 -7.5q121 0 285.5 29t256.5 68q6 180 6 296v1247h185v-1364q0 -163 -7 -295q-161 -66 -368.5 -106t-429.5 -40q-98 0 -180 10.5t-144.5 29t-112.5 48 t-84.5 62.5t-59.5 78t-40 88.5t-23.5 101t-11.5 108.5t-3 116z" />
<glyph unicode="v" horiz-adv-x="1855" d="M1736 1781l-667 -1661q-30 -75 -62.5 -109.5t-80.5 -34.5q-52 0 -86.5 35t-63.5 109l-657 1661h201l607 -1555l617 1555h192z" />
<glyph unicode="w" horiz-adv-x="2872" d="M349 1781l424 -1553l538 1270q33 77 61 109.5t73 32.5q48 0 79.5 -34t61.5 -108l511 -1269l435 1552h185l-476 -1660q-41 -145 -142 -145q-49 0 -82 35t-63 110l-510 1258l-537 -1258q-33 -78 -63 -111.5t-78 -33.5q-107 0 -147 145l-464 1660h194z" />
<glyph unicode="x" horiz-adv-x="1754" d="M879 1083l467 698h209l-573 -847l633 -934h-223l-522 777l-519 -777h-211l627 928l-576 853h220z" />
<glyph unicode="y" horiz-adv-x="1690" d="M909 382l475 1399h189l-829 -2437h-190l269 783l-721 1654h202z" />
<glyph unicode="z" horiz-adv-x="1716" d="M1528 1633l-1135 -1470h1112v-163h-1297q-44 0 -67 18.5t-23 48.5q0 37 33 81l1136 1473h-1089v160h1273q44 0 67 -18.5t23 -48.5q0 -38 -33 -81z" />
<glyph unicode="{" horiz-adv-x="980" d="M585 310v-180q0 -448 290 -506l-17 -148q-107 22 -185 61.5t-140.5 108t-94.5 177t-32 256.5q0 385 -55.5 561.5t-210.5 218.5v149q155 41 210.5 217.5t55.5 562.5q0 148 32 256t94.5 176.5t140.5 108t185 61.5l17 -148q-78 -16 -135 -61t-90.5 -113t-49 -150.5 t-15.5 -181.5v-180q0 -77 -4 -140.5t-19 -144.5t-41 -141.5t-74 -115t-113 -81.5q251 -114 251 -623z" />
<glyph unicode="|" horiz-adv-x="777" d="M300 -656v3125h178v-3125h-178z" />
<glyph unicode="}" horiz-adv-x="979" d="M839 1008v-149q-155 -42 -210.5 -218.5t-55.5 -561.5q0 -148 -32 -256.5t-94.5 -177t-140.5 -108t-185 -61.5l-17 148q290 58 290 506v180q0 509 251 623q-65 27 -113 81.5t-74 115t-41 141.5t-19 144.5t-4 140.5v180q0 99 -15.5 181.5t-49 150.5t-90.5 113t-135 61 l17 148q107 -22 185 -61.5t140.5 -108t94.5 -176.5t32 -256q0 -386 55.5 -562.5t210.5 -217.5z" />
<glyph unicode="~" horiz-adv-x="2021" d="M1631 1285h181q-20 -223 -131.5 -343.5t-270.5 -120.5q-99 0 -192.5 31.5t-164.5 76t-137.5 89t-137.5 76t-138 31.5q-104 0 -163 -70t-86 -220h-181q20 223 131.5 343.5t270.5 120.5q99 0 192 -31.5t164.5 -76.5t137.5 -89.5t137.5 -76t138.5 -31.5q103 0 162 70.5 t87 220.5z" />
<glyph unicode="&#xa1;" horiz-adv-x="705" d="M352 1473q-64 0 -88 35t-24 122t23 120t89 33t89 -33t23 -120t-24 -122t-88 -35zM237 -571l33 1651h165l33 -1651h-231z" />
<glyph unicode="&#xa2;" horiz-adv-x="1433" d="M916 243v-308h-152v314q-101 11 -183 42t-141.5 76.5t-104.5 110t-73.5 136t-45.5 161t-24 179t-7 195.5q0 162 14.5 281.5t52.5 225.5t102.5 175.5t166.5 115.5t243 62v316h152v-307h17q184 0 366 -45l-15 -143q-149 26 -284 26q-86 0 -157 -6t-129 -20.5t-103.5 -33 t-81 -48.5t-61 -61t-43 -77t-28.5 -91t-17.5 -108t-8.5 -122.5t-2 -139.5q0 -76 2 -132.5t7.5 -120t16.5 -110t28 -96.5t42.5 -85t59.5 -69t80 -56.5t103 -40t128.5 -25.5t157.5 -8q112 0 290 37l18 -153q-226 -45 -386 -47z" />
<glyph unicode="&#xa3;" horiz-adv-x="1890" d="M525 1063h-354v157h329q-39 263 -39 472q0 138 40.5 243t109 170.5t169.5 106.5t210 56.5t243 15.5q171 0 294 -50t227 -148l-100 -118q-181 145 -409 145q-173 0 -287.5 -29t-181 -93.5t-93.5 -155t-27 -225.5q0 -122 42 -390h539v-157h-517q19 -152 19 -282 q0 -187 -35.5 -309t-121.5 -300h651q248 0 501 34l18 -157q-314 -49 -714 -49h-593q-50 0 -74.5 22t-24.5 58q0 22 21 67.5t51.5 107t61 134.5t51.5 170t21 193q0 127 -27 311z" />
<glyph unicode="&#xa4;" horiz-adv-x="1971" d="M1522 702l232 -224l-124 -123l-228 231q-187 -141 -416 -141q-237 0 -419 142l-229 -232l-121 124l231 226q-142 181 -142 410q0 233 143 415l-232 230l121 122l232 -233q185 142 416 142q232 0 415 -138l229 228l124 -121l-232 -225q149 -184 149 -420q0 -230 -149 -413 zM983 621q99 0 191.5 38t162 103.5t111.5 158.5t42 196q0 134 -66.5 249t-183.5 182.5t-257 67.5q-134 0 -248.5 -65.5t-183 -181t-68.5 -252.5q0 -132 65 -245.5t180.5 -182t254.5 -68.5z" />
<glyph unicode="&#xa5;" horiz-adv-x="1736" d="M130 2260h205l532 -1162l540 1162h198l-580 -1238h339v-147h-405v-231h405v-147h-405v-497h-193v497h-395v147h395v231h-395v147h330z" />
<glyph unicode="&#xa6;" horiz-adv-x="715" d="M268 -471v1076h179v-1076h-179zM268 1209v1075h179v-1075h-179z" />
<glyph unicode="&#xa7;" horiz-adv-x="1795" d="M1034 1441q69 -27 118.5 -48.5t115.5 -54.5t112.5 -64.5t96 -75.5t80 -90.5t50 -106t19.5 -124.5q0 -254 -382 -466q122 -91 186 -194t64 -203q0 -113 -43 -201.5t-112.5 -143t-165 -90t-191.5 -49.5t-201 -14q-287 0 -559 57l22 163q291 -49 477 -49q53 0 90 1 t101.5 7.5t110.5 18t100 35t88 56.5t57 84t23 116t-27.5 119.5t-70.5 93.5t-112.5 77.5t-134.5 65.5t-156 63l-9 3q-60 24 -98 39.5t-95.5 42t-95.5 48t-86.5 54t-80 63t-65 72t-52.5 85t-31.5 97t-12.5 112.5q0 280 361 456q-115 86 -162 172t-47 188q0 225 165 361.5 t454 136.5q308 0 558 -55l-20 -158q-266 49 -478 49q-223 0 -353 -84t-130 -233q0 -65 33.5 -123t69.5 -94.5t124.5 -83.5t131.5 -65t159 -64q3 -1 4 -2zM683 666q69 -30 195 -74.5t215 -84.5q75 37 129 69.5t107.5 76t81.5 94t28 105.5q0 121 -84 210t-301 182 q-50 22 -177 68.5t-209 87.5q-70 -32 -124 -65.5t-101 -75.5t-72 -92.5t-25 -106.5q0 -62 14 -110t49.5 -97.5t103.5 -95.5t170 -91z" />
<glyph unicode="&#xa8;" horiz-adv-x="1184" d="M350 1987q-56 0 -94.5 38.5t-38.5 94.5t38.5 94.5t94.5 38.5q55 0 93.5 -38.5t38.5 -94.5t-38.5 -94.5t-93.5 -38.5zM835 1987q-55 0 -94 38.5t-39 94.5t39 94.5t94 38.5t94 -38.5t39 -94.5t-39 -94.5t-94 -38.5z" />
<glyph unicode="&#xa9;" horiz-adv-x="2774" d="M1818 873h162q-20 -201 -183 -324t-390 -123q-152 0 -271 58t-193.5 160t-113 235t-38.5 289q0 111 24.5 217t75.5 200t123 165t173.5 112.5t219.5 41.5q98 0 191.5 -25t174.5 -73t137 -127.5t70 -179.5h-162q-21 124 -135 192t-276 68q-195 0 -321 -157t-126 -434 q0 -280 120.5 -435.5t326.5 -155.5q153 0 270.5 81t140.5 215zM1387 2354q245 0 465.5 -92.5t379 -250t251.5 -377.5t93 -466q0 -245 -93 -466t-251.5 -380t-379 -252.5t-465.5 -93.5t-465.5 93.5t-379 252.5t-251.5 380t-93 466q0 246 93 466t251.5 377.5t379 250 t465.5 92.5zM1387 2208q-171 0 -329 -51.5t-285 -146.5t-221.5 -222.5t-146 -287t-51.5 -332.5q0 -218 80.5 -412.5t218.5 -333t329.5 -219.5t404.5 -81t404.5 81t329.5 219.5t218.5 333t80.5 412.5q0 173 -51.5 332.5t-146 287t-221.5 222.5t-285 146.5t-329 51.5z" />
<glyph unicode="&#xaa;" horiz-adv-x="1403" d="M274 2135l-13 118q259 42 440 42q81 0 144 -8.5t122 -32.5t97.5 -63t61.5 -103t23 -150v-566q0 -73 -6 -197q-202 -94 -486 -94q-247 0 -360 78.5t-113 272.5q0 323 296 367q151 23 523 35v65q0 78 -13.5 127t-51 83.5t-102 48.5t-167.5 14q-147 0 -395 -37zM331 1436 q0 -137 75 -185.5t261 -48.5q181 0 334 56q2 116 2 189v271q-356 -10 -479 -33q-100 -20 -146.5 -75t-46.5 -174z" />
<glyph unicode="&#xab;" horiz-adv-x="1525" d="M371 862l414 -643h-196l-456 643l456 644h196zM925 862l415 -643h-197l-455 643l455 644h196z" />
<glyph unicode="&#xac;" horiz-adv-x="2138" d="M1847 1277v-922h-197v747h-1409v175h1606z" />
<glyph unicode="&#xad;" horiz-adv-x="1348" d="M248 801v169h852v-169h-852z" />
<glyph unicode="&#xae;" horiz-adv-x="1812" d="M745 1581v-357h-118v846h296q170 0 248 -61.5t78 -180.5q0 -91 -48 -151t-136 -79l184 -374h-133l-173 357h-198zM184 1633q0 199 96 364.5t262 261t364 95.5q199 0 365 -95.5t261.5 -261t95.5 -364.5t-95.5 -365t-261.5 -262t-365 -96q-198 0 -364 96t-262 262t-96 365z M1513 1633q0 169 -80 309t-219.5 220.5t-307.5 80.5q-167 0 -306 -80.5t-219 -220.5t-80 -309q0 -171 80 -312t219 -221.5t306 -80.5q126 0 238.5 47.5t193.5 129t128 195.5t47 242zM910 1967h-165v-283h170q109 0 163 34.5t54 109.5q0 76 -54.5 107.5t-167.5 31.5z" />
<glyph unicode="&#xaf;" horiz-adv-x="1366" d="M241 2041v145h883v-145h-883z" />
<glyph unicode="&#xb0;" horiz-adv-x="1251" d="M626 1457q-186 0 -318 131.5t-132 316.5q0 186 132 317.5t318 131.5q185 0 317 -131.5t132 -317.5q0 -185 -132 -316.5t-317 -131.5zM626 1607q124 0 211 87t87 211t-87 211t-211 87q-125 0 -212 -87t-87 -211t87 -211t212 -87z" />
<glyph unicode="&#xb1;" horiz-adv-x="2017" d="M912 1270v629h193v-629h706v-169h-706v-641h-193v641h-706v169h706zM206 58v175h1605v-175h-1605z" />
<glyph unicode="&#xb2;" horiz-adv-x="1062" d="M117 2566l-14 116q223 39 400 39q457 0 457 -316q0 -121 -49 -215t-132 -156.5t-208 -114.5q-84 -35 -141 -76t-92.5 -95t-54 -113t-31.5 -143h708v-126h-877q23 129 41.5 207t48 154.5t70 124.5t100.5 90.5t147 79.5q152 65 240 148.5t88 202.5q0 124 -83.5 173.5 t-282.5 49.5q-132 0 -335 -30z" />
<glyph unicode="&#xb3;" horiz-adv-x="1068" d="M446 2723q80 0 144 -7t127.5 -28t106 -55t68.5 -92t26 -136q0 -241 -192 -330q89 -34 152 -115.5t63 -199.5q0 -92 -23 -162t-64.5 -116t-105.5 -75t-139.5 -41t-172.5 -12q-192 0 -372 37l17 118q226 -30 316 -30q209 0 303.5 59.5t94.5 211.5q0 107 -65 172t-170 77 q-63 7 -167 7q-72 0 -110 -1v115q142 1 276 21q100 16 158 79.5t58 152.5q0 51 -11 89t-35 62.5t-52 40t-73 22.5t-85.5 9.5t-100.5 2.5q-137 0 -326 -29l-15 116q196 37 369 37z" />
<glyph unicode="&#xb4;" horiz-adv-x="729" d="M125 1915l287 458h243l-372 -458h-158z" />
<glyph unicode="&#xb5;" horiz-adv-x="1937" d="M328 -656v2437h179v-1165q0 -96 24 -178t71 -145.5t122 -99.5t170 -36q151 0 264 99t170 267t57 382v876h182v-1198v-76.5t1.5 -70t4 -67.5t8 -59t13 -55t19 -45t26 -40.5t34.5 -29.5t45 -22v-142q-67 0 -119 23.5t-85 60t-56 92t-34.5 109t-19.5 121.5l-2 1 q-63 -189 -202 -298t-304 -109q-120 0 -211 46t-179 148v-826h-178z" />
<glyph unicode="&#xb6;" horiz-adv-x="2032" d="M1057 2181v-2694h-165v1531q-173 1 -317.5 52t-240.5 138.5t-149 205.5t-53 251q0 329 206.5 497t574.5 168h817v-2843h-164v2694h-509z" />
<glyph unicode="&#xb7;" horiz-adv-x="709" d="M354 800q-66 0 -89 33.5t-23 119.5q0 87 24 122.5t88 35.5t88 -35.5t24 -122.5q0 -86 -23 -119.5t-89 -33.5z" />
<glyph unicode="&#xb8;" horiz-adv-x="727" d="M175 -243l144 243h140l-107 -167q110 -5 183 -64.5t73 -160.5q0 -67 -27.5 -118t-75 -80t-105.5 -43t-125 -14q-127 0 -219 50l40 106q92 -41 184 -41q67 0 117.5 29.5t50.5 96.5q0 42 -29 75t-72.5 51.5t-88 27.5t-83.5 9z" />
<glyph unicode="&#xb9;" horiz-adv-x="706" d="M384 1373v1184q-165 -47 -336 -74l-7 121q206 33 376 109h107v-1340h-140z" />
<glyph unicode="&#xba;" horiz-adv-x="1474" d="M737 1081q-287 0 -404 137.5t-117 469.5t117 469.5t404 137.5q286 0 404 -138.5t118 -468.5q0 -328 -118 -467.5t-404 -139.5zM737 1204q143 0 223 45t116 149t36 290q0 141 -18.5 231.5t-63 147.5t-114.5 80.5t-179 23.5q-107 0 -175.5 -21t-114.5 -76.5t-65 -148 t-19 -237.5q0 -192 37 -296.5t115.5 -146t221.5 -41.5z" />
<glyph unicode="&#xbb;" horiz-adv-x="1524" d="M836 862l-455 -643h-197l415 643l-414 644h196zM1391 862l-456 -643h-196l414 643l-414 644h196z" />
<glyph unicode="&#xbc;" horiz-adv-x="2384" d="M1889 0v324h-579q-120 0 -120 93q0 47 68 136l555 717q65 84 135 84q82 0 82 -97v-815h186v-118h-186v-324h-141zM511 2332h107v-1340h-139v1184q-172 -49 -337 -73l-7 120q204 34 376 109zM1893 2378l-1369 -2426h-170l1368 2426h171zM1339 442h550v715z" />
<glyph unicode="&#xbd;" horiz-adv-x="2623" d="M1591 1199l-14 116q223 39 399 39q219 0 338.5 -74t119.5 -241q0 -178 -99 -293t-291 -194q-84 -35 -141 -76t-92 -95t-53.5 -112.5t-31.5 -143.5h708v-125h-877q19 107 34 175.5t37.5 138.5t49 114.5t67.5 88.5t93.5 76t125.5 63t128 63.5t102.5 75t72.5 96t25 116.5 q0 124 -83.5 173t-282.5 49q-148 0 -335 -30zM139 2223q207 35 375 109h108v-1340h-140v1184q-170 -49 -336 -73zM1727 2378h171l-1368 -2426h-171z" />
<glyph unicode="&#xbe;" horiz-adv-x="2637" d="M545 2342q81 0 144.5 -7t127 -27.5t106 -55t68.5 -92.5t26 -136q0 -241 -192 -330q89 -34 152 -115t63 -200q0 -115 -34 -194.5t-102 -125t-157.5 -65.5t-211.5 -20q-188 0 -373 36l18 119q212 -30 316 -30q210 0 304 59t94 211q0 107 -65 172.5t-170 76.5q-77 8 -182 8 q-62 0 -95 -1v114q165 3 276 21q100 16 158 79.5t58 152.5q0 52 -11 90t-35 62.5t-52 39.5t-73 22.5t-85.5 10t-100.5 2.5q-130 0 -326 -30l-15 117q200 36 369 36zM2143 0v324h-580q-119 0 -119 93q0 50 67 136l555 717q65 84 136 84q36 0 58.5 -23.5t22.5 -73.5v-815h186 v-118h-186v-324h-140zM2145 2378l-1368 -2426h-171l1367 2426h172zM1591 442h552v715z" />
<glyph unicode="&#xbf;" horiz-adv-x="1651" d="M941 1080h167l3 -197q0 -9 0.5 -40t0.5 -44q0 -78 -26.5 -131.5t-70.5 -82.5t-102 -47.5t-121.5 -31t-127 -27t-121.5 -42.5t-102 -71t-70.5 -118t-26.5 -178q0 -102 12.5 -174t44.5 -129t80.5 -92t128 -57.5t180 -31.5t241.5 -9q222 0 489 47l35 -162q-290 -57 -589 -57 q-114 0 -201 6t-176 23.5t-153 47t-122 78.5t-93 116.5t-55.5 162t-20.5 214.5q0 79 10.5 146t24 117t43 93t50.5 71t64.5 54t67 39t76 28.5t73.5 20.5t76 17q65 14 96.5 22t79.5 28t71 43.5t41.5 64.5t19.5 96zM912 1630q0 87 23 120t89 33t89 -33t23 -120t-24 -122 t-88 -35t-88 35t-24 122z" />
<glyph unicode="&#xc0;" horiz-adv-x="2182" d="M302 0h-200l848 2221q26 68 60.5 100.5t84.5 32.5q97 0 147 -133l838 -2221h-209l-259 691h-1050zM1009 2591l-398 371h260l307 -371h-169zM623 854h928l-462 1237z" />
<glyph unicode="&#xc1;" horiz-adv-x="2181" d="M302 0h-200l847 2221q26 68 61 100.5t85 32.5q98 0 147 -133l837 -2221h-208l-259 691h-1050zM1016 2571l307 371h260l-398 -371h-169zM623 854h928l-462 1237z" />
<glyph unicode="&#xc2;" horiz-adv-x="2182" d="M302 0h-200l848 2221q26 68 60.5 100.5t84.5 32.5q97 0 147 -133l838 -2221h-209l-259 691h-1050zM988 2942h197l317 -371h-172l-241 275l-243 -275h-168zM623 854h928l-462 1237z" />
<glyph unicode="&#xc3;" horiz-adv-x="2182" d="M1345 2897h128q-14 -139 -76.5 -214t-143.5 -75q-50 0 -90 16t-65 39t-47 46.5t-46.5 39.5t-52.5 16q-45 0 -73 -36t-41 -114h-130q15 139 77.5 214t142.5 75q50 0 90 -16t65.5 -39t47.5 -46t47 -39t53 -16q88 0 114 149zM102 0l848 2221q26 68 60.5 100.5t85.5 32.5 q98 0 147 -133l837 -2221h-209l-258 691h-1050l-260 -691h-201zM1552 854l-462 1237l-466 -1237h928z" />
<glyph unicode="&#xc4;" horiz-adv-x="2181" d="M302 0h-200l847 2221q26 68 61 100.5t85 32.5q98 0 147 -133l837 -2221h-209l-258 691h-1050zM851 2618q-55 0 -94 39t-39 94t39 94t94 39t93.5 -38.5t38.5 -94.5t-38.5 -94.5t-93.5 -38.5zM1336 2618q-56 0 -94.5 39t-38.5 94t38.5 94t94.5 39t94.5 -39t38.5 -94 t-38.5 -94t-94.5 -39zM623 854h928l-462 1237z" />
<glyph unicode="&#xc5;" horiz-adv-x="2181" d="M302 0h-200l847 2221q26 68 61 100.5t85 32.5q98 0 147 -133l837 -2221h-208l-259 691h-1050zM1091 2539q-131 0 -224.5 93t-93.5 225q0 131 93.5 224t224.5 93t224.5 -93t93.5 -224q0 -132 -93.5 -225t-224.5 -93zM1091 2659q82 0 140 57.5t58 140.5q0 82 -58 139.5 t-140 57.5t-140 -57.5t-58 -139.5q0 -83 57.5 -140.5t140.5 -57.5zM623 854h928l-462 1237z" />
<glyph unicode="&#xc6;" horiz-adv-x="3042" d="M302 0h-200l804 2105q26 69 72 119.5t105 77.5t120.5 39.5t131.5 12.5q232 0 336 -174q39 42 95 72t112 46t135 25t140.5 11t152.5 2q233 0 556 -13v-157h-566q-123 0 -205 -7.5t-146.5 -29.5t-100 -53.5t-58.5 -89t-30.5 -126.5t-7.5 -174v-416h1065v-165h-1065v-464 q0 -105 7.5 -174t30.5 -126t58.5 -88.5t100 -53t146.5 -28.5t205 -7h566v-160q-239 -10 -556 -10q-100 0 -165 2.5t-152.5 13t-143.5 30t-117 56t-95.5 88.5t-57.5 130.5t-23 178.5v198h-990zM1013 1888l-390 -1034h929v1006q0 178 -57 250.5t-187 72.5q-66 0 -114 -20 t-81.5 -68t-49 -81t-42.5 -105q-5 -14 -8 -21z" />
<glyph unicode="&#xc7;" horiz-adv-x="1728" d="M1663 2308l-19 -162q-247 37 -386 37q-160 0 -282.5 -22t-211 -59.5t-149.5 -105.5t-98 -142.5t-57.5 -189.5t-27 -226.5t-6.5 -272.5q0 -159 7.5 -273t28.5 -227t59.5 -189t100 -143t149.5 -105t209 -59.5t278 -21.5q129 0 387 36l18 -158q-233 -44 -454 -48l-81 -128 q109 -5 182 -64.5t73 -160.5q0 -89 -48.5 -148t-120.5 -83t-163 -24q-128 0 -220 50l40 106q92 -41 184 -41q68 0 118 29.5t50 96.5q0 42 -29 75t-72.5 51.5t-88 27.5t-83.5 9l121 205q-127 5 -231 25.5t-187 59.5t-147 92t-111.5 128t-79.5 163t-51.5 201.5t-28 238.5 t-8.5 279q0 184 12.5 327t41 270t76.5 219t119 165t168.5 117.5t223.5 67.5t286 23q269 0 509 -46z" />
<glyph unicode="&#xc8;" horiz-adv-x="1769" d="M1590 2323v-157h-566q-123 0 -205 -7.5t-146.5 -29.5t-100.5 -53.5t-59 -89t-30.5 -126.5t-7.5 -174v-416h1066v-165h-1066v-464q0 -105 7.5 -174t30.5 -126t59 -88.5t100.5 -53t146.5 -28.5t205 -7h566v-160q-239 -10 -556 -10q-100 0 -165 2.5t-152.5 13t-143.5 30 t-117 56t-95.5 88.5t-57.5 130.5t-23 178.5v1341q0 100 22.5 178.5t57.5 131t96 89.5t117 57t143 30.5t153 13t165 2.5q233 0 556 -13zM1033 2553l-398 371h259l307 -371h-168z" />
<glyph unicode="&#xc9;" horiz-adv-x="1769" d="M1590 2323v-157h-566q-123 0 -205 -7.5t-146.5 -29.5t-100.5 -53.5t-59 -89t-30.5 -126.5t-7.5 -174v-416h1066v-165h-1066v-464q0 -105 7.5 -174t30.5 -126t59 -88.5t100.5 -53t146.5 -28.5t205 -7h566v-160q-239 -10 -556 -10q-100 0 -165 2.5t-152.5 13t-143.5 30 t-117 56t-95.5 88.5t-57.5 130.5t-23 178.5v1341q0 100 22.5 178.5t57.5 131t96 89.5t117 57t143 30.5t153 13t165 2.5q233 0 556 -13zM845 2553l307 371h260l-398 -371h-169z" />
<glyph unicode="&#xca;" horiz-adv-x="1769" d="M1590 2323v-157h-567q-123 0 -205 -7.5t-146.5 -29.5t-100 -53.5t-58.5 -89t-30.5 -126.5t-7.5 -174v-416h1066v-165h-1066v-464q0 -105 7.5 -174t30.5 -126t58.5 -88.5t100 -53t146.5 -28.5t205 -7h567v-160q-239 -10 -557 -10q-100 0 -165 2.5t-152 13t-143 30t-117 56 t-95.5 88.5t-57.5 130.5t-23 178.5v1341q0 100 22.5 178.5t57.5 131t95.5 89.5t117 57t143 30.5t152.5 13t165 2.5q232 0 557 -13zM884 2924h197l318 -371h-173l-241 275l-242 -275h-169z" />
<glyph unicode="&#xcb;" horiz-adv-x="1769" d="M1590 2323v-157h-567q-123 0 -205 -7.5t-146.5 -29.5t-100 -53.5t-58.5 -89t-30.5 -126.5t-7.5 -174v-416h1066v-165h-1066v-464q0 -105 7.5 -174t30.5 -126t58.5 -88.5t100 -53t146.5 -28.5t205 -7h567v-160q-239 -10 -557 -10q-100 0 -165 2.5t-152 13t-143 30t-117 56 t-95.5 88.5t-57.5 130.5t-23 178.5v1341q0 100 22.5 178.5t57.5 131t95.5 89.5t117 57t143 30.5t152.5 13t165 2.5q232 0 557 -13zM758 2602q-56 0 -95 39t-39 94t39 94t95 39q55 0 93.5 -38.5t38.5 -94.5t-38.5 -94.5t-93.5 -38.5zM1243 2602q-56 0 -95 39t-39 94t39 94 t95 39q55 0 93.5 -38.5t38.5 -94.5t-38.5 -94.5t-93.5 -38.5z" />
<glyph unicode="&#xcc;" horiz-adv-x="778" d="M305 2561l-398 371h259l307 -371h-168zM292 0v2330h195v-2330h-195z" />
<glyph unicode="&#xcd;" horiz-adv-x="779" d="M292 0v2330h196v-2330h-196zM306 2561l307 371h260l-398 -371h-169z" />
<glyph unicode="&#xce;" horiz-adv-x="779" d="M289 2916h196l318 -371h-173l-241 275l-242 -275h-169zM292 0v2330h196v-2330h-196z" />
<glyph unicode="&#xcf;" horiz-adv-x="778" d="M148 2595q-56 0 -94.5 38.5t-38.5 94.5t38.5 94.5t94.5 38.5q55 0 93.5 -38.5t38.5 -94.5t-38.5 -94.5t-93.5 -38.5zM633 2595q-55 0 -94 38.5t-39 94.5t39 94.5t94 38.5t94 -38.5t39 -94.5t-39 -94.5t-94 -38.5zM292 0v2330h195v-2330h-195z" />
<glyph unicode="&#xd0;" horiz-adv-x="2339" d="M391 1129h-208v151h208v1025q323 49 694 49q128 0 236 -11.5t197.5 -36.5t161.5 -59t129 -83.5t100.5 -106.5t74.5 -131.5t52 -154t33.5 -179t17.5 -201.5t5 -226t-5 -226t-17.5 -201.5t-33.5 -179t-52 -154t-74.5 -131.5t-100.5 -106.5t-129 -83.5t-161.5 -59 t-197.5 -36.5t-236 -11.5q-351 0 -694 52v1101zM586 1129v-949q252 -34 429 -34q484 0 684 189q139 130 176 385q19 142 19 445t-18 435q-35 257 -170 389q-195 190 -665 195h-26q-164 0 -429 -32v-872h386v-151h-386z" />
<glyph unicode="&#xd1;" horiz-adv-x="2340" d="M590 2224l1272 -1953v2059h184v-2217q0 -69 -33 -103t-87 -34q-50 0 -90.5 32t-83.5 98l-1273 1954v-2060h-184v2217q0 69 33.5 103t87.5 34q49 0 90 -32.5t84 -97.5zM1434 2895h129q-15 -139 -77.5 -214t-142.5 -75q-50 0 -90.5 16t-65.5 39t-47 46.5t-46.5 39.5 t-52.5 16q-45 0 -73 -36t-41 -114h-130q15 139 77.5 214t142.5 75q50 0 90 -16t65.5 -39t47.5 -46t47 -39t53 -16q88 0 114 149z" />
<glyph unicode="&#xd2;" horiz-adv-x="2266" d="M1133 -24q-175 0 -308 29t-233 92.5t-167 156t-108.5 229t-59 301t-17.5 381.5t17.5 381.5t59 301t108.5 229t167 156t233 92.5t308 29t308 -29t233 -92.5t167 -156t108.5 -229t59 -301t17.5 -381.5t-17.5 -381.5t-59 -301t-108.5 -229t-167 -156t-233 -92.5t-308 -29z M1133 147q109 0 198.5 16.5t157 42.5t120 74t88 95t60.5 122t38.5 139t21 162t9.5 175t2 192q0 116 -2 193t-9.5 175t-21 162t-38.5 138.5t-60.5 122t-87.5 95t-120 73.5t-157.5 42.5t-198.5 16.5q-110 0 -199.5 -16.5t-157.5 -42.5t-120 -73.5t-87.5 -94.5t-60.5 -122.5 t-38.5 -139t-20.5 -162t-9 -174.5t-2 -193q0 -152 3.5 -245.5t18 -214t42 -192.5t78 -150.5t123.5 -120t181 -68.5t249 -27zM1134 2560l-398 371h260l307 -371h-169z" />
<glyph unicode="&#xd3;" horiz-adv-x="2266" d="M1133 -24q-175 0 -308 29t-233 92.5t-167 156t-108.5 229t-59 301t-17.5 381.5t17.5 381.5t59 301t108.5 229t167 156t233 92.5t308 29t308 -29t233 -92.5t167 -156t108.5 -229t59 -301t17.5 -381.5t-17.5 -381.5t-59 -301t-108.5 -229t-167 -156t-233 -92.5t-308 -29z M1133 147q109 0 198.5 16.5t157 42.5t120 74t88 95t60.5 122t38.5 139t21 162t9.5 175t2 192q0 116 -2 193t-9.5 175t-21 162t-38.5 138.5t-60.5 122t-87.5 95t-120 73.5t-157.5 42.5t-198.5 16.5q-110 0 -199.5 -16.5t-157.5 -42.5t-120 -73.5t-87.5 -94.5t-60.5 -122.5 t-38.5 -139t-20.5 -162t-9 -174.5t-2 -193q0 -152 3.5 -245.5t18 -214t42 -192.5t78 -150.5t123.5 -120t181 -68.5t249 -27zM982 2560l307 371h260l-398 -371h-169z" />
<glyph unicode="&#xd4;" horiz-adv-x="2267" d="M1134 -24q-150 0 -269 22t-213 65.5t-162.5 115t-117 164t-77.5 218.5t-42 272t-13 332t13 332t42 272t77.5 218.5t117 164t162.5 115t213 65.5t269 22q175 0 308 -29t233 -92.5t167 -156t108.5 -229t59 -301t17.5 -381.5t-17.5 -381.5t-59 -301t-108.5 -229t-167 -156 t-233 -92.5t-308 -29zM1134 147q109 0 198.5 16.5t157 42.5t119.5 74t87.5 95t60.5 122t38.5 139t21 162t9.5 175t2 192q0 116 -2 193t-9.5 175t-21 162t-38.5 138.5t-60.5 122t-87.5 95t-119.5 73.5t-157 42.5t-198.5 16.5q-110 0 -199.5 -16.5t-157.5 -42.5t-120 -73.5 t-87.5 -94.5t-60.5 -122.5t-38.5 -139t-20.5 -162t-9 -174.5t-2 -193q0 -152 3.5 -245.5t18 -214t42 -192.5t78 -150.5t123.5 -120t181 -68.5t249 -27zM1033 2931h197l317 -371h-172l-242 275l-242 -275h-169z" />
<glyph unicode="&#xd5;" horiz-adv-x="2267" d="M1386 2870h128q-14 -139 -76.5 -214t-143.5 -75q-50 0 -90 16t-65 39.5t-47 46.5t-46.5 39t-52.5 16q-45 0 -73 -36t-41 -114h-130q15 139 77.5 214t142.5 75q50 0 90 -16t65.5 -39t47.5 -46t47 -39t53 -16q88 0 114 149zM1134 2354q175 0 308 -29t233 -92.5t167 -156 t108.5 -229t59 -301t17.5 -381.5t-17.5 -381.5t-59 -301t-108.5 -229t-167 -156t-233 -92.5t-308 -29q-150 0 -269 22t-213 65.5t-162.5 115t-117 164t-77.5 218.5t-42 272t-13 332t13 332t42 272t77.5 218.5t117 164t162.5 115t213 65.5t269 22zM1134 2183 q-110 0 -199.5 -16.5t-157.5 -42.5t-120 -73.5t-87.5 -94.5t-60.5 -122.5t-38.5 -139t-20.5 -162t-9 -174.5t-2 -193q0 -152 3.5 -245.5t18 -214t42 -192.5t78 -150.5t123.5 -120t181 -68.5t249 -27q109 0 198.5 16.5t157 42.5t119.5 74t87.5 95t60.5 122t38.5 139t21 162 t9.5 175t2 192q0 116 -2 193t-9.5 175t-21 162t-38.5 138.5t-60.5 122t-87.5 95t-119.5 73.5t-157 42.5t-198.5 16.5z" />
<glyph unicode="&#xd6;" horiz-adv-x="2267" d="M892 2588q-56 0 -94.5 39t-38.5 94t38.5 94t94.5 39q55 0 93.5 -38.5t38.5 -94.5t-38.5 -94.5t-93.5 -38.5zM1134 -24q-150 0 -269 22t-213 65.5t-162.5 115t-117 164t-77.5 218.5t-42 272t-13 332t13 332t42 272t77.5 218.5t117 164t162.5 115t213 65.5t269 22 q175 0 308 -29t233 -92.5t167 -156t108.5 -229t59 -301t17.5 -381.5t-17.5 -381.5t-59 -301t-108.5 -229t-167 -156t-233 -92.5t-308 -29zM1134 147q109 0 198.5 16.5t157 42.5t119.5 74t87.5 95t60.5 122t38.5 139t21 162t9.5 175t2 192q0 116 -2 193t-9.5 175t-21 162 t-38.5 138.5t-60.5 122t-87.5 95t-119.5 73.5t-157 42.5t-198.5 16.5q-110 0 -199.5 -16.5t-157.5 -42.5t-120 -73.5t-87.5 -94.5t-60.5 -122.5t-38.5 -139t-20.5 -162t-9 -174.5t-2 -193q0 -152 3.5 -245.5t18 -214t42 -192.5t78 -150.5t123.5 -120t181 -68.5t249 -27z M1377 2588q-55 0 -94 39t-39 94t39 94t94 39t94 -39t39 -94t-39 -94t-94 -39z" />
<glyph unicode="&#xd7;" horiz-adv-x="1828" d="M1041 981l590 -588l-129 -131l-590 589l-588 -589l-127 128l588 588l-588 588l130 129l588 -588l587 587l125 -126z" />
<glyph unicode="&#xd8;" horiz-adv-x="2266" d="M578 105l-125 -205l-135 84l140 228q-117 138 -167.5 369t-50.5 584q0 217 17.5 381.5t59 301t108.5 229t167 156t233.5 92.5t308.5 29q357 0 553 -129l126 206l135 -85l-140 -229q117 -138 167.5 -369t50.5 -583q0 -217 -17.5 -381.5t-59 -301t-108.5 -229t-166.5 -156 t-232.5 -92.5t-308 -29q-360 0 -556 129zM1134 2183q-99 0 -182 -11.5t-147.5 -38t-115.5 -57t-88.5 -81t-65 -97t-45 -118.5t-28 -131.5t-15.5 -149.5t-6.5 -159.5t-1.5 -174.5q0 -298 22.5 -478t101.5 -303l1027 1682q-159 117 -456 117zM1703 1945l-1028 -1681 q161 -117 459 -117q109 0 198.5 16.5t157 42.5t119.5 74t87.5 95t60.5 122t38.5 139t21 162t9.5 175t2 192q0 294 -23 475t-102 305z" />
<glyph unicode="&#xd9;" horiz-adv-x="2228" d="M1938 2330v-1586q0 -179 -39 -313t-108 -220t-175 -139.5t-228.5 -74.5t-280.5 -21q-157 0 -279.5 21t-228.5 74.5t-175 139.5t-108 220t-39 313v1586h194v-1612q0 -291 150.5 -430.5t485.5 -139.5q338 0 487.5 139t149.5 431v1612h194zM1100 2544l-398 371h260l307 -371 h-169z" />
<glyph unicode="&#xda;" horiz-adv-x="2228" d="M1938 2330v-1586q0 -179 -39 -313t-108 -220t-175 -139.5t-228.5 -74.5t-280.5 -21q-157 0 -279.5 21t-228.5 74.5t-175 139.5t-108 220t-39 313v1586h194v-1612q0 -291 150.5 -430.5t485.5 -139.5q338 0 487 139t149 431v1612h195zM964 2544l307 371h260l-398 -371h-169 z" />
<glyph unicode="&#xdb;" horiz-adv-x="2228" d="M1938 2330v-1586q0 -179 -39 -313t-108 -220t-175 -139.5t-228.5 -74.5t-280.5 -21q-157 0 -279.5 21t-228.5 74.5t-175 139.5t-108 220t-39 313v1586h194v-1612q0 -291 150.5 -430.5t485.5 -139.5q338 0 487.5 139t149.5 431v1612h194zM1024 2915h197l317 -371h-172 l-241 275l-243 -275h-168z" />
<glyph unicode="&#xdc;" horiz-adv-x="2228" d="M1938 2330v-1586q0 -179 -39 -313t-108 -220t-175 -139.5t-228.5 -74.5t-280.5 -21q-157 0 -279.5 21t-228.5 74.5t-175 139.5t-108 220t-39 313v1586h194v-1612q0 -291 150.5 -430.5t485.5 -139.5q338 0 487.5 139t149.5 431v1612h194zM866 2596q-56 0 -95 39t-39 94 t39 94t95 39q55 0 93.5 -38.5t38.5 -94.5t-38.5 -94.5t-93.5 -38.5zM1351 2596q-56 0 -95 39t-39 94t39 94t95 39q55 0 93.5 -38.5t38.5 -94.5t-38.5 -94.5t-93.5 -38.5z" />
<glyph unicode="&#xdd;" horiz-adv-x="1849" d="M1019 908v-908h-198v908l-741 1422h216l628 -1215l638 1215h207zM802 2534l307 371h260l-398 -371h-169z" />
<glyph unicode="&#xde;" horiz-adv-x="2005" d="M270 0v2330h195v-456q252 28 503 28q113 0 204.5 -7t187 -25.5t168 -50t138 -83t108 -120.5t67 -166.5t24.5 -218.5q0 -119 -22 -216t-61 -168t-99.5 -124t-131 -87t-162 -55t-185.5 -29t-209 -8q-173 0 -530 18v-562h-195zM465 1700v-965q237 -24 503 -24q140 0 245 14 t194 49t144.5 93.5t86.5 149t31 214.5q0 182 -68 291t-218.5 161t-402.5 52q-239 0 -515 -35z" />
<glyph unicode="&#xdf;" horiz-adv-x="2050" d="M451 1603v-1603h-187v1603q0 478 173.5 684t572.5 206q184 0 323 -39.5t222 -111t124 -163.5t41 -204q0 -96 -31.5 -169.5t-81.5 -119.5t-110.5 -83.5t-121 -69.5t-110.5 -67.5t-81.5 -89t-31.5 -122.5q0 -60 25 -106.5t67 -78.5t97 -59t115.5 -52t121 -53t115.5 -67.5 t97 -90t67 -125.5t25 -169q0 -104 -27 -186t-73.5 -136t-114 -89.5t-144 -50.5t-167.5 -15q-217 0 -454 62l16 155q223 -51 346 -51q35 0 55.5 0.5t59.5 3t64.5 7.5t61.5 15.5t60 25t50.5 37t42 51.5t25.5 69t10 88q0 73 -25 130.5t-67 96t-97 70t-115.5 57.5t-120.5 53 t-115 63t-97 80.5t-67 112t-25 152.5q0 95 31.5 166t81.5 114t110.5 77.5t121 67t110.5 71t81.5 101.5t31.5 148q0 145 -129.5 237t-392.5 92q-155 0 -258 -35.5t-172 -120t-99 -222.5t-30 -347z" />
<glyph unicode="&#xe0;" horiz-adv-x="1857" d="M287 1587l-17 157q191 30 337 45.5t315 15.5q99 0 179.5 -9t158.5 -31t135 -61.5t101.5 -97t67 -142t22.5 -191.5v-864q0 -131 -7 -295q-297 -138 -724 -138q-183 0 -311 26.5t-218 87t-132 161.5t-42 248q0 484 435 549q234 35 814 55v110q0 81 -9 139.5t-32 108.5 t-60.5 82t-97 54.5t-140 32.5t-189.5 10q-219 0 -586 -53zM339 505q0 -89 19.5 -151.5t57.5 -105t103.5 -66.5t148.5 -34t201 -10q288 0 527 89q5 150 5 296v425q-538 -10 -754 -51q-109 -21 -174 -62t-99.5 -121t-34.5 -209zM725 2501l286 -458h-157l-372 458h243z" />
<glyph unicode="&#xe1;" horiz-adv-x="1857" d="M287 1587l-17 157q192 30 337.5 45.5t314.5 15.5q99 0 179.5 -9t158.5 -31t135 -61.5t101.5 -97t67 -142t22.5 -191.5v-864q0 -131 -7 -295q-297 -138 -724 -138q-183 0 -311 26.5t-218 87t-132.5 161.5t-42.5 248q0 484 436 549q234 35 814 55v110q0 81 -9 139.5 t-32 108.5t-60.5 82t-97 54.5t-140 32.5t-189.5 10q-219 0 -586 -53zM339 505q0 -89 19.5 -151.5t57.5 -105t103.5 -66.5t148.5 -34t201 -10q288 0 527 89q5 150 5 296v425q-538 -10 -754 -51q-164 -31 -236 -117t-72 -275zM1333 2498l-372 -458h-157l287 458h242z" />
<glyph unicode="&#xe2;" horiz-adv-x="1857" d="M287 1587l-17 157q191 30 337 45.5t315 15.5q99 0 179.5 -9t158.5 -31t135 -61.5t101.5 -97t67 -142t22.5 -191.5v-864q0 -131 -7 -295q-297 -138 -724 -138q-183 0 -311 26.5t-218 87t-132 161.5t-42 248q0 484 435 549q234 35 814 55v110q0 81 -9 139.5t-32 108.5 t-60.5 82t-97 54.5t-140 32.5t-189.5 10q-219 0 -586 -53zM339 505q0 -89 19.5 -151.5t57.5 -105t103.5 -66.5t148.5 -34t201 -10q288 0 527 89q5 150 5 296v425q-538 -10 -754 -51q-109 -21 -174 -62t-99.5 -121t-34.5 -209zM1300 2030h-161l-226 340l-227 -340h-157 l290 458h184z" />
<glyph unicode="&#xe3;" horiz-adv-x="1857" d="M287 1587l-17 157q191 30 337 45.5t315 15.5q99 0 179.5 -9t158.5 -31t135 -61.5t101.5 -97t67 -142t22.5 -191.5v-864q0 -131 -7 -295q-297 -138 -724 -138q-183 0 -311 26.5t-218 87t-132 161.5t-42 248q0 484 435 549q234 35 814 55v110q0 81 -9 139.5t-32 108.5 t-60.5 82t-97 54.5t-140 32.5t-189.5 10q-219 0 -586 -53zM1305 2415q-14 -145 -77 -223.5t-143 -78.5q-50 0 -90 17t-65 40.5t-47 47.5t-47 41t-53 17q-87 0 -114 -155h-129q15 145 77.5 223t142.5 78q50 0 90 -17t65.5 -41t47.5 -47.5t46.5 -40.5t52.5 -17q88 0 114 156 h129zM1401 523v425q-538 -10 -754 -51q-109 -21 -174 -62t-99.5 -121t-34.5 -209q0 -89 19.5 -151.5t57.5 -105t103.5 -66.5t148.5 -34t201 -10q288 0 527 89q5 150 5 296z" />
<glyph unicode="&#xe4;" horiz-adv-x="1857" d="M287 1587l-18 157q191 30 337 45.5t315 15.5q120 0 213.5 -13t181 -48t144.5 -93.5t91 -154t34 -223.5v-864q0 -163 -7 -295q-297 -138 -723 -138q-183 0 -311 26.5t-218 87t-132.5 161.5t-42.5 248q0 484 435 549q234 35 815 55v110q0 122 -21.5 198.5t-80.5 130.5 t-161.5 76t-265.5 22q-218 0 -585 -53zM338 505q0 -89 19.5 -151.5t57.5 -105t103.5 -66.5t148.5 -34t201 -10q288 0 527 89q6 135 6 296v425q-539 -10 -754 -51q-164 -31 -236.5 -117t-72.5 -275zM685 2387q55 0 94 -38.5t39 -94.5t-39 -94.5t-94 -38.5t-94 38.5t-39 94.5 t39 94.5t94 38.5zM1170 2387q56 0 94.5 -38.5t38.5 -94.5t-38.5 -94.5t-94.5 -38.5t-94.5 38.5t-38.5 94.5t38.5 94.5t94.5 38.5z" />
<glyph unicode="&#xe5;" horiz-adv-x="1857" d="M287 1587l-17 157q191 30 337 45.5t315 15.5q99 0 179.5 -9t158.5 -31t135 -61.5t101.5 -97t67 -142t22.5 -191.5v-864q0 -131 -7 -295q-297 -138 -724 -138q-183 0 -311 26.5t-218 87t-132 161.5t-42 248q0 484 435 549q234 35 814 55v110q0 81 -9 139.5t-32 108.5 t-60.5 82t-97 54.5t-140 32.5t-189.5 10q-219 0 -586 -53zM339 505q0 -89 19.5 -151.5t57.5 -105t103.5 -66.5t148.5 -34t201 -10q288 0 527 89q5 150 5 296v425q-538 -10 -754 -51q-109 -21 -174 -62t-99.5 -121t-34.5 -209zM915 2627q131 0 224.5 -93t93.5 -224 q0 -132 -93.5 -225t-224.5 -93t-224.5 93t-93.5 225q0 131 93.5 224t224.5 93zM915 2507q-82 0 -140 -57.5t-58 -139.5q0 -83 57.5 -140.5t140.5 -57.5q82 0 140 57.5t58 140.5q0 82 -58 139.5t-140 57.5z" />
<glyph unicode="&#xe6;" horiz-adv-x="3129" d="M1569 223l-3 -116q-294 -131 -710 -131q-183 0 -311 26.5t-218 87t-132.5 161.5t-42.5 248q0 484 436 549q234 35 814 55v110q0 81 -9 139.5t-32 108.5t-60.5 82t-97 54.5t-140 32.5t-189.5 10q-219 0 -586 -53l-17 157q191 30 337 45.5t315 15.5q114 0 203.5 -12.5 t172 -42.5t142 -86t92.5 -138q85 144 240.5 211.5t401.5 67.5q174 0 305.5 -36t217.5 -100.5t140 -163t76.5 -213.5t22.5 -261q0 -92 -5 -184q-151 -25 -417.5 -50t-456.5 -33l-466 -19q8 -87 18.5 -151.5t31 -131t50.5 -112.5t77 -88t110 -67t150 -39.5t197 -14.5 q259 0 625 52l19 -160q-192 -29 -351 -43t-387 -14q-390 0 -563 247zM1397 227q5 150 5 296v425q-538 -10 -754 -51q-109 -21 -174 -62t-99.5 -121t-34.5 -209q0 -89 19.5 -151.5t57.5 -105t103.5 -66.5t148.5 -34t201 -10q288 0 527 89zM2103 923q337 16 642 53q4 55 4 142 q0 122 -30 215.5t-96 164.5t-178.5 108t-269.5 37q-119 0 -209 -18.5t-155 -60t-108.5 -99.5t-69 -144.5t-36 -187t-10.5 -234.5z" />
<glyph unicode="&#xe7;" horiz-adv-x="1470" d="M1364 1759l-15 -148q-153 28 -293 28q-89 0 -162.5 -6.5t-133 -21t-106.5 -34t-83.5 -50t-62.5 -63t-44.5 -80t-30 -94t-18 -111t-8.5 -126t-2 -143.5q0 -87 2.5 -151t10.5 -135.5t22 -122.5t38 -104t58.5 -89.5t82.5 -69.5t110 -52t142.5 -30.5t178.5 -11.5 q111 0 299 38l18 -158q-225 -44 -393 -47l-81 -128q109 -5 182 -64.5t73 -160.5q0 -67 -27.5 -118t-75 -80t-105.5 -43t-125 -14q-127 0 -219 50l40 106q92 -41 184 -41q67 0 117.5 29.5t50.5 96.5q0 42 -29 75t-72.5 51.5t-88 27.5t-83.5 9l123 207q-151 13 -262.5 67.5 t-179.5 136t-109 200.5t-56 243.5t-15 282.5q0 131 9 233.5t32 198.5t61 165.5t97 128t139.5 94.5t188.5 55.5t244 19.5q193 0 377 -46z" />
<glyph unicode="&#xe8;" horiz-adv-x="1941" d="M945 -24q-169 0 -297 45.5t-209.5 124t-132.5 196.5t-71 250.5t-20 298.5q0 248 39 416.5t130 282t238 164.5t366 51q173 0 304.5 -36t217.5 -100.5t140 -163t76.5 -213.5t22.5 -261q0 -92 -5 -184q-151 -25 -417.5 -50t-456.5 -33l-466 -19q6 -67 13.5 -119t20.5 -107 t30.5 -96.5t43.5 -82.5t60 -70t79.5 -55t102 -41.5t128 -24t157.5 -8.5q259 0 625 52l18 -160q-192 -29 -351 -43t-386 -14zM400 899l516 24q336 16 641 53q4 55 4 142q0 122 -30 215.5t-95.5 164.5t-178 108t-269.5 37q-119 0 -209 -18.5t-155.5 -60t-108.5 -99.5 t-68.5 -144.5t-36 -186.5t-10.5 -235zM873 2501l286 -458h-157l-372 458h243z" />
<glyph unicode="&#xe9;" horiz-adv-x="1941" d="M945 -24q-169 0 -297 45.5t-209.5 124t-132.5 196.5t-71 250.5t-20 298.5q0 248 39 416.5t130 282t238 164.5t366 51q173 0 304.5 -36t217.5 -100.5t140 -163t76.5 -213.5t22.5 -261q0 -92 -5 -184q-151 -25 -417.5 -50t-456.5 -33l-466 -19q6 -67 13.5 -119t20.5 -107 t30.5 -96.5t43.5 -82.5t60 -70t79.5 -55t102 -41.5t128 -24t157.5 -8.5q259 0 625 52l18 -160q-192 -29 -351 -43t-386 -14zM400 899l516 24q336 16 641 53q4 55 4 142q0 122 -30 215.5t-95.5 164.5t-178 108t-269.5 37q-119 0 -209 -18.5t-155.5 -60t-108.5 -99.5 t-68.5 -144.5t-36 -186.5t-10.5 -235zM1438 2493l-372 -458h-157l287 458h242z" />
<glyph unicode="&#xea;" horiz-adv-x="1941" d="M945 -24q-169 0 -297 45.5t-209.5 124t-132.5 196.5t-71 250.5t-20 298.5q0 248 39 416.5t130 282t238 164.5t366 51q173 0 304.5 -36t217.5 -100.5t140 -163t76.5 -213.5t22.5 -261q0 -92 -5 -184q-151 -25 -417.5 -50t-456.5 -33l-466 -19q6 -67 13.5 -119t20.5 -107 t30.5 -96.5t43.5 -82.5t60 -70t79.5 -55t102 -41.5t128 -24t157.5 -8.5q259 0 625 52l18 -160q-192 -29 -351 -43t-386 -14zM400 899l516 24q336 16 641 53q4 55 4 142q0 122 -30 215.5t-95.5 164.5t-178 108t-269.5 37q-119 0 -209 -18.5t-155.5 -60t-108.5 -99.5 t-68.5 -144.5t-36 -186.5t-10.5 -235zM1400 2030h-162l-225 340l-227 -340h-157l290 458h184z" />
<glyph unicode="&#xeb;" horiz-adv-x="1942" d="M945 -24q-169 0 -297 45.5t-209.5 124t-132.5 196.5t-71 250.5t-20 298.5q0 248 39 416.5t130 282t238 164.5t366 51q174 0 305.5 -36t217.5 -100.5t140 -163t76.5 -213.5t22.5 -261q0 -92 -5 -184q-151 -25 -418 -50t-457 -33l-465 -19q8 -87 18.5 -151.5t31 -131 t50.5 -112.5t77 -88t110 -67t150 -39.5t197 -14.5q259 0 625 52l19 -160q-194 -29 -352.5 -43t-385.5 -14zM789 2387q55 0 93.5 -38.5t38.5 -94.5t-38.5 -94.5t-93.5 -38.5t-94 38.5t-39 94.5t39 94.5t94 38.5zM400 899l516 24q338 16 641 53q4 55 4 142q0 122 -30 215.5 t-95.5 164.5t-178 108t-269.5 37q-119 0 -209 -18.5t-155 -60t-108.5 -99.5t-69 -144.5t-36 -187t-10.5 -234.5zM1274 2387q56 0 94.5 -38.5t38.5 -94.5t-38.5 -94.5t-94.5 -38.5t-95 39t-39 94t39 94t95 39z" />
<glyph unicode="&#xec;" horiz-adv-x="697" d="M262 2066l-371 458h242l287 -458h-158zM255 0v1781h186v-1781h-186z" />
<glyph unicode="&#xed;" horiz-adv-x="698" d="M255 0v1781h187v-1781h-187zM277 2066l286 458h243l-372 -458h-157z" />
<glyph unicode="&#xee;" horiz-adv-x="697" d="M253 2534h184l297 -458h-161l-226 340l-226 -340h-158zM255 0v1781h186v-1781h-186z" />
<glyph unicode="&#xef;" horiz-adv-x="697" d="M106 2136q-56 0 -94.5 39t-38.5 94t38.5 94t94.5 39q55 0 93.5 -38.5t38.5 -94.5t-38.5 -94.5t-93.5 -38.5zM591 2136q-55 0 -94 39t-39 94t39 94t94 39t94 -39t39 -94t-39 -94t-94 -39zM255 0v1781h186v-1781h-186z" />
<glyph unicode="&#xf0;" horiz-adv-x="1965" d="M1350 2247l281 102l69 -116l-279 -102q155 -272 234.5 -598t79.5 -658q0 -245 -41 -412t-134 -277.5t-239.5 -160t-362.5 -49.5q-289 0 -457 89t-244 283.5t-76 526.5q0 246 40.5 412.5t134 274.5t239.5 155.5t363 47.5q309 0 473 -116q-69 219 -181 420l-288 -105 l-67 117l285 104q-84 132 -191 254l163 54q106 -109 198 -246zM1547 875q0 278 -55 433t-181 223.5t-353 68.5q-112 0 -194.5 -14t-150.5 -47t-112.5 -86.5t-75 -135.5t-43.5 -189.5t-13 -252.5q0 -177 20 -300.5t61.5 -209t113.5 -134t165.5 -69.5t228.5 -21 q113 0 197 15.5t151.5 51t112 90.5t73.5 138t42 190t13 249z" />
<glyph unicode="&#xf1;" horiz-adv-x="2012" d="M454 1247v-1247h-186v1364q0 145 8 295q160 66 369.5 106t434.5 40q98 0 180 -10.5t144.5 -29t112.5 -48t84.5 -62.5t59.5 -78t40 -88.5t23.5 -101t11.5 -108.5t3 -116v-1163h-186v1118q0 83 -5 142.5t-19 117t-39.5 96.5t-66 73t-98.5 53t-136.5 29.5t-181.5 10.5 q-123 0 -289.5 -29t-257.5 -68q-6 -180 -6 -296zM1272 2425h129q-15 -145 -77.5 -223.5t-142.5 -78.5q-50 0 -90.5 17t-65.5 40.5t-47 47.5t-46.5 41t-52.5 17q-87 0 -114 -155h-130q15 145 77.5 223t142.5 78q50 0 90 -17t65.5 -41t47.5 -47.5t47 -40.5t53 -17 q88 0 114 156z" />
<glyph unicode="&#xf2;" horiz-adv-x="2001" d="M1000 -24q-217 0 -363 48.5t-239.5 159.5t-134 282t-40.5 425t40.5 424.5t134 281.5t239.5 159.5t363 48.5q216 0 363 -49.5t240 -161.5t134 -282.5t41 -420.5q0 -249 -41 -419.5t-134 -282.5t-240 -162.5t-363 -50.5zM1000 141q136 0 232 23.5t166.5 75.5t111.5 141 t60.5 212.5t19.5 297.5t-19 297t-60 212t-111.5 141t-166.5 75.5t-233 23.5q-112 0 -194.5 -14t-150.5 -48t-112 -89t-74.5 -139.5t-43.5 -196t-13 -262.5q0 -150 13 -262t43.5 -196.5t74.5 -139.5t112 -89.5t150.5 -48.5t194.5 -14zM996 2043l-372 458h242l287 -458h-157z " />
<glyph unicode="&#xf3;" horiz-adv-x="2000" d="M1000 -24q-217 0 -363 48.5t-239.5 159.5t-134 282t-40.5 425t40.5 424.5t134 281.5t239.5 159.5t363 48.5q173 0 300.5 -32.5t219.5 -99.5t148 -177t82.5 -257.5t26.5 -347.5q0 -199 -26.5 -346.5t-82.5 -257.5t-148 -177.5t-219.5 -100.5t-300.5 -33zM1000 141 q135 0 231 23.5t166.5 75.5t111.5 141t60.5 212.5t19.5 297.5q0 218 -28.5 358t-99 229.5t-180.5 125.5t-281 36q-112 0 -194.5 -14t-150.5 -48t-112.5 -89t-75 -139.5t-43.5 -196.5t-13 -262t13 -262t43.5 -196.5t75 -139.5t112.5 -89.5t150.5 -48.5t194.5 -14zM862 2057 l287 458h242l-372 -458h-157z" />
<glyph unicode="&#xf4;" horiz-adv-x="2000" d="M1000 -24q-217 0 -363 48.5t-239.5 159.5t-134 282t-40.5 425t40.5 424.5t134 281.5t239.5 159.5t363 48.5q173 0 300.5 -32.5t219.5 -99.5t148 -177t82.5 -257.5t26.5 -347.5q0 -199 -26.5 -346.5t-82.5 -257.5t-148 -177.5t-219.5 -100.5t-300.5 -33zM1000 141 q135 0 231 23.5t166.5 75.5t111.5 141t60.5 212.5t19.5 297.5q0 218 -28.5 358t-99 229.5t-180.5 125.5t-281 36q-112 0 -194.5 -14t-150.5 -48t-112.5 -89t-75 -139.5t-43.5 -196.5t-13 -262t13 -262t43.5 -196.5t75 -139.5t112.5 -89.5t150.5 -48.5t194.5 -14zM904 2498 h183l298 -458h-162l-225 340l-227 -340h-157z" />
<glyph unicode="&#xf5;" horiz-adv-x="2001" d="M1254 2405h129q-15 -145 -77.5 -223.5t-142.5 -78.5q-50 0 -90.5 17t-65.5 40.5t-47 47.5t-46.5 41t-52.5 17q-45 0 -72.5 -37t-41.5 -118h-130q15 145 77.5 223t142.5 78q50 0 90 -17t65.5 -41t47.5 -47.5t47 -40.5t53 -17q88 0 114 156zM1000 1805q216 0 363 -49.5 t240 -161.5t134 -282.5t41 -420.5q0 -249 -41 -419.5t-134 -282.5t-240 -162.5t-363 -50.5q-217 0 -363 48.5t-239.5 159.5t-134 282t-40.5 425t40.5 424.5t134 281.5t239.5 159.5t363 48.5zM1000 1640q-112 0 -194.5 -14t-150.5 -48t-112 -89t-74.5 -139.5t-43.5 -196 t-13 -262.5q0 -150 13 -262t43.5 -196.5t74.5 -139.5t112 -89.5t150.5 -48.5t194.5 -14q136 0 232 23.5t166.5 75.5t111.5 141t60.5 212.5t19.5 297.5t-19 297t-60 212t-111.5 141t-166.5 75.5t-233 23.5z" />
<glyph unicode="&#xf6;" horiz-adv-x="2000" d="M758 2121q-56 0 -95 39t-39 94t39 94t95 39q55 0 93.5 -38.5t38.5 -94.5t-38.5 -94.5t-93.5 -38.5zM1000 -24q-217 0 -363 48.5t-239.5 159.5t-134 282t-40.5 425t40.5 424.5t134 281.5t239.5 159.5t363 48.5q173 0 300.5 -32.5t219.5 -99.5t148 -177t82.5 -257.5 t26.5 -347.5q0 -199 -26.5 -346.5t-82.5 -257.5t-148 -177.5t-219.5 -100.5t-300.5 -33zM1000 141q135 0 231 23.5t166.5 75.5t111.5 141t60.5 212.5t19.5 297.5q0 218 -28.5 358t-99 229.5t-180.5 125.5t-281 36q-112 0 -194.5 -14t-150.5 -48t-112 -89t-74.5 -139.5 t-43.5 -196t-13 -262.5q0 -150 13 -262t43.5 -196.5t74.5 -139.5t112 -89.5t150.5 -48.5t194.5 -14zM1243 2121q-56 0 -95 39t-39 94t39 94t95 39q55 0 93.5 -38.5t38.5 -94.5t-38.5 -94.5t-93.5 -38.5z" />
<glyph unicode="&#xf7;" horiz-adv-x="1949" d="M975 118q-66 0 -113 47t-47 113q0 67 47 114t113 47t113 -47t47 -114q0 -66 -47 -113t-113 -47zM975 1519q-66 0 -113 47t-47 113q0 67 47 113.5t113 46.5t113 -46.5t47 -113.5q0 -66 -47 -113t-113 -47zM172 891v176h1605v-176h-1605z" />
<glyph unicode="&#xf8;" horiz-adv-x="2000" d="M533 72l-122 -182l-112 78l125 186q-105 106 -153 285.5t-48 451.5q0 254 40.5 424.5t134 281.5t239.5 159.5t363 48.5q296 0 466 -98l124 184l111 -78l-127 -189q106 -107 154.5 -286t48.5 -447q0 -199 -26.5 -346.5t-82.5 -257.5t-148 -177.5t-219.5 -100.5t-300.5 -33 q-298 0 -467 96zM1000 1640q-112 0 -194.5 -14t-150.5 -48t-112 -89t-74.5 -139.5t-43.5 -196t-13 -262.5q0 -214 28 -354.5t89 -225.5l840 1251q-128 78 -369 78zM1470 1469l-840 -1252q122 -76 370 -76q136 0 232 23.5t166.5 75.5t111.5 141t60.5 212.5t19.5 297.5 q0 211 -28.5 351.5t-91.5 226.5z" />
<glyph unicode="&#xf9;" horiz-adv-x="2004" d="M261 618v1163h186v-1118q0 -72 3.5 -125.5t14 -106.5t28.5 -90.5t46.5 -72t69 -57t95.5 -39t126 -24t161 -7.5q122 0 286.5 29t256.5 68q5 150 5 296v1247h186v-1364q0 -131 -7 -295q-161 -66 -368.5 -106t-430.5 -40q-98 0 -180 10.5t-144.5 29t-112 48t-84.5 62t-60 78 t-39.5 89t-23 101t-11.5 108t-3 116.5zM960 2066l-372 458h243l287 -458h-158z" />
<glyph unicode="&#xfa;" horiz-adv-x="2005" d="M261 618v1163h186v-1118q0 -72 3.5 -125.5t14 -106.5t28.5 -90.5t46.5 -72t69 -57t95.5 -39t126.5 -24t161.5 -7.5q122 0 286.5 29t255.5 68q6 180 6 296v1247h186v-1364q0 -145 -8 -295q-161 -66 -368.5 -106t-429.5 -40q-98 0 -180 10.5t-144.5 29t-112.5 48 t-84.5 62.5t-59.5 78t-40 88.5t-23.5 101t-11.5 108.5t-3 116zM879 2086l286 458h243l-372 -458h-157z" />
<glyph unicode="&#xfb;" horiz-adv-x="2004" d="M261 618v1163h186v-1118q0 -72 3.5 -125.5t14 -106.5t28.5 -90.5t46.5 -72t69 -57t95.5 -39t126.5 -24t161.5 -7.5q121 0 285.5 29t256.5 68q5 150 5 296v1247h186v-1364q0 -131 -7 -295q-161 -66 -368.5 -106t-430.5 -40q-98 0 -180 10.5t-144.5 29t-112 48t-84 62.5 t-60 78t-40 88.5t-23 101t-11.5 108.5t-3 116zM898 2554h184l297 -458h-161l-226 340l-226 -340h-158z" />
<glyph unicode="&#xfc;" horiz-adv-x="2005" d="M261 618v1163h186v-1118q0 -72 3.5 -125.5t14 -106.5t28.5 -90.5t46.5 -72t69 -57t95.5 -39t126.5 -24t161.5 -7.5q121 0 285.5 29t256.5 68q6 180 6 296v1247h186v-1364q0 -145 -8 -295q-161 -66 -368.5 -106t-429.5 -40q-98 0 -180 10.5t-144.5 29t-112.5 48 t-84.5 62.5t-59.5 78t-40 88.5t-23.5 101t-11.5 108.5t-3 116zM751 2157q-55 0 -94 38.5t-39 94.5t39 94.5t94 38.5t93.5 -38.5t38.5 -94.5t-38.5 -94.5t-93.5 -38.5zM1236 2157q-56 0 -95 39t-39 94t39 94t95 39q55 0 93.5 -38.5t38.5 -94.5t-38.5 -94.5t-93.5 -38.5z" />
<glyph unicode="&#xfd;" horiz-adv-x="1691" d="M909 382l476 1399h189l-829 -2437h-190l269 783l-722 1654h202zM757 2046l287 458h242l-372 -458h-157z" />
<glyph unicode="&#xfe;" horiz-adv-x="1917" d="M264 -656v2986h186v-599q283 74 534 74q268 0 426.5 -87.5t233.5 -286.5t75 -540t-75 -540.5t-233.5 -287t-426.5 -87.5q-251 0 -534 74v-706h-186zM450 1564v-1347q95 -33 222.5 -55t238.5 -22q127 0 220.5 16.5t163.5 55t114.5 94.5t72 143.5t38.5 192t11 249.5 t-11 249.5t-38.5 191.5t-72 143t-114.5 94.5t-163.5 55t-220.5 16.5q-111 0 -238.5 -22t-222.5 -55z" />
<glyph unicode="&#xff;" horiz-adv-x="1690" d="M630 2127q-56 0 -94.5 38.5t-38.5 94.5t38.5 94.5t94.5 38.5q55 0 93.5 -38.5t38.5 -94.5t-38.5 -94.5t-93.5 -38.5zM1115 2127q-55 0 -94 38.5t-39 94.5t39 94.5t94 38.5t94 -38.5t39 -94.5t-39 -94.5t-94 -38.5zM909 382l475 1399h189l-829 -2437h-189l268 783 l-721 1654h202z" />
<glyph unicode="&#x102;" horiz-adv-x="2182" d="M1342 2904h132q-16 -146 -111.5 -237t-273.5 -91q-177 0 -272.5 90.5t-112.5 237.5h131q15 -87 80 -145.5t174 -58.5t173.5 58.5t79.5 145.5zM102 0l848 2221q26 68 60.5 100.5t85.5 32.5q98 0 147 -133l837 -2221h-209l-259 691h-1050l-259 -691h-201zM1551 854 l-462 1237l-465 -1237h927z" />
<glyph unicode="&#x103;" horiz-adv-x="1857" d="M287 1587l-17 157q191 30 336.5 45.5t314.5 15.5q99 0 180 -9t158.5 -31t135 -61.5t102 -97t67 -142t22.5 -191.5v-864q0 -131 -7 -295q-297 -138 -724 -138q-183 0 -311 26.5t-218 87t-132.5 161.5t-42.5 248q0 484 436 549q234 35 814 55v110q0 81 -9 139.5t-32 108.5 t-60.5 82t-97 54.5t-140 32.5t-189.5 10q-219 0 -586 -53zM339 505q0 -89 19.5 -151.5t57.5 -105t103.5 -66.5t148.5 -34t201 -10q287 0 527 89q5 150 5 296v425q-538 -10 -754 -51q-164 -31 -236 -117t-72 -275zM1201 2441h131q-8 -81 -34 -147.5t-71.5 -119t-117 -82 t-162.5 -29.5t-162 29.5t-116.5 82t-71.5 119t-34 147.5h130q15 -101 80 -168t174 -67t174 67t80 168z" />
<glyph unicode="&#x104;" horiz-adv-x="2181" d="M2177 -456l40 -101q-49 -37 -115.5 -58.5t-128.5 -21.5q-120 0 -197.5 69t-77.5 186q0 103 61 204.5t145 177.5h-33l-259 691h-1050l-260 -691h-200l847 2221q26 68 61 100.5t85 32.5q98 0 147 -133l837 -2221h-53q-169 -174 -169 -317q0 -80 46.5 -127.5t126.5 -47.5 q84 0 147 36zM623 854h928l-462 1237z" />
<glyph unicode="&#x105;" horiz-adv-x="1857" d="M1585 1273v-864q0 -163 -7 -295q-125 -59 -281 -94q-127 -152 -127 -270q0 -80 46.5 -127.5t125.5 -47.5q85 0 148 36l40 -101q-49 -37 -115.5 -58.5t-128.5 -21.5q-120 0 -198 69t-78 186q0 148 136 309q-141 -18 -291 -18q-183 0 -311 26.5t-218 87t-132.5 161.5 t-42.5 248q0 484 435 549q235 35 815 55v110q0 122 -21.5 198.5t-80.5 130.5t-161 76t-265 22q-219 0 -586 -53l-18 157q191 30 337 45.5t315 15.5q120 0 213.5 -13t181 -48t144.5 -93.5t91 -154t34 -223.5zM1401 523v425q-538 -10 -754 -51q-164 -31 -236 -117t-72 -275 q0 -111 28.5 -182t95.5 -112t162 -57t244 -16q287 0 526 89q6 135 6 296z" />
<glyph unicode="&#x106;" horiz-adv-x="1728" d="M1645 183l18 -158q-255 -49 -509 -49q-160 0 -286.5 23t-224 67.5t-168 117.5t-118.5 165t-77 219t-41 270t-12 327t12.5 327t41 270t76.5 219t119 165t168.5 117.5t223.5 67.5t286 23q269 0 509 -46l-19 -162q-247 37 -386 37q-160 0 -282.5 -22t-211 -59.5 t-149.5 -105.5t-98 -142.5t-57.5 -189.5t-27 -226.5t-6.5 -272.5q0 -159 7.5 -273t28.5 -227t59.5 -189t100 -143t149.5 -105t209 -59.5t278 -21.5q129 0 387 36zM1478 2930l-398 -371h-169l307 371h260z" />
<glyph unicode="&#x107;" horiz-adv-x="1470" d="M1349 182l19 -158q-247 -48 -431 -48q-127 0 -229.5 25t-177 68.5t-130 110.5t-90.5 143t-56.5 174t-29.5 196t-8 217q0 131 9 233.5t32 198.5t61 165.5t97 128t139.5 94.5t188.5 55.5t244 19.5q194 0 378 -46l-16 -148q-153 28 -292 28q-99 0 -178.5 -9t-143 -24.5 t-111.5 -43.5t-83 -60t-59.5 -80.5t-39.5 -97t-23 -118.5t-11 -137t-3 -159q0 -87 2.5 -151t10.5 -135.5t22 -122.5t38.5 -104t58.5 -89.5t82 -69.5t110.5 -52t143 -30.5t178.5 -11.5q110 0 298 38zM1239 2498l-372 -458h-157l286 458h243z" />
<glyph unicode="&#x10c;" horiz-adv-x="1728" d="M1644 183l19 -158q-255 -49 -510 -49q-187 0 -328 30t-244 95.5t-171 158t-108.5 230.5t-57.5 299t-17 376q0 184 12.5 327t41 270t76.5 219t118.5 165t168 117.5t223.5 67.5t286 23q270 0 510 -46l-20 -162q-245 37 -386 37q-113 0 -206 -9.5t-169 -31t-136 -50 t-106.5 -72t-80 -90t-57.5 -113t-39 -131.5t-23 -153.5t-11 -172.5t-3 -195q0 -159 7.5 -273t28.5 -227t59.5 -189t99.5 -143t149 -105t209 -59.5t278 -21.5q131 0 387 36zM1043 2655l243 275h168l-311 -371h-196l-318 371h173z" />
<glyph unicode="&#x10d;" horiz-adv-x="1470" d="M1349 182l19 -158q-247 -48 -431 -48q-127 0 -229.5 25t-177 68.5t-130 110.5t-90.5 143t-56.5 174t-29.5 196t-8 217q0 131 9 233.5t32 198.5t61 165.5t97 128t139.5 94.5t189 55.5t244.5 19.5q193 0 377 -46l-16 -148q-153 28 -292 28q-99 0 -178.5 -9t-143 -24.5 t-111.5 -43.5t-83 -60t-59.5 -80.5t-39.5 -97t-23 -118.5t-11 -137t-3 -159q0 -87 2.5 -151t10.5 -135.5t22 -122.5t38.5 -104t58.5 -89.5t82 -69.5t110.5 -52t143 -30.5t178.5 -11.5q110 0 298 38zM863 2161l227 340h157l-290 -458h-184l-297 458h161z" />
<glyph unicode="&#x10e;" horiz-adv-x="2236" d="M913 2184q-165 0 -429 -32v-1972q251 -34 429 -34q483 0 684 189q139 130 176 386q19 141 19 444t-18 437q-36 257 -171 388q-197 190 -670 194h-20zM289 28v2277q322 49 694 49q128 0 236 -11.5t197 -36.5t161.5 -59t129.5 -84t100 -106.5t74.5 -131t52 -154t33 -179 t17.5 -201.5t5 -226t-5 -226t-17.5 -201.5t-33 -179t-52 -154t-74.5 -131t-100 -106.5t-129.5 -84t-161.5 -59t-197 -36.5t-236 -11.5q-353 0 -694 52zM1051 2658l243 275h168l-311 -371h-196l-318 371h172z" />
<glyph unicode="&#x10f;" horiz-adv-x="1922" d="M1457 1731v738h186v-2060q0 -131 -7 -295q-270 -138 -657 -138q-142 0 -252.5 19.5t-200.5 64t-152.5 114.5t-105 172.5t-62 236.5t-19.5 308q0 341 75 540t233.5 286.5t426.5 87.5q251 0 535 -74zM1457 1564q-95 33 -223 55t-239 22q-127 0 -220.5 -16.5t-163.5 -55 t-114.5 -94.5t-72 -143t-38.5 -192t-11 -249q0 -206 31 -345.5t103 -232t186 -133.5t284 -41q118 0 245.5 23t226.5 67q6 178 6 296v1039zM2223 2469l-244 -700h-136l194 700h186z" />
<glyph unicode="&#x110;" horiz-adv-x="2339" d="M391 1129h-208v151h208v1025q323 49 694 49q128 0 236 -11.5t197.5 -36.5t161.5 -59t129 -83.5t100.5 -106.5t74.5 -131.5t52 -154t33.5 -179t17.5 -201.5t5 -226t-5 -226t-17.5 -201.5t-33.5 -179t-52 -154t-74.5 -131.5t-100.5 -106.5t-129 -83.5t-161.5 -59 t-197.5 -36.5t-236 -11.5q-351 0 -694 52v1101zM586 1129v-949q252 -34 429 -34q484 0 684 189q139 130 176 385q19 142 19 445t-18 435q-35 257 -170 389q-195 190 -665 195h-26q-164 0 -429 -32v-872h386v-151h-386z" />
<glyph unicode="&#x111;" horiz-adv-x="1921" d="M1090 2048v134h366v287h186v-287h251v-134h-251v-1639q0 -131 -7 -295q-269 -138 -656 -138q-142 0 -252.5 19.5t-200.5 64t-152.5 114.5t-105 172.5t-62 236.5t-19.5 308q0 341 75 540t233.5 286.5t426.5 87.5q250 0 534 -74v317h-366zM1456 1564q-95 32 -222.5 54.5 t-238.5 22.5q-127 0 -220.5 -16.5t-163.5 -55t-114.5 -94.5t-72 -143t-38.5 -191.5t-11 -249.5q0 -206 31 -345.5t102.5 -232t186 -133.5t284.5 -41q118 0 245.5 23t226.5 67q5 148 5 296v1039z" />
<glyph unicode="&#x118;" horiz-adv-x="1769" d="M1590 2166h-566q-123 0 -205 -7.5t-146.5 -29.5t-100.5 -53.5t-59 -89t-30.5 -126.5t-7.5 -174v-416h1066v-165h-1066v-464q0 -105 7.5 -174t30.5 -126t59 -88.5t100.5 -53t146.5 -28.5t205 -7h566v-160q-106 -5 -205 -6q-166 -175 -166 -315q0 -80 46.5 -127.5 t125.5 -47.5q85 0 148 36l40 -101q-49 -37 -115.5 -58.5t-128.5 -21.5q-120 0 -198 69t-78 186q0 101 59.5 201t141.5 176q-75 -1 -226 -1q-100 0 -165 2.5t-152.5 13t-143.5 30t-117 56t-95.5 88.5t-57.5 130.5t-23 178.5v1341q0 100 22.5 178.5t57.5 131t96 89.5t117 57 t143 30.5t153 13t165 2.5q233 0 556 -13v-157z" />
<glyph unicode="&#x119;" horiz-adv-x="1942" d="M1664 193l19 -160q-214 -33 -387 -45q-148 -166 -148 -295q0 -80 47 -127.5t126 -47.5q84 0 148 36l40 -101q-50 -38 -116.5 -59t-128.5 -21q-120 0 -197.5 69t-77.5 186q0 93 50.5 184.5t125.5 167.5q-134 -4 -219 -4q-169 0 -297.5 45.5t-210 124t-132.5 196.5 t-71 250.5t-20 298.5q0 248 39 416.5t130 282t238.5 164.5t366.5 51q173 0 304.5 -36t217.5 -100.5t140 -163t76.5 -213.5t22.5 -261q0 -92 -5 -184q-151 -25 -417.5 -50t-456.5 -33l-466 -19q8 -88 18.5 -152t31 -130.5t50.5 -112.5t77 -88t110.5 -67t150.5 -39.5 t197 -14.5q258 0 624 52zM989 1643q-143 0 -244.5 -29t-168.5 -83.5t-106 -147.5t-54.5 -207.5t-15.5 -276.5l517 24q337 16 641 53q4 55 4 142q0 122 -30 215.5t-95.5 164.5t-178 108t-269.5 37z" />
<glyph unicode="&#x11a;" horiz-adv-x="1769" d="M1590 2323v-157h-566q-123 0 -205 -7.5t-146.5 -29.5t-100.5 -53.5t-59 -89t-30.5 -126.5t-7.5 -174v-416h1066v-165h-1066v-464q0 -105 7.5 -174t30.5 -126t59 -88.5t100.5 -53t146.5 -28.5t205 -7h566v-160q-239 -10 -556 -10q-100 0 -165 2.5t-152.5 13t-143.5 30 t-117 56t-95.5 88.5t-57.5 130.5t-23 178.5v1341q0 100 22.5 178.5t57.5 131t96 89.5t117 57t143 30.5t153 13t165 2.5q231 0 556 -13zM554 2924h172l242 -275l243 275h168l-311 -371h-196z" />
<glyph unicode="&#x11b;" horiz-adv-x="1941" d="M945 -24q-169 0 -297 45.5t-209.5 124t-132.5 196.5t-71 250.5t-20 298.5q0 248 39 416.5t130 282t238 164.5t366 51q173 0 304.5 -36t217.5 -100.5t140 -163t76.5 -213.5t22.5 -261q0 -92 -5 -184q-151 -25 -417.5 -50t-456.5 -33l-466 -19q6 -67 13.5 -119t20.5 -107 t30.5 -96.5t43.5 -82.5t60 -70t79.5 -55t102 -41.5t128 -24t157.5 -8.5q259 0 625 52l18 -160q-192 -29 -351 -43t-386 -14zM400 899l516 24q336 16 641 53q4 55 4 142q0 122 -30 215.5t-95.5 164.5t-178 108t-269.5 37q-119 0 -209 -18.5t-155.5 -60t-108.5 -99.5 t-68.5 -144.5t-36 -186.5t-10.5 -235zM982 2151l227 340h157l-290 -458h-184l-297 458h162z" />
<glyph unicode="&#x11e;" horiz-adv-x="2117" d="M1272 1036v164h629v-856q0 -57 -12 -103.5t-32 -82t-54 -63t-70 -47t-89.5 -33t-102 -21t-117.5 -12t-126.5 -5.5t-138.5 -1q-160 0 -286 23t-223 67.5t-168 117.5t-119 165t-76.5 219t-41 270t-12.5 327q0 162 9 292t31 247t57 205.5t87 163.5t122 126t161.5 86.5 t205 52t253.5 16.5q372 0 667 -49l-19 -164q-300 40 -544 40q-161 0 -283 -21.5t-210.5 -58.5t-149.5 -105t-98 -142t-57 -189t-26.5 -226.5t-6.5 -273.5q0 -110 3 -194t11.5 -172t23.5 -153.5t39 -131.5t58 -113t80.5 -90.5t106.5 -72t135.5 -50t168.5 -31.5t205 -10 q69 0 126 5t100 13t76.5 23t56.5 29.5t39 38t25 43.5t13.5 50.5t6 55.5t1.5 61v570h-435zM739 2899h130q15 -87 80 -145.5t174 -58.5t173.5 58.5t79.5 145.5h132q-16 -146 -111.5 -237t-273.5 -91q-177 0 -272.5 91t-111.5 237z" />
<glyph unicode="&#x11f;" horiz-adv-x="1928" d="M326 -618l18 157q361 -54 591 -54q163 0 265 22t161 76t80.5 130.5t21.5 199.5v177q-284 -74 -534 -74q-201 0 -337 45t-226.5 150.5t-131 275.5t-40.5 423t44.5 424t143.5 276t244.5 150t359.5 45q387 0 656 -138q7 -164 7 -295v-1520q0 -107 -22.5 -191.5t-67 -142 t-101.5 -97t-135 -61.5t-158.5 -31t-179.5 -9q-268 0 -659 62zM986 1642q-169 0 -283.5 -40.5t-186.5 -131t-103 -226t-31 -334.5q0 -141 11 -243.5t38.5 -187t72.5 -139t115 -91.5t163 -53t220 -16q111 0 238.5 22t222.5 55v999q0 148 -5 296q-99 44 -226.5 67t-245.5 23z M1228 2441h132q-8 -81 -34.5 -147.5t-72 -119t-117 -82t-162.5 -29.5q-177 0 -272 104.5t-112 273.5h130q15 -101 80 -168t174 -67q110 0 174.5 67t79.5 168z" />
<glyph unicode="&#x130;" horiz-adv-x="779" d="M391 2598q-58 0 -98.5 40.5t-40.5 98.5t40.5 98.5t98.5 40.5t98 -40.5t40 -98.5t-40 -98.5t-98 -40.5zM292 0v2330h196v-2330h-196z" />
<glyph unicode="&#x131;" horiz-adv-x="698" d="M255 0v1781h187v-1781h-187z" />
<glyph unicode="&#x139;" horiz-adv-x="1601" d="M1553 164v-162q-222 -8 -514 -8q-100 0 -165 2.5t-152.5 13t-143 30t-117 56t-96 88.5t-57.5 130.5t-23 178.5v1837h196v-1689q0 -104 7.5 -172.5t30.5 -125.5t59 -88.5t100.5 -53.5t146.5 -29.5t205 -7.5h523zM868 2932l-398 -371h-168l307 371h259z" />
<glyph unicode="&#x13a;" horiz-adv-x="710" d="M239 461v2008h187v-1991q0 -288 148 -472l-155 -85q-91 103 -135.5 231.5t-44.5 308.5zM252 2647l307 371h259l-398 -371h-168z" />
<glyph unicode="&#x13d;" horiz-adv-x="1601" d="M1552 164v-162q-221 -8 -513 -8q-100 0 -165 2.5t-152.5 13t-143.5 30t-117 56t-95.5 88.5t-57.5 130.5t-23 178.5v1837h196v-1689q0 -104 7.5 -172.5t30.5 -125.5t59 -88.5t100.5 -53.5t146.5 -29.5t205 -7.5h522zM1110 2330l-245 -700h-135l193 700h187z" />
<glyph unicode="&#x13e;" horiz-adv-x="709" d="M239 461v2008h186v-1991q0 -288 148 -472l-154 -85q-91 103 -135.5 231.5t-44.5 308.5zM626 1769l193 700h187l-245 -700h-135z" />
<glyph unicode="&#x141;" horiz-adv-x="1747" d="M432 1149v1181h195v-1037l496 366v-185l-496 -365v-468q0 -104 7.5 -172.5t30.5 -125.5t59.5 -88.5t100.5 -53.5t146.5 -29.5t205.5 -7.5h522v-162q-222 -8 -513 -8q-100 0 -165 2.5t-152.5 13t-143.5 30t-117 56t-95.5 88.5t-57.5 130.5t-23 178.5v473l-279 -205v182z " />
<glyph unicode="&#x142;" horiz-adv-x="741" d="M445 1262v-784q0 -286 148 -472l-154 -85q-91 103 -135.5 231.5t-44.5 308.5v641l-248 -214v187l248 215v1179h186v-1018l251 218v-190z" />
<glyph unicode="&#x143;" horiz-adv-x="2341" d="M590 2224l1272 -1953v2059h185v-2217q0 -69 -33.5 -103t-87.5 -34q-50 0 -90.5 32t-83.5 98l-1272 1954v-2060h-185v2217q0 69 33.5 103t87.5 34q49 0 90 -32.5t84 -97.5zM1037 2556l307 371h260l-398 -371h-169z" />
<glyph unicode="&#x144;" horiz-adv-x="2012" d="M454 1247v-1247h-186v1364q0 145 8 295q160 66 369.5 106t434.5 40q98 0 180 -10.5t144.5 -29t112.5 -48t84.5 -62.5t59.5 -78t40 -88.5t23.5 -101t11.5 -108.5t3 -116v-1163h-186v1118q0 83 -5 142.5t-19 117t-39.5 96.5t-66 73t-98.5 53t-136.5 29.5t-181.5 10.5 q-123 0 -289.5 -29t-257.5 -68q-6 -180 -6 -296zM879 2048l286 458h243l-372 -458h-157z" />
<glyph unicode="&#x147;" horiz-adv-x="2340" d="M590 2224l1272 -1953v2059h184v-2217q0 -69 -33 -103t-87 -34q-50 0 -90.5 32t-83.5 98l-1273 1954v-2060h-184v2217q0 69 33.5 103t87.5 34q49 0 90 -32.5t84 -97.5zM755 2917h172l242 -275l243 275h168l-311 -371h-196z" />
<glyph unicode="&#x148;" horiz-adv-x="2012" d="M454 1247v-1247h-186v1364q0 130 7 295q160 66 369.5 106t434.5 40q99 0 181 -10.5t144.5 -29t112 -48t84.5 -62.5t60 -78t40 -88.5t23.5 -101t11.5 -108.5t3 -116v-1163h-186v1118q0 83 -5 142.5t-19 117t-39.5 96.5t-66 73t-98.5 53t-136.5 29.5t-181.5 10.5 q-123 0 -289.5 -29t-257.5 -68q-6 -180 -6 -296zM617 2498h162l225 -340l227 340h157l-290 -458h-184z" />
<glyph unicode="&#x150;" horiz-adv-x="2266" d="M1134 -24q-175 0 -308.5 29t-233.5 92.5t-167 156t-108.5 229t-59 301t-17.5 381.5t17.5 381.5t59 301t108.5 229t167 156t233.5 92.5t308.5 29t308 -29t232.5 -92.5t166.5 -156t108.5 -229t59 -301t17.5 -381.5t-17.5 -381.5t-59 -301t-108.5 -229t-166.5 -156 t-232.5 -92.5t-308 -29zM1134 147q109 0 198.5 16.5t157 42.5t119.5 74t87.5 95t60.5 122t38.5 139t21 162t9.5 175t2 192q0 116 -2 193t-9.5 175t-21 162t-38.5 138.5t-60.5 122t-87.5 95t-119.5 73.5t-157 42.5t-198.5 16.5q-99 0 -182 -11.5t-147.5 -38t-115.5 -57 t-88.5 -81t-65 -97t-45 -118.5t-28 -131.5t-15.5 -149.5t-6.5 -159.5t-1.5 -174.5q0 -117 1.5 -192.5t9 -174.5t21 -162t38 -138.5t60 -122.5t88 -95t120 -74t157.5 -42.5t200 -16.5zM791 2568l291 370h256l-389 -370h-158zM1236 2568l292 370h257l-390 -370h-159z" />
<glyph unicode="&#x151;" horiz-adv-x="2001" d="M1001 -24q-217 0 -363 48.5t-240 159.5t-134.5 282t-40.5 425t40.5 424.5t134.5 281.5t240 159.5t363 48.5q173 0 300.5 -32.5t219.5 -99.5t148 -177t82.5 -257.5t26.5 -347.5q0 -199 -26.5 -346.5t-82.5 -257.5t-148 -177.5t-219.5 -100.5t-300.5 -33zM1001 141 q135 0 231 23.5t166.5 75.5t111.5 141t60.5 212.5t19.5 297.5t-19 297t-60 212t-111 141t-166.5 75.5t-232.5 23.5q-112 0 -195 -14t-151 -48t-112 -89t-74.5 -139.5t-43.5 -196t-13 -262.5q0 -180 20 -306.5t61.5 -214t113 -137t165.5 -71t229 -21.5zM669 2069l272 458h239 l-363 -458h-148zM1085 2069l273 458h240l-364 -458h-149z" />
<glyph unicode="&#x152;" horiz-adv-x="3317" d="M3138 2166h-567q-123 0 -205 -7.5t-146.5 -29.5t-100 -53.5t-58.5 -89t-30.5 -126.5t-7.5 -174v-416h1066v-165h-1066v-464q0 -105 7.5 -174t30.5 -126t58.5 -88.5t100 -53t146.5 -28.5t205 -7h567v-160q-239 -10 -557 -10q-64 0 -108 1t-103.5 4t-101 9t-92 17.5t-87 27 t-75 39t-65 53.5t-49.5 70t-37 89q-96 -170 -272.5 -249t-457.5 -79q-175 0 -308 29t-233 92.5t-167 156t-108.5 229t-59 301t-17.5 381.5t17.5 381.5t59 301t108.5 229t167 156t233 92.5t308 29q281 0 457.5 -79.5t273.5 -250.5q17 62 49.5 110.5t71 81t95.5 55.5t108 35.5 t124.5 19.5t130 8.5t138.5 1.5q232 0 557 -13v-157zM1133 147q109 0 198.5 16.5t157 42.5t120 74t88 95t60 122t38.5 139t21 162t9 174.5t2 192.5t-2 193t-9 175t-21 162t-38.5 139t-60 122t-88 94.5t-120 73.5t-157 42.5t-198.5 16.5q-110 0 -199.5 -16.5t-157.5 -42.5 t-120 -73.5t-87.5 -94.5t-60.5 -122.5t-38.5 -139t-20.5 -162t-9 -174.5t-2 -193q0 -152 3.5 -245.5t18 -214t42 -192.5t78 -150.5t123.5 -120t181 -68.5t249 -27z" />
<glyph unicode="&#x153;" horiz-adv-x="3316" d="M1000 1805q274 0 438 -85t244 -271q78 185 241.5 270.5t438.5 85.5q174 0 305.5 -36t217.5 -100.5t140 -163t76.5 -213.5t22.5 -261q0 -92 -5 -184q-151 -25 -418 -50t-457 -33l-465 -19q8 -87 18.5 -151.5t31 -131t50.5 -112.5t77 -88t110 -67t150 -39.5t197 -14.5 q259 0 625 52l19 -160q-192 -29 -351.5 -43t-386.5 -14q-475 0 -632 368q-78 -192 -243.5 -280t-443.5 -88q-217 0 -363 48.5t-239.5 159.5t-134 282t-40.5 425t40.5 424.5t134 281.5t239.5 159.5t363 48.5zM1000 1640q-112 0 -194.5 -14t-150.5 -48t-112.5 -89t-75 -139.5 t-43.5 -196.5t-13 -262t13 -262t43.5 -196.5t75 -139.5t112.5 -89.5t150.5 -48.5t194.5 -14q135 0 231 23.5t166.5 75.5t111.5 141t60.5 212.5t19.5 297.5q0 218 -28.5 358t-99 229.5t-180.5 125.5t-281 36zM1774 899l516 24q337 16 642 53q4 55 4 142q0 122 -30 215.5 t-96 164.5t-178.5 108t-269.5 37q-119 0 -209 -18.5t-155 -60t-108.5 -99.5t-69 -144.5t-36 -187t-10.5 -234.5z" />
<glyph unicode="&#x154;" horiz-adv-x="2079" d="M484 0h-196v2302q343 52 698 52q114 0 205 -6.5t187 -25t168.5 -50t138 -83.5t108 -122.5t67 -170t24.5 -223.5q0 -137 -28.5 -244.5t-79.5 -182.5t-128.5 -128t-168.5 -82.5t-205 -44.5l582 -991h-229l-561 977h-53q-172 0 -529 18v-995zM484 2152v-984q238 -23 502 -23 q140 0 245.5 14.5t194 51t144.5 96.5t86.5 151.5t30.5 215.5q0 187 -67.5 298t-217.5 163t-404 52q-240 0 -514 -35zM1155 2933h260l-398 -371h-169z" />
<glyph unicode="&#x155;" horiz-adv-x="1166" d="M453 0h-186v1372q0 130 7 295q269 138 656 138q97 0 166 -8l-16 -167q-69 6 -150 6q-118 0 -245.5 -22.5t-226.5 -66.5q-5 -148 -5 -296v-1251zM791 2508h242l-371 -458h-158z" />
<glyph unicode="&#x158;" horiz-adv-x="2079" d="M484 0h-196v2302q343 52 698 52q114 0 205 -6.5t187 -25t168.5 -50t138 -83.5t108 -122.5t67 -170t24.5 -223.5q0 -137 -28.5 -244.5t-79.5 -182.5t-128.5 -128t-168.5 -82.5t-205 -44.5l582 -991h-229l-561 977h-53q-172 0 -529 18v-995zM484 2152v-984q238 -23 502 -23 q140 0 245.5 14.5t194 51t144.5 96.5t86.5 151.5t30.5 215.5q0 187 -67.5 298t-217.5 163t-404 52q-240 0 -514 -35zM1007 2658l243 275h168l-311 -371h-196l-318 371h173z" />
<glyph unicode="&#x159;" horiz-adv-x="1166" d="M453 0h-186v1372q0 130 7 295q269 138 657 138q97 0 166 -8l-17 -167q-68 6 -149 6q-119 0 -246 -22.5t-226 -66.5q-6 -133 -6 -296v-1251zM446 2498l226 -340l226 340h158l-290 -458h-184l-297 458h161z" />
<glyph unicode="&#x15a;" horiz-adv-x="1713" d="M1030 2181q-128 0 -224.5 -9t-187 -34t-148 -67.5t-92 -113t-34.5 -167.5q0 -61 5 -108t20 -88t33.5 -70.5t54.5 -58.5t73 -49.5t99.5 -45t123.5 -44t154 -46.5q118 -34 207 -69.5t176.5 -91t143.5 -122t90.5 -162.5t34.5 -214q0 -175 -53 -299.5t-159 -200.5 t-254 -110.5t-349 -34.5q-182 0 -309 11.5t-266 39.5l20 165q279 -43 545 -43q115 0 204 11.5t170 42.5t133.5 81.5t83 132.5t30.5 192q0 64 -12.5 117.5t-33.5 95.5t-58.5 78t-78.5 63.5t-103 54t-121.5 47.5t-144.5 46q-100 30 -167 53t-142 55t-123 65t-94.5 79 t-72.5 100t-41.5 125t-15.5 157q0 170 51 288.5t154 188.5t244 101t335 31q283 0 568 -48l-19 -162q-245 37 -450 37zM1332 2940l-398 -371h-168l307 371h259z" />
<glyph unicode="&#x15b;" horiz-adv-x="1552" d="M879 1640q-48 0 -78.5 -0.5t-78 -3.5t-79.5 -8t-72.5 -14.5t-68 -23.5t-56 -35t-45 -47.5t-27.5 -63.5t-11 -81q0 -69 20 -121t41.5 -82t86.5 -61t101 -43t140 -42q52 -16 80 -24q102 -31 174.5 -58t140 -61t111 -72t76.5 -86.5t48 -109t15 -136.5q0 -113 -33.5 -198.5 t-92 -140.5t-145.5 -89.5t-184.5 -48.5t-219.5 -14q-285 0 -547 54l19 153q242 -39 452 -39q52 0 82 0.5t83 3.5t85.5 8t78.5 16t75 26t61 38.5t50.5 53.5t30.5 71.5t12 91.5q0 35 -4 65t-14.5 56t-21.5 47t-33 40.5t-40.5 34t-52.5 31t-59.5 27.5t-72 26.5t-80.5 26 t-92 27.5q-196 58 -257 83q-181 73 -250 196q-52 94 -52 226q0 107 29.5 188t81 133.5t130 85t168.5 46t203 13.5q281 0 558 -55l-19 -151q-244 41 -447 41zM1230 2518l-372 -458h-157l286 458h243z" />
<glyph unicode="&#x15e;" horiz-adv-x="1713" d="M1499 2306l-19 -162q-245 37 -450 37q-129 0 -225 -9t-187 -34t-148.5 -67.5t-92 -113t-34.5 -167.5q0 -61 5 -108t20 -88t33.5 -70.5t54.5 -58.5t73 -49.5t99.5 -45t123.5 -44t155 -46.5q118 -34 207 -69.5t176.5 -91t143.5 -122t90.5 -162.5t34.5 -214 q0 -293 -148.5 -444.5t-443.5 -187.5l-89 -140q110 -5 183 -64.5t73 -160.5q0 -67 -27.5 -118t-75 -80t-105.5 -43t-125 -14q-127 0 -219 50l40 106q92 -41 184 -41q67 0 117.5 29.5t50.5 96.5q0 42 -29 75t-72.5 51.5t-88 27.5t-83.5 9l121 205q-52 -2 -79 -2 q-182 0 -308.5 11.5t-265.5 39.5l20 165q277 -43 544 -43q115 0 204 11.5t170 42.5t133.5 81.5t83.5 132.5t31 192q0 64 -12.5 117.5t-33.5 95.5t-58.5 78t-78.5 63.5t-103 54t-121.5 47.5t-144.5 46q-100 30 -167 53t-142 55t-123 65t-94.5 79t-72.5 100t-41.5 125 t-15.5 157q0 136 33.5 239.5t97 173.5t161 114t217.5 63t275 19q283 0 568 -48z" />
<glyph unicode="&#x15f;" horiz-adv-x="1552" d="M1345 1750l-20 -151q-244 41 -446 41q-48 0 -78.5 -0.5t-78 -3.5t-79.5 -8t-72.5 -14.5t-68 -23.5t-56 -35t-45 -47.5t-27.5 -63.5t-11 -81q0 -69 20 -121t41.5 -82t86.5 -61t101 -43t140 -42q52 -16 80 -24q102 -31 174.5 -58t140 -61t111 -72t76.5 -86.5t48 -109 t15 -136.5q0 -117 -34.5 -204.5t-101 -143.5t-152.5 -88t-199 -45l-87 -138q109 -5 182 -64.5t73 -160.5q0 -89 -48.5 -148t-120.5 -83t-163 -24q-128 0 -220 50l40 106q92 -41 184 -41q68 0 118 29.5t50 96.5q0 42 -29 75t-72.5 51.5t-88 27.5t-83.5 9l121 205 q-15 -1 -44 -1q-286 0 -548 54l20 153q242 -39 451 -39q52 0 82.5 0.5t83 3.5t85.5 8t79 16t75 26t61 38.5t50.5 53.5t30.5 71.5t12 91.5q0 39 -6 72t-15.5 60t-29.5 50.5t-38 41.5t-53.5 36.5t-62.5 31t-77 30t-87 29t-102 30.5q-195 58 -256 82q-181 74 -250 196 q-53 93 -53 227q0 107 29.5 188t81.5 133.5t130 85t168 46t203 13.5q282 0 559 -55z" />
<glyph unicode="&#x160;" horiz-adv-x="1713" d="M1030 2181q-128 0 -224.5 -9t-187 -34t-148 -67.5t-92 -113t-34.5 -167.5q0 -61 5 -108t20 -88t33.5 -70.5t54.5 -58.5t73 -49.5t99.5 -45t123.5 -44t154 -46.5q118 -34 207 -69.5t176.5 -91t143.5 -122t90.5 -162.5t34.5 -214q0 -175 -53 -299.5t-159 -200.5 t-254 -110.5t-349 -34.5q-182 0 -309 11.5t-266 39.5l20 165q279 -43 545 -43q115 0 204 11.5t170 42.5t133.5 81.5t83 132.5t30.5 192q0 64 -12.5 117.5t-33.5 95.5t-58.5 78t-78.5 63.5t-103 54t-121.5 47.5t-144.5 46q-100 30 -167 53t-142 55t-123 65t-94.5 79 t-72.5 100t-41.5 125t-15.5 157q0 170 51 288.5t154 188.5t244 101t335 31q283 0 568 -48l-19 -162q-245 37 -450 37zM883 2665l243 275h168l-311 -371h-196l-318 371h173z" />
<glyph unicode="&#x161;" horiz-adv-x="1552" d="M879 1640q-48 0 -78.5 -0.5t-78 -3.5t-79.5 -8t-72.5 -14.5t-68 -23.5t-56 -35t-45 -47.5t-27.5 -63.5t-11 -81q0 -69 20 -121t41.5 -82t86.5 -61t101 -43t140 -42q52 -16 80 -24q102 -31 174.5 -58t140 -61t111 -72t76.5 -86.5t48 -109t15 -136.5q0 -113 -33.5 -198.5 t-92 -140.5t-145.5 -89.5t-184.5 -48.5t-219.5 -14q-285 0 -547 54l19 153q242 -39 452 -39q52 0 82 0.5t83 3.5t85.5 8t78.5 16t75 26t61 38.5t50.5 53.5t30.5 71.5t12 91.5q0 35 -4 65t-14.5 56t-21.5 47t-33 40.5t-40.5 34t-52.5 31t-59.5 27.5t-72 26.5t-80.5 26 t-92 27.5q-196 58 -257 83q-181 73 -250 196q-52 94 -52 226q0 107 29.5 188t81 133.5t130 85t168.5 46t203 13.5q281 0 558 -55l-19 -151q-244 41 -447 41zM784 2161l227 340h157l-290 -458h-184l-297 458h162z" />
<glyph unicode="&#x162;" horiz-adv-x="1666" d="M1586 2330v-166h-655v-2164h-196v2164h-657v166h1508zM562 -852l180 651h174l-227 -651h-127z" />
<glyph unicode="&#x163;" horiz-adv-x="1141" d="M426 2254l187 30v-503h408v-155h-408v-1158q0 -72 7.5 -124.5t25.5 -89.5t42 -60t63.5 -36t83.5 -17.5t107 -4.5q35 0 82 5l15 -149q-87 -16 -161 -16q-238 0 -345 108t-107 349v1193h-335v155h335v473zM478 -865l180 651h174l-228 -651h-126z" />
<glyph unicode="&#x164;" horiz-adv-x="1666" d="M1586 2330v-166h-655v-2164h-196v2164h-657v166h1508zM417 2897h172l242 -275l243 275h168l-311 -371h-196z" />
<glyph unicode="&#x165;" horiz-adv-x="1140" d="M426 2254l186 30v-503h409v-155h-409v-1158q0 -87 12.5 -145.5t35 -95.5t64.5 -57t91.5 -27t126.5 -7q35 0 82 5l15 -149q-89 -16 -161 -16q-238 0 -345 108t-107 349v1193h-335v155h335v473zM820 2009l194 700h186l-244 -700h-136z" />
<glyph unicode="&#x16e;" horiz-adv-x="2228" d="M1938 2330v-1586q0 -179 -39 -313t-108 -220t-175 -139.5t-228 -74.5t-280 -21t-280 21t-228.5 74.5t-175.5 139.5t-108 220t-39 313v1586h194v-1612q0 -291 151 -430.5t486 -139.5q338 0 487 139t149 431v1612h194zM1108 2483q-131 0 -224 93t-93 225q0 131 93 224 t224 93q132 0 225 -93t93 -224q0 -132 -93 -225t-225 -93zM1108 2603q83 0 141 57.5t58 140.5q0 82 -58 139.5t-141 57.5q-82 0 -139.5 -57.5t-57.5 -139.5q0 -83 57.5 -140.5t139.5 -57.5z" />
<glyph unicode="&#x16f;" horiz-adv-x="2005" d="M261 618v1163h186v-1118q0 -72 3.5 -125.5t14 -106.5t28.5 -90.5t46.5 -72t69 -57t95.5 -39t126.5 -24t161.5 -7.5q121 0 285.5 29t256.5 68q6 180 6 296v1247h186v-1364q0 -145 -8 -295q-161 -66 -368.5 -106t-429.5 -40q-98 0 -180 10.5t-144.5 29t-112.5 48 t-84.5 62.5t-59.5 78t-40 88.5t-23.5 101t-11.5 108.5t-3 116zM992 1968q-131 0 -224 93t-93 225q0 131 93 224t224 93t224.5 -93t93.5 -224q0 -132 -93.5 -225t-224.5 -93zM992 2088q82 0 140 57.5t58 140.5q0 82 -58 139.5t-140 57.5t-140 -57.5t-58 -139.5 q0 -83 57.5 -140.5t140.5 -57.5z" />
<glyph unicode="&#x170;" horiz-adv-x="2229" d="M1939 2330v-1586q0 -179 -39 -313t-108 -220t-175.5 -139.5t-228.5 -74.5t-280 -21q-157 0 -279.5 21t-228.5 74.5t-175.5 139.5t-108.5 220t-39 313v1586h195v-1612q0 -291 150.5 -430.5t485.5 -139.5q338 0 487 139t149 431v1612h195zM738 2572l291 370h256l-389 -370 h-158zM1183 2572l292 370h257l-390 -370h-159z" />
<glyph unicode="&#x171;" horiz-adv-x="2005" d="M261 618v1163h186v-1118q0 -72 3.5 -125.5t14 -106.5t28.5 -90.5t46.5 -72t69 -57t95.5 -39t126.5 -24t161.5 -7.5q121 0 285.5 29t256.5 68q6 180 6 296v1247h186v-1364q0 -145 -8 -295q-161 -66 -368.5 -106t-429.5 -40q-98 0 -180 10.5t-144.5 29t-112.5 48 t-84.5 62.5t-59.5 78t-40 88.5t-23.5 101t-11.5 108.5t-3 116zM655 2095l271 458h240l-363 -458h-148zM1070 2095l273 458h241l-365 -458h-149z" />
<glyph unicode="&#x178;" horiz-adv-x="1849" d="M702 2585q-56 0 -94.5 38.5t-38.5 94.5t38.5 94.5t94.5 38.5q55 0 93.5 -38.5t38.5 -94.5t-38.5 -94.5t-93.5 -38.5zM1187 2585q-56 0 -95 39t-39 94t39 94t95 39q55 0 93.5 -38.5t38.5 -94.5t-38.5 -94.5t-93.5 -38.5zM1019 908v-908h-198v908l-741 1422h215l629 -1215 l638 1215h207z" />
<glyph unicode="&#x179;" horiz-adv-x="1762" d="M1586 2132l-1222 -1964h1256v-168h-1376q-130 0 -130 83q0 45 43 115l1223 1964h-1186v168h1306q129 0 129 -83q0 -45 -43 -115zM750 2544l307 371h260l-398 -371h-169z" />
<glyph unicode="&#x17a;" horiz-adv-x="1716" d="M1528 1633l-1134 -1470h1111v-163h-1296q-44 0 -67.5 18.5t-23.5 48.5q0 39 33 81l1136 1473h-1089v160h1273q44 0 67 -18.5t23 -48.5q0 -38 -33 -81zM743 2066l287 458h242l-371 -458h-158z" />
<glyph unicode="&#x17b;" horiz-adv-x="1762" d="M1586 2132l-1221 -1964h1255v-168h-1376q-129 0 -129 83q0 47 43 115l1222 1964h-1186v168h1306q129 0 129 -83q0 -45 -43 -115zM889 2599q-58 0 -98.5 40.5t-40.5 98.5t40.5 98.5t98.5 40.5t98 -40.5t40 -98.5t-40 -98.5t-98 -40.5z" />
<glyph unicode="&#x17c;" horiz-adv-x="1716" d="M1528 1633l-1135 -1470h1112v-163h-1297q-44 0 -67 18.5t-23 48.5q0 37 33 81l1136 1473h-1089v160h1273q44 0 67 -18.5t23 -48.5q0 -38 -33 -81zM938 2100q-58 0 -98.5 40.5t-40.5 98.5t40.5 98.5t98.5 40.5t98 -40.5t40 -98.5t-40 -98.5t-98 -40.5z" />
<glyph unicode="&#x17d;" horiz-adv-x="1762" d="M1586 2132l-1221 -1964h1255v-168h-1376q-129 0 -129 83q0 45 43 115l1222 1964h-1185v168h1305q129 0 129 -83q0 -45 -43 -115zM489 2915h172l241 -275l244 275h167l-310 -371h-196z" />
<glyph unicode="&#x17e;" horiz-adv-x="1716" d="M1528 1633l-1134 -1470h1112v-163h-1297q-44 0 -67 18.5t-23 48.5q0 37 33 81l1135 1473h-1088v160h1272q44 0 67 -18.5t23 -48.5q0 -38 -33 -81zM482 2524h162l225 -340l227 340h158l-291 -458h-183z" />
<glyph unicode="&#x192;" horiz-adv-x="1487" d="M632 1380l59 422q30 216 177 349t372 133q70 0 150 -16l-21 -160q-41 10 -109 10q-170 0 -266.5 -101.5t-121.5 -283.5l-49 -353h444l-21 -157h-445l-150 -1078q-41 -290 -196.5 -444t-375.5 -154q-52 0 -82 5l22 158h28q155 0 269.5 107t143.5 315l151 1091h-377l21 157 h377z" />
<glyph unicode="&#x218;" horiz-adv-x="1714" d="M1031 2181q-129 0 -225 -9t-187 -34t-148.5 -67.5t-92 -113t-34.5 -167.5q0 -61 5 -108t20 -88t33.5 -70.5t54.5 -58.5t73 -49.5t99.5 -45t123.5 -44t155 -46.5q118 -34 207 -69.5t176.5 -91t143.5 -122t90.5 -162.5t34.5 -214q0 -175 -53 -299.5t-159 -200 t-254.5 -110.5t-349.5 -35q-182 0 -308.5 11.5t-265.5 39.5l20 165q277 -43 544 -43q115 0 204 11.5t170 42.5t133.5 81.5t83.5 132.5t31 192q0 64 -12.5 117.5t-33.5 95.5t-59 78t-79 63.5t-102.5 54t-121.5 47.5t-145 46q-76 23 -131 41t-117 41.5t-105 46t-89 52.5 t-76 62t-58 73t-44 88t-25.5 105t-9.5 125q0 136 33.5 239.5t97 173.5t161 114t217.5 63t275 19q282 0 567 -48l-18 -162q-245 37 -450 37zM1004 -211l-227 -651h-127l180 651h174z" />
<glyph unicode="&#x219;" horiz-adv-x="1552" d="M879 1640q-48 0 -78.5 -0.5t-78 -3.5t-79.5 -8t-72.5 -14.5t-68 -23.5t-56 -35t-45 -47.5t-27.5 -63.5t-11 -81q0 -69 20 -121t41.5 -82t86.5 -61t101 -43t140 -42q52 -16 80 -24q102 -31 174.5 -58t140 -61t111 -72t76.5 -86.5t48 -109t15 -136.5q0 -113 -33.5 -198.5 t-92 -140.5t-145.5 -89.5t-184.5 -48.5t-219.5 -14q-286 0 -548 54l20 153q242 -39 452 -39q52 0 82 0.5t83 3.5t85.5 8t78.5 16t75 26t61 38.5t50.5 53.5t30.5 71.5t12 91.5q0 35 -4 65t-14.5 56t-21.5 47t-33 40.5t-40.5 34t-52.5 31t-60 27.5t-72 26.5t-80.5 26 t-92.5 27.5q-195 58 -256 82q-181 74 -249 196q-53 93 -53 227q0 107 29.5 188t81 133.5t130 85t168.5 46t203 13.5q281 0 558 -55l-19 -151q-244 41 -447 41zM941 -204l-227 -651h-127l180 651h174z" />
<glyph unicode="&#x21a;" horiz-adv-x="1667" d="M1587 2330v-166h-655v-2164h-196v2164h-657v166h1508zM563 -852l180 651h174l-227 -651h-127z" />
<glyph unicode="&#x21b;" horiz-adv-x="1140" d="M426 2254l187 30v-503h408v-155h-408v-1158q0 -72 7.5 -124.5t25.5 -89.5t42 -60t63.5 -36t83.5 -17.5t107 -4.5q35 0 82 5l15 -149q-87 -16 -161 -16q-238 0 -345 108t-107 349v1193h-335v155h335v473zM478 -865l180 651h174l-228 -651h-126z" />
<glyph unicode="&#x2c6;" horiz-adv-x="1066" d="M438 2373h184l297 -458h-161l-226 340l-227 -340h-157z" />
<glyph unicode="&#x2c7;" horiz-adv-x="1014" d="M122 2373h161l226 -340l227 340h157l-290 -458h-184z" />
<glyph unicode="&#x2c9;" horiz-adv-x="1366" d="M241 2041v145h883v-145h-883z" />
<glyph unicode="&#x2d8;" horiz-adv-x="1073" d="M790 2333h131q-8 -81 -34 -147.5t-71.5 -119t-117 -82t-162.5 -29.5t-162 29.5t-116.5 82t-71.5 119t-34 147.5h130q15 -101 80 -168t174 -67t174 67t80 168z" />
<glyph unicode="&#x2d9;" horiz-adv-x="634" d="M318 2000q-58 0 -98.5 40.5t-40.5 98.5t40.5 98.5t98.5 40.5t98 -40.5t40 -98.5t-40 -98.5t-98 -40.5z" />
<glyph unicode="&#x2da;" horiz-adv-x="1004" d="M501 1861q-131 0 -224 93t-93 225q0 131 93 224t224 93q132 0 225 -93t93 -224q0 -132 -93 -225t-225 -93zM501 1981q83 0 141 57.5t58 140.5q0 82 -58 139.5t-141 57.5q-82 0 -139.5 -57.5t-57.5 -139.5q0 -83 57.5 -140.5t139.5 -57.5z" />
<glyph unicode="&#x2db;" horiz-adv-x="707" d="M598 -466l39 -101q-49 -37 -115.5 -58.5t-128.5 -21.5q-120 0 -197.5 69t-77.5 186q0 106 66 211t152 181h120q-179 -184 -179 -327q0 -80 47 -127.5t126 -47.5q84 0 148 36z" />
<glyph unicode="&#x2dc;" horiz-adv-x="1156" d="M831 2279h129q-14 -145 -77 -223.5t-143 -78.5q-50 0 -90 17t-65 40.5t-47 47.5t-47 41t-53 17q-87 0 -114 -155h-129q14 145 77 223t143 78q50 0 90 -17t65.5 -41t47.5 -47.5t46.5 -40.5t52.5 -17q88 0 114 156z" />
<glyph unicode="&#x2dd;" horiz-adv-x="1127" d="M125 1903l272 458h240l-364 -458h-148zM541 1903l273 458h240l-364 -458h-149z" />
<glyph unicode="&#x3a9;" horiz-adv-x="2441" d="M197 0v167h504q-201 181 -327.5 461.5t-126.5 614.5q0 241 76 449t207.5 352.5t314 227t389.5 82.5q172 0 325 -58.5t268.5 -162t200 -241.5t128 -301t43.5 -335q0 -176 -37 -344t-101.5 -305t-145.5 -248.5t-175 -191.5h504v-167h-763v137q80 54 154 126.5t143 174 t120 216.5t81.5 260t30.5 299q0 140 -30.5 277t-94.5 263t-154.5 222t-219.5 153t-280 57q-181 0 -331.5 -76t-251.5 -208t-156.5 -311t-55.5 -384q0 -181 46 -353.5t122.5 -307.5t169 -239t192.5 -169v-137h-769z" />
<glyph unicode="&#x3bc;" horiz-adv-x="1937" d="M328 -656v2437h179v-1165q0 -96 24 -178t71 -145.5t122 -99.5t170 -36q151 0 264 99t170 267t57 382v876h182v-1198v-76.5t1.5 -70t4 -67.5t8 -59t13 -55t19 -45t26 -40.5t34.5 -29.5t45 -22v-142q-67 0 -119 23.5t-85 60t-56 92t-34.5 109t-19.5 121.5l-2 1 q-63 -189 -202 -298t-304 -109q-120 0 -211 46t-179 148v-826h-178z" />
<glyph unicode="&#x3c0;" horiz-adv-x="2268" d="M2143 1610h-454q-62 -355 -62 -780q0 -353 102 -519t335 -166l-14 -169q-144 0 -252 37t-174 99.5t-106.5 157.5t-55.5 197.5t-15 233.5q0 442 76 909h-738q-34 -576 -86 -999t-110 -611h-215q94 316 147.5 684.5t97.5 927.5h-155q-93 0 -167.5 -16t-169.5 -60l-46 106 q139 139 464 139h1619z" />
<glyph unicode="&#x200a;" horiz-adv-x="73" />
<glyph unicode="&#x2010;" horiz-adv-x="1348" d="M248 801v169h852v-169h-852z" />
<glyph unicode="&#x2013;" horiz-adv-x="2103" d="M248 808v156h1607v-156h-1607z" />
<glyph unicode="&#x2014;" horiz-adv-x="3656" d="M248 808v156h3160v-156h-3160z" />
<glyph unicode="&#x2018;" horiz-adv-x="688" d="M150 1675l278 794h157l-220 -794h-215z" />
<glyph unicode="&#x2019;" horiz-adv-x="687" d="M150 1675l219 794h215l-278 -794h-156z" />
<glyph unicode="&#x201a;" horiz-adv-x="678" d="M90 -415l219 794h215l-278 -794h-156z" />
<glyph unicode="&#x201c;" horiz-adv-x="1116" d="M150 1675l278 794h156l-218 -794h-216zM579 1675l278 794h156l-219 -794h-215z" />
<glyph unicode="&#x201d;" horiz-adv-x="1116" d="M150 1675l219 794h215l-278 -794h-156zM579 1675l218 794h216l-278 -794h-156z" />
<glyph unicode="&#x201e;" horiz-adv-x="1108" d="M90 -415l220 794h215l-278 -794h-157zM520 -415l218 794h216l-278 -794h-156z" />
<glyph unicode="&#x2020;" horiz-adv-x="1781" d="M791 1680v696h186v-696h665v-166h-665v-1934h-186v1934h-651v166h651z" />
<glyph unicode="&#x2021;" horiz-adv-x="1870" d="M843 -420v1193h-656v166h656v651h-656v167h656v619h185v-619h654v-167h-654v-651h654v-166h-654v-1193h-185z" />
<glyph unicode="&#x2022;" horiz-adv-x="1321" d="M660 667q-187 0 -319.5 132.5t-132.5 319.5t132 319.5t320 132.5q187 0 319.5 -132.5t132.5 -319.5q0 -122 -60.5 -226.5t-165 -165t-226.5 -60.5z" />
<glyph unicode="&#x2026;" horiz-adv-x="2821" d="M344 -24q-66 0 -89 33t-23 120t24 122t88 35t88 -35t24 -122t-23 -120t-89 -33zM1411 -24q-66 0 -89 33t-23 120t24 122t88 35t87.5 -35t23.5 -122t-23 -120t-88 -33zM2477 -24q-66 0 -89 33t-23 120t24 122t88 35t88 -35t24 -122t-23 -120t-89 -33z" />
<glyph unicode="&#x2030;" horiz-adv-x="3827" d="M655 974q-85 0 -152.5 14t-118 40.5t-86.5 70.5t-60 97t-38 126.5t-19.5 153t-5.5 182.5t5.5 182.5t19.5 153t38 126.5t60 97t86.5 70.5t118 40.5t152.5 14q119 0 203 -28t138 -79.5t85 -138.5t43 -189.5t12 -248.5t-12 -248.5t-43 -189.5t-85 -138.5t-138 -79.5 t-203 -28zM655 1096q79 0 137.5 17t95 56.5t58.5 81.5t32 115.5t13 133t3 158.5t-3 158.5t-13 133t-32 115.5t-58.5 81.5t-95 56.5t-137.5 17q-48 0 -88.5 -6.5t-71.5 -20.5t-56 -31t-43.5 -44.5t-31.5 -53.5t-21.5 -65.5t-14 -72.5t-8 -82.5t-3 -88.5t-0.5 -97 q0 -120 4 -188.5t22 -150t53 -123.5t99.5 -71t159.5 -29zM2029 -12q-119 0 -203 28t-137.5 79.5t-84.5 138.5t-42.5 190t-11.5 249t11.5 248t42.5 189t84.5 138.5t137.5 79.5t203 28t204 -28t139 -79.5t85 -138.5t43 -189.5t12 -247.5q0 -103 -6 -183t-20 -153.5t-38 -126.5 t-61 -97t-87.5 -70.5t-118 -40.5t-152.5 -14zM2029 110q53 0 97 9t77 23.5t58.5 40t43 52t30 67.5t19.5 76.5t10.5 89.5t4.5 97.5t1 107.5t-1 107t-4.5 97t-10.5 89.5t-19 76.5t-30 67.5t-43.5 52.5t-58.5 40t-76.5 23t-97.5 9q-68 0 -120.5 -15t-88 -37.5t-60 -65 t-38 -82.5t-20.5 -106.5t-8.5 -119t-1.5 -136.5q0 -65 1 -107.5t4.5 -97t10 -90t18.5 -77t29.5 -67t42.5 -52t58 -40.5t76.5 -23t96.5 -9zM3156 -12q-119 0 -203 28t-137.5 79.5t-84.5 138.5t-42.5 190t-11.5 249t11.5 248t42.5 189t84.5 138.5t137.5 79.5t203 28 q100 0 175 -18t128 -57.5t88 -93.5t55 -134t28 -169.5t8 -210.5q0 -103 -5.5 -183t-20 -153.5t-38.5 -126.5t-60.5 -97t-87 -70.5t-118 -40.5t-152.5 -14zM3156 110q53 0 97 9t77 23.5t58.5 40t43 52t29.5 67.5t19 76.5t10.5 89.5t4.5 97.5t1 107.5t-1 107t-4.5 97t-10.5 90 t-19 76.5t-29.5 67t-43 52t-58.5 40t-77 23.5t-97 9t-96.5 -9t-76.5 -23t-58.5 -40.5t-42.5 -52t-29 -67t-18.5 -76.5t-10 -89.5t-4.5 -97t-1 -107.5t1 -107.5t4.5 -97t10 -90t18.5 -77t29 -67t42.5 -52t58.5 -40.5t76.5 -23t96.5 -9zM573 -48l1367 2426h172l-1369 -2426 h-170z" />
<glyph unicode="&#x2039;" horiz-adv-x="970" d="M370 862l415 -643h-197l-455 643l455 644h197z" />
<glyph unicode="&#x203a;" horiz-adv-x="970" d="M837 862l-456 -643h-197l416 643l-415 644h196z" />
<glyph unicode="&#x2044;" horiz-adv-x="504" d="M-518 -48l1368 2426h172l-1369 -2426h-171z" />
<glyph unicode="&#x2070;" horiz-adv-x="1252" d="M626 1354q-85 0 -152.5 14.5t-117.5 41t-86.5 70t-60.5 96.5t-38 127t-19.5 153.5t-5.5 182.5t5.5 182.5t19.5 153t38 126.5t60.5 96.5t86.5 70t117.5 41t152.5 14.5q119 0 203 -28t138 -79.5t85 -138.5t43 -190t12 -248q0 -146 -12 -248.5t-43 -189.5t-85 -139t-138 -80 t-203 -28zM626 1477q53 0 96.5 9t76.5 23t58.5 40t43 52t29.5 67t19 76.5t10.5 89.5t4.5 97.5t1 107.5t-1 107t-4.5 97t-10.5 90t-19 76.5t-29.5 67t-43 52t-58.5 40t-76.5 23.5t-96.5 9q-48 0 -88.5 -6.5t-71.5 -20.5t-56 -31t-43.5 -44.5t-31.5 -53.5t-21.5 -65.5 t-14 -72.5t-8 -82.5t-3 -88.5t-0.5 -97q0 -65 1 -107.5t4.5 -97t10 -90t18.5 -76.5t29.5 -67t43 -52t58.5 -40t76.5 -23t96.5 -9z" />
<glyph unicode="&#x2074;" horiz-adv-x="1184" d="M765 1366v325h-580q-67 0 -93 25t-26 68q0 48 68 135l555 717q66 85 135 85q37 0 59.5 -24t22.5 -74v-815h186v-117h-186v-325h-141zM765 2524l-551 -716h551v716z" />
<glyph unicode="&#x2075;" horiz-adv-x="1084" d="M300 2586l-28 -413q76 6 141 6q76 0 135 -3.5t120 -14.5t105.5 -29t84.5 -48t65 -71.5t39.5 -99.5t14.5 -132q0 -225 -122 -324.5t-366 -99.5q-191 0 -391 38l17 118q177 -29 324 -29q216 0 305 66t89 244q0 68 -22 116t-59 76t-98.5 44.5t-125.5 21.5t-156 5 q-135 0 -246 -7l45 661h768v-125h-639z" />
<glyph unicode="&#x2076;" horiz-adv-x="1207" d="M636 2190q115 0 196 -18t144.5 -62.5t94.5 -126.5t31 -204q0 -125 -34.5 -210t-103 -131.5t-155 -65.5t-206.5 -19q-112 0 -194.5 25.5t-134.5 70.5t-83 115.5t-43 150.5t-12 187q0 163 12.5 278.5t45.5 211t86.5 155.5t138.5 101t197.5 57.5t268.5 16.5q39 0 108 -2 l12 -118q-222 -7 -278 -13q-216 -22 -317 -120q-105 -102 -121 -305q232 26 347 26zM596 2071q-76 0 -316 -30q-4 -56 -4 -166q0 -68 6 -120t26 -107t54 -90.5t94 -58.5t142 -23q201 0 282 69.5t81 236.5q0 72 -15.5 123.5t-43 83.5t-74.5 50.5t-101 25t-131 6.5z" />
<glyph unicode="&#x2077;" horiz-adv-x="1005" d="M931 2575l-556 -1206h-157l573 1217h-745v123h790q111 0 111 -76q0 -24 -16 -58z" />
<glyph unicode="&#x2078;" horiz-adv-x="1217" d="M607 2723q221 0 342 -84t121 -245q0 -119 -44 -197.5t-154 -131.5q220 -94 220 -337q0 -89 -26 -156t-69 -108t-107 -66t-131.5 -34.5t-151.5 -9.5q-108 0 -192 18.5t-151 60.5t-102.5 116.5t-35.5 179.5q0 243 217 336q-106 52 -150.5 131t-44.5 198q0 162 118 245.5 t341 83.5zM607 1476q61 0 109 6t93.5 23.5t75.5 45.5t48 74.5t18 109.5q0 134 -92 193.5t-271 72.5q-75 -9 -129 -24.5t-100 -44.5t-69 -78.5t-23 -118.5q0 -76 26 -128.5t75.5 -80t106.5 -39t132 -11.5zM627 2120q53 8 94.5 18.5t82.5 30t67.5 45.5t43 65.5t16.5 89.5 q0 69 -25.5 117t-72.5 72.5t-101 34.5t-125 10q-70 0 -123 -10t-100 -34.5t-72 -72t-25 -117.5q0 -223 340 -249z" />
<glyph unicode="&#x2079;" horiz-adv-x="1205" d="M564 1887q-91 0 -160 10.5t-129 38t-97.5 73.5t-59 118.5t-21.5 170.5q0 100 23.5 175t65 122.5t105.5 76.5t137.5 40.5t168.5 11.5q112 0 194.5 -25.5t134.5 -70.5t83 -115.5t43 -150.5t12 -187q0 -163 -12.5 -278.5t-45.5 -211t-86.5 -155.5t-138.5 -101t-197.5 -57.5 t-268.5 -16.5q-39 0 -108 2l-12 118q222 7 278 13q216 23 317 121q105 102 120 304q-230 -26 -346 -26zM604 2006q76 0 316 30q4 56 4 166q0 68 -6 120t-26 107t-54 90.5t-94 58.5t-142 23q-201 0 -282 -69.5t-81 -236.5q0 -72 15.5 -123.5t43 -83.5t74.5 -50.5t101 -25 t131 -6.5z" />
<glyph unicode="&#x2080;" horiz-adv-x="1252" d="M626 -394q-85 0 -152.5 14.5t-117.5 41t-86.5 70t-60.5 96.5t-38 127t-19.5 153.5t-5.5 182.5t5.5 182.5t19.5 153t38 126.5t60.5 96.5t86.5 70t117.5 41t152.5 14.5q119 0 203 -28t138 -79.5t85 -138.5t43 -190t12 -248q0 -146 -12 -248.5t-43 -189.5t-85 -139t-138 -80 t-203 -28zM626 -271q53 0 96.5 9t76.5 23t58.5 40t43 52t29.5 67t19 76.5t10.5 89.5t4.5 97.5t1 107.5t-1 107t-4.5 97t-10.5 90t-19 76.5t-29.5 67t-43 52t-58.5 40t-76.5 23.5t-96.5 9q-48 0 -88.5 -6.5t-71.5 -20.5t-56 -31t-43.5 -44.5t-31.5 -53.5t-21.5 -65.5 t-14 -72.5t-8 -82.5t-3 -88.5t-0.5 -97q0 -65 1 -107.5t4.5 -97t10 -90t18.5 -76.5t29.5 -67t43 -52t58.5 -40t76.5 -23t96.5 -9z" />
<glyph unicode="&#x2081;" horiz-adv-x="706" d="M384 -375v1184q-165 -47 -336 -74l-7 121q206 33 376 109h107v-1340h-140z" />
<glyph unicode="&#x2082;" horiz-adv-x="1062" d="M117 818l-14 116q223 39 400 39q457 0 457 -316q0 -121 -49 -215t-132 -156.5t-208 -114.5q-84 -35 -141 -76t-92.5 -95t-54 -113t-31.5 -143h708v-126h-877q23 129 41.5 207t48 154.5t70 124.5t100.5 90.5t147 79.5q152 65 240 148.5t88 202.5q0 124 -83.5 173.5 t-282.5 49.5q-132 0 -335 -30z" />
<glyph unicode="&#x2083;" horiz-adv-x="1068" d="M446 975q80 0 144 -7t127.5 -28t106 -55t68.5 -92t26 -136q0 -241 -192 -330q89 -34 152 -115.5t63 -199.5q0 -92 -23 -162t-64.5 -116t-105.5 -75t-139.5 -41t-172.5 -12q-192 0 -372 37l17 118q226 -30 316 -30q209 0 303.5 59.5t94.5 211.5q0 107 -65 172t-170 77 q-63 7 -167 7q-72 0 -110 -1v115q142 1 276 21q100 16 158 79.5t58 152.5q0 51 -11 89t-35 62.5t-52 40t-73 22.5t-85.5 9.5t-100.5 2.5q-137 0 -326 -29l-15 116q196 37 369 37z" />
<glyph unicode="&#x2084;" horiz-adv-x="1184" d="M765 -382v325h-580q-67 0 -93 25t-26 68q0 48 68 135l555 717q66 85 135 85q37 0 59.5 -24t22.5 -74v-815h186v-117h-186v-325h-141zM765 776l-551 -716h551v716z" />
<glyph unicode="&#x2085;" horiz-adv-x="1084" d="M300 838l-28 -413q76 6 141 6q76 0 135 -3.5t120 -14.5t105.5 -29t84.5 -48t65 -71.5t39.5 -99.5t14.5 -132q0 -225 -122 -324.5t-366 -99.5q-191 0 -391 38l17 118q177 -29 324 -29q216 0 305 66t89 244q0 68 -22 116t-59 76t-98.5 44.5t-125.5 21.5t-156 5 q-135 0 -246 -7l45 661h768v-125h-639z" />
<glyph unicode="&#x2086;" horiz-adv-x="1207" d="M636 442q115 0 196 -18t144.5 -62.5t94.5 -126.5t31 -204q0 -125 -34.5 -210t-103 -131.5t-155 -65.5t-206.5 -19q-112 0 -194.5 25.5t-134.5 70.5t-83 115.5t-43 150.5t-12 187q0 163 12.5 278.5t45.5 211t86.5 155.5t138.5 101t197.5 57.5t268.5 16.5q39 0 108 -2 l12 -118q-222 -7 -278 -13q-216 -22 -317 -120q-105 -102 -121 -305q232 26 347 26zM596 323q-76 0 -316 -30q-4 -56 -4 -166q0 -68 6 -120t26 -107t54 -90.5t94 -58.5t142 -23q201 0 282 69.5t81 236.5q0 72 -15.5 123.5t-43 83.5t-74.5 50.5t-101 25t-131 6.5z" />
<glyph unicode="&#x2087;" horiz-adv-x="1005" d="M931 827l-556 -1206h-157l573 1217h-745v123h790q111 0 111 -76q0 -24 -16 -58z" />
<glyph unicode="&#x2088;" horiz-adv-x="1217" d="M607 975q221 0 342 -84t121 -245q0 -119 -44 -197.5t-154 -131.5q220 -94 220 -337q0 -89 -26 -156t-69 -108t-107 -66t-131.5 -34.5t-151.5 -9.5q-108 0 -192 18.5t-151 60.5t-102.5 116.5t-35.5 179.5q0 243 217 336q-106 52 -150.5 131t-44.5 198q0 162 118 245.5 t341 83.5zM607 -272q61 0 109 6t93.5 23.5t75.5 45.5t48 74.5t18 109.5q0 134 -92 193.5t-271 72.5q-75 -9 -129 -24.5t-100 -44.5t-69 -78.5t-23 -118.5q0 -76 26 -128.5t75.5 -80t106.5 -39t132 -11.5zM627 372q53 8 94.5 18.5t82.5 30t67.5 45.5t43 65.5t16.5 89.5 q0 69 -25.5 117t-72.5 72.5t-101 34.5t-125 10q-70 0 -123 -10t-100 -34.5t-72 -72t-25 -117.5q0 -223 340 -249z" />
<glyph unicode="&#x2089;" horiz-adv-x="1205" d="M564 139q-91 0 -160 10.5t-129 38t-97.5 73.5t-59 118.5t-21.5 170.5q0 100 23.5 175t65 122.5t105.5 76.5t137.5 40.5t168.5 11.5q112 0 194.5 -25.5t134.5 -70.5t83 -115.5t43 -150.5t12 -187q0 -163 -12.5 -278.5t-45.5 -211t-86.5 -155.5t-138.5 -101t-197.5 -57.5 t-268.5 -16.5q-39 0 -108 2l-12 118q222 7 278 13q216 23 317 121q105 102 120 304q-230 -26 -346 -26zM604 258q76 0 316 30q4 56 4 166q0 68 -6 120t-26 107t-54 90.5t-94 58.5t-142 23q-201 0 -282 -69.5t-81 -236.5q0 -72 15.5 -123.5t43 -83.5t74.5 -50.5t101 -25 t131 -6.5z" />
<glyph unicode="&#x20ac;" horiz-adv-x="1725" d="M603 1415h791l-32 -144h-764q-1 -46 -1 -141q0 -78 1 -115h706l-31 -143h-670q8 -151 28.5 -261t63.5 -202.5t111.5 -148.5t171 -87t242.5 -31q144 0 352 36l15 -154q-209 -48 -422 -48q-203 0 -342 51.5t-226.5 165t-130.5 276.5t-56 403h-253l32 143h216q-1 37 -1 115 q0 95 1 141h-228l32 144h203q14 232 58 390.5t132 268.5t225.5 160t337.5 50q219 0 422 -45l-16 -158q-208 37 -351 37q-141 0 -243.5 -30t-170.5 -84t-111 -143.5t-63.5 -194.5t-28.5 -251z" />
<glyph unicode="&#x2113;" horiz-adv-x="1571" d="M404 887q0 157 2 270.5t8.5 250t18 233.5t32 204t49 180.5t70.5 143t95.5 111t124 66t155.5 24.5t151.5 -36t107.5 -98.5t62 -143t21 -173.5q0 -116 -40.5 -239.5t-106.5 -233t-160 -222.5t-191 -206.5t-209 -185.5q10 -144 27.5 -249.5t48.5 -194.5t75.5 -143.5 t110 -84.5t151.5 -30q57 0 106 14t95 45t79.5 60.5t83.5 81.5l78 -92q-193 -263 -488 -263q-111 0 -200.5 40.5t-149 108.5t-103 165.5t-67 200.5t-34.5 225l-237 -146l-54 114zM590 1016q133 125 226 229.5t169 218.5t113.5 229.5t37.5 235.5q0 55 -9.5 104.5t-30 95 t-59.5 72t-93 26.5q-56 0 -102.5 -24t-79.5 -64t-60 -101.5t-43.5 -125.5t-29 -147t-18.5 -156t-10 -162.5t-5 -156t-2.5 -147.5t-3.5 -127z" />
<glyph unicode="&#x2122;" horiz-adv-x="3255" d="M2954 934h-157v1228l-2 1l-541 -1229h-107l-539 1230l-2 -1v-1229h-157v1396h253l505 -1151l496 1151h251v-1396zM1236 2330v-138h-464v-1258h-154v1258h-464v138h1082z" />
<glyph unicode="&#x2126;" horiz-adv-x="2441" d="M197 0v167h504q-201 181 -327.5 461.5t-126.5 614.5q0 241 76 449t207.5 352.5t314 227t389.5 82.5q172 0 325 -58.5t268.5 -162t200 -241.5t128 -301t43.5 -335q0 -176 -37 -344t-101.5 -305t-145.5 -248.5t-175 -191.5h504v-167h-763v137q80 54 154 126.5t143 174 t120 216.5t81.5 260t30.5 299q0 140 -30.5 277t-94.5 263t-154.5 222t-219.5 153t-280 57q-181 0 -331.5 -76t-251.5 -208t-156.5 -311t-55.5 -384q0 -181 46 -353.5t122.5 -307.5t169 -239t192.5 -169v-137h-769z" />
<glyph unicode="&#x212e;" horiz-adv-x="2789" d="M2252 496h206q-99 -120 -206 -212t-236 -163t-283.5 -108t-329.5 -37q-266 0 -493 84t-384 229.5t-246 348t-89 433.5q0 144 38.5 282t109.5 259.5t178.5 223.5t239.5 175t297.5 114t348.5 41q224 0 413 -54t328.5 -151.5t241 -234.5t159 -301.5t74.5 -353.5h-1898v-741 q280 -236 682 -236q534 0 849 402zM721 1809v-619h1368v619q-302 240 -686 240q-404 0 -682 -240z" />
<glyph unicode="&#x2190;" horiz-adv-x="2353" d="M502 890l596 -689h-206l-720 777l720 778h206l-596 -689h1679v-177h-1679z" />
<glyph unicode="&#x2191;" horiz-adv-x="1900" d="M1039 1653v-1680h-177v1680l-690 -597v206l778 721l778 -721v-206z" />
<glyph unicode="&#x2192;" horiz-adv-x="2354" d="M2182 978l-721 -777h-207l597 689h-1679v177h1679l-597 689h207z" />
<glyph unicode="&#x2193;" horiz-adv-x="1900" d="M1728 901v-206l-777 -722l-779 722v206l690 -597v1679h177v-1679z" />
<glyph unicode="&#x21e8;" horiz-adv-x="2665" d="M1552 525h-1363v908h1363v555l1043 -1009l-1043 -1010v556zM2364 979l-649 617v-326h-1365v-582h1365v-326z" />
<glyph unicode="&#x2202;" horiz-adv-x="1746" d="M718 -24q-136 0 -244.5 55t-175.5 149t-102.5 213.5t-35.5 254.5q0 175 47 322.5t134 254t217.5 166t291.5 59.5q163 0 296 -82.5t193 -183.5l2 1q-1 537 -139.5 794t-446.5 257q-99 0 -174.5 -25.5t-159.5 -74.5l-39 128q187 129 442 129q177 0 312 -81t219 -230.5 t126 -352t42 -454.5q0 -285 -54.5 -524t-156 -411t-254 -268t-340.5 -96zM870 1301q-122 0 -222 -53.5t-163.5 -144.5t-98 -207.5t-34.5 -246.5q0 -81 15.5 -157t48 -143t78 -117.5t110.5 -80t142 -29.5q107 0 198 52t154.5 138t111 201t73.5 235.5t36 247.5 q-176 305 -449 305z" />
<glyph unicode="&#x2206;" horiz-adv-x="2109" d="M1976 152v-152h-1841v146l806 2184h246zM1768 165l-711 1971l-720 -1971h1431z" />
<glyph unicode="&#x220f;" horiz-adv-x="2574" d="M2442 2400v-176h-399v-2669h-192v2669h-1124v-2669h-192v2669h-403v176h2310z" />
<glyph unicode="&#x2211;" horiz-adv-x="1980" d="M149 2400h1666v-168h-1410l928 -1225l-983 -1270h1521v-182h-1762v157l983 1274l-943 1265v149z" />
<glyph unicode="&#x2212;" horiz-adv-x="1949" d="M172 890v177h1605v-177h-1605z" />
<glyph unicode="&#x2215;" horiz-adv-x="504" d="M-518 -48l1368 2426h172l-1369 -2426h-171z" />
<glyph unicode="&#x2219;" horiz-adv-x="709" d="M354 800q-66 0 -89 33.5t-23 119.5q0 87 24 122.5t88 35.5t88 -35.5t24 -122.5q0 -86 -23 -119.5t-89 -33.5z" />
<glyph unicode="&#x221a;" horiz-adv-x="1818" d="M1712 2819l-680 -2981h-201l-482 1403l-228 -90l-46 147l411 162l437 -1356l610 2715h179z" />
<glyph unicode="&#x221e;" horiz-adv-x="2661" d="M655 1482q290 0 566 -356q52 66 87.5 108.5t85 98t88.5 90.5t89 73t96 59t100.5 34.5t110.5 13.5q127 0 232.5 -51.5t174 -138.5t105.5 -199t37 -235t-37 -235.5t-105.5 -199.5t-174 -139t-232.5 -52q-57 0 -112 14.5t-100.5 35.5t-97 60t-89 72.5t-88.5 90.5t-84 96.5 t-86 106.5q-130 -171 -274.5 -260.5t-291.5 -89.5q-129 0 -235.5 71t-164.5 185.5t-58 243.5q0 130 58 244.5t164.5 186.5t235.5 72zM655 650q106 0 216 73.5t252 255.5q-143 183 -253 257.5t-215 74.5q-126 0 -209 -90t-83 -242t82.5 -240.5t209.5 -88.5zM1878 528 q165 0 268.5 118.5t103.5 332.5q0 213 -103.5 332t-268.5 119q-65 0 -134 -31.5t-124 -76t-114 -110.5t-97 -117.5t-81 -115.5q42 -63 80.5 -115.5t97.5 -118t114 -110.5t124 -76t134 -31z" />
<glyph unicode="&#x222b;" horiz-adv-x="1129" d="M1139 2491q-26 18 -68.5 31t-80.5 13q-68 0 -123 -23.5t-91 -60t-63 -93t-41 -110.5t-22.5 -125t-10.5 -124.5t-2 -119.5q0 -264 30 -806t30 -822q0 -74 -6.5 -147.5t-23.5 -154.5t-42.5 -152t-66.5 -136.5t-93 -112t-125 -74.5t-159 -28q-63 0 -137.5 19t-113.5 41 l42 163q101 -53 196 -53q115 0 191.5 82t111.5 224t35 341q0 255 -29 820.5t-29 818.5q0 83 6 158.5t22 157.5t41.5 150t67 130.5t96 105.5t132 68.5t170.5 25.5q50 0 113 -16.5t89 -35.5z" />
<glyph unicode="&#x2248;" horiz-adv-x="2176" d="M1909 798v-180q-79 -84 -202 -127t-250 -43q-85 0 -165 21.5t-143.5 52t-127 61.5t-141.5 52.5t-161 21.5q-127 0 -250 -43t-202 -127v180q79 84 202 127t250 43q85 0 165 -21.5t143.5 -52.5t127 -61.5t141.5 -52t161 -21.5q127 0 250 43t202 127zM1909 1470v-181 q-79 -84 -202 -127t-250 -43q-85 0 -165 21.5t-143.5 52.5l-127 62t-141.5 52.5t-161 21.5q-127 0 -250 -43t-202 -127v180q79 84 202 127t250 43q85 0 165 -21.5t143.5 -52t127 -61.5t141.5 -52.5t161 -21.5q127 0 250 43t202 127z" />
<glyph unicode="&#x2260;" horiz-adv-x="2140" d="M267 553v176h618l218 497h-836v175h913l254 578h150l-254 -578h543v-175h-620l-218 -497h838v-176h-915l-252 -575h-150l252 575h-541z" />
<glyph unicode="&#x2264;" horiz-adv-x="2030" d="M221 1083v175l1555 693v-199l-1340 -582l1340 -581v-198zM221 6v177h1555v-177h-1555z" />
<glyph unicode="&#x2265;" horiz-adv-x="2030" d="M254 589l1339 581l-1339 582v199l1555 -693v-175l-1555 -692v198zM254 6v177h1555v-177h-1555z" />
<glyph unicode="&#x25ca;" horiz-adv-x="1731" d="M1571 1168l-603 -1222h-204l-604 1222l604 1217h204zM865 120l506 1048l-506 1049l-505 -1049z" />
<glyph unicode="&#xe000;" horiz-adv-x="1780" d="M0 1780h1780v-1780h-1780v1780z" />
<glyph horiz-adv-x="1252" d="M626 973q-85 0 -152.5 14.5t-117.5 41t-86.5 70t-60.5 96.5t-38 127t-19.5 153.5t-5.5 182.5t5.5 182.5t19.5 153t38 126.5t60.5 96.5t86.5 70t117.5 41t152.5 14.5q119 0 203 -28t138 -79.5t85 -138.5t43 -190t12 -248q0 -146 -12 -248.5t-43 -189.5t-85 -139t-138 -80 t-203 -28zM626 1096q53 0 96.5 9t76.5 23t58.5 40t43 52t29.5 67t19 76.5t10.5 89.5t4.5 97.5t1 107.5t-1 107t-4.5 97t-10.5 90t-19 76.5t-29.5 67t-43 52t-58.5 40t-76.5 23.5t-96.5 9q-48 0 -88.5 -6.5t-71.5 -20.5t-56 -31t-43.5 -44.5t-31.5 -53.5t-21.5 -65.5 t-14 -72.5t-8 -82.5t-3 -88.5t-0.5 -97q0 -65 1 -107.5t4.5 -97t10 -90t18.5 -76.5t29.5 -67t43 -52t58.5 -40t76.5 -23t96.5 -9z" />
<glyph horiz-adv-x="706" d="M384 992v1184q-165 -47 -336 -74l-7 121q206 33 376 109h107v-1340h-140z" />
<glyph horiz-adv-x="1062" d="M117 2185l-14 116q223 39 400 39q457 0 457 -316q0 -121 -49 -215t-132 -156.5t-208 -114.5q-84 -35 -141 -76t-92.5 -95t-54 -113t-31.5 -143h708v-126h-877q23 129 41.5 207t48 154.5t70 124.5t100.5 90.5t147 79.5q152 65 240 148.5t88 202.5q0 124 -83.5 173.5 t-282.5 49.5q-132 0 -335 -30z" />
<glyph horiz-adv-x="1068" d="M446 2342q80 0 144 -7t127.5 -28t106 -55t68.5 -92t26 -136q0 -241 -192 -330q89 -34 152 -115.5t63 -199.5q0 -92 -23 -162t-64.5 -116t-105.5 -75t-139.5 -41t-172.5 -12q-192 0 -372 37l17 118q226 -30 316 -30q209 0 303.5 59.5t94.5 211.5q0 107 -65 172t-170 77 q-63 7 -167 7q-72 0 -110 -1v115q142 1 276 21q100 16 158 79.5t58 152.5q0 51 -11 89t-35 62.5t-52 40t-73 22.5t-85.5 9.5t-100.5 2.5q-137 0 -326 -29l-15 116q196 37 369 37z" />
<glyph horiz-adv-x="1184" d="M765 985v325h-580q-67 0 -93 25t-26 68q0 48 68 135l555 717q66 85 135 85q37 0 59.5 -24t22.5 -74v-815h186v-117h-186v-325h-141zM765 2143l-551 -716h551v716z" />
<glyph horiz-adv-x="1084" d="M300 2205l-28 -413q76 6 141 6q76 0 135 -3.5t120 -14.5t105.5 -29t84.5 -48t65 -71.5t39.5 -99.5t14.5 -132q0 -225 -122 -324.5t-366 -99.5q-191 0 -391 38l17 118q177 -29 324 -29q216 0 305 66t89 244q0 68 -22 116t-59 76t-98.5 44.5t-125.5 21.5t-156 5 q-135 0 -246 -7l45 661h768v-125h-639z" />
<glyph horiz-adv-x="1207" d="M636 1809q115 0 196 -18t144.5 -62.5t94.5 -126.5t31 -204q0 -125 -34.5 -210t-103 -131.5t-155 -65.5t-206.5 -19q-112 0 -194.5 25.5t-134.5 70.5t-83 115.5t-43 150.5t-12 187q0 163 12.5 278.5t45.5 211t86.5 155.5t138.5 101t197.5 57.5t268.5 16.5q39 0 108 -2 l12 -118q-222 -7 -278 -13q-216 -22 -317 -120q-105 -102 -121 -305q232 26 347 26zM596 1690q-76 0 -316 -30q-4 -56 -4 -166q0 -68 6 -120t26 -107t54 -90.5t94 -58.5t142 -23q201 0 282 69.5t81 236.5q0 72 -15.5 123.5t-43 83.5t-74.5 50.5t-101 25t-131 6.5z" />
<glyph horiz-adv-x="1005" d="M931 2194l-556 -1206h-157l573 1217h-745v123h790q111 0 111 -76q0 -24 -16 -58z" />
<glyph horiz-adv-x="1217" d="M607 2342q221 0 342 -84t121 -245q0 -119 -44 -197.5t-154 -131.5q220 -94 220 -337q0 -89 -26 -156t-69 -108t-107 -66t-131.5 -34.5t-151.5 -9.5q-108 0 -192 18.5t-151 60.5t-102.5 116.5t-35.5 179.5q0 243 217 336q-106 52 -150.5 131t-44.5 198q0 162 118 245.5 t341 83.5zM607 1095q61 0 109 6t93.5 23.5t75.5 45.5t48 74.5t18 109.5q0 134 -92 193.5t-271 72.5q-75 -9 -129 -24.5t-100 -44.5t-69 -78.5t-23 -118.5q0 -76 26 -128.5t75.5 -80t106.5 -39t132 -11.5zM627 1739q53 8 94.5 18.5t82.5 30t67.5 45.5t43 65.5t16.5 89.5 q0 69 -25.5 117t-72.5 72.5t-101 34.5t-125 10q-70 0 -123 -10t-100 -34.5t-72 -72t-25 -117.5q0 -224 340 -249z" />
<glyph horiz-adv-x="1205" d="M564 1506q-91 0 -160 10.5t-129 38t-97.5 73.5t-59 118.5t-21.5 170.5q0 100 23.5 175t65 122.5t105.5 76.5t137.5 40.5t168.5 11.5q112 0 194.5 -25.5t134.5 -70.5t83 -115.5t43 -150.5t12 -187q0 -163 -12.5 -278.5t-45.5 -211t-86.5 -155.5t-138.5 -101t-197.5 -57.5 t-268.5 -16.5q-39 0 -108 2l-12 118q222 7 278 13q216 23 317 121q105 102 120 304q-230 -26 -346 -26zM604 1625q76 0 316 30q4 56 4 166q0 68 -6 120t-26 107t-54 90.5t-94 58.5t-142 23q-201 0 -282 -69.5t-81 -236.5q0 -72 15.5 -123.5t43 -83.5t74.5 -50.5t101 -25 t131 -6.5z" />
<glyph horiz-adv-x="1252" d="M626 -12q-85 0 -152.5 14.5t-117.5 41t-86.5 70t-60.5 96.5t-38 127t-19.5 153.5t-5.5 182.5t5.5 182.5t19.5 153t38 126.5t60.5 96.5t86.5 70t117.5 41t152.5 14.5q119 0 203 -28t138 -79.5t85 -138.5t43 -190t12 -248q0 -146 -12 -248.5t-43 -189.5t-85 -139t-138 -80 t-203 -28zM626 111q53 0 96.5 9t76.5 23t58.5 40t43 52t29.5 67t19 76.5t10.5 89.5t4.5 97.5t1 107.5t-1 107t-4.5 97t-10.5 90t-19 76.5t-29.5 67t-43 52t-58.5 40t-76.5 23.5t-96.5 9q-48 0 -88.5 -6.5t-71.5 -20.5t-56 -31t-43.5 -44.5t-31.5 -53.5t-21.5 -65.5 t-14 -72.5t-8 -82.5t-3 -88.5t-0.5 -97q0 -65 1 -107.5t4.5 -97t10 -90t18.5 -76.5t29.5 -67t43 -52t58.5 -40t76.5 -23t96.5 -9z" />
<glyph horiz-adv-x="706" d="M384 7v1184q-165 -47 -336 -74l-7 121q206 33 376 109h107v-1340h-140z" />
<glyph horiz-adv-x="1062" d="M117 1200l-14 116q223 39 400 39q457 0 457 -316q0 -121 -49 -215t-132 -156.5t-208 -114.5q-84 -35 -141 -76t-92.5 -95t-54 -113t-31.5 -143h708v-126h-877q23 129 41.5 207t48 154.5t70 124.5t100.5 90.5t147 79.5q152 65 240 148.5t88 202.5q0 124 -83.5 173.5 t-282.5 49.5q-132 0 -335 -30z" />
<glyph horiz-adv-x="1068" d="M446 1357q80 0 144 -7t127.5 -28t106 -55t68.5 -92t26 -136q0 -241 -192 -330q89 -34 152 -115.5t63 -199.5q0 -92 -23 -162t-64.5 -116t-105.5 -75t-139.5 -41t-172.5 -12q-192 0 -372 37l17 118q226 -30 316 -30q209 0 303.5 59.5t94.5 211.5q0 107 -65 172t-170 77 q-63 7 -167 7q-72 0 -110 -1v115q142 1 276 21q100 16 158 79.5t58 152.5q0 51 -11 89t-35 62.5t-52 40t-73 22.5t-85.5 9.5t-100.5 2.5q-137 0 -326 -29l-15 116q196 37 369 37z" />
<glyph horiz-adv-x="1184" d="M765 0v325h-580q-67 0 -93 25t-26 68q0 48 68 135l555 717q66 85 135 85q37 0 59.5 -24t22.5 -74v-815h186v-117h-186v-325h-141zM765 1158l-551 -716h551v716z" />
<glyph horiz-adv-x="1084" d="M300 1220l-28 -413q76 6 141 6q76 0 135 -3.5t120 -14.5t105.5 -29t84.5 -48t65 -71.5t39.5 -99.5t14.5 -132q0 -225 -122 -324.5t-366 -99.5q-191 0 -391 38l17 118q177 -29 324 -29q216 0 305 66t89 244q0 68 -22 116t-59 76t-98.5 44.5t-125.5 21.5t-156 5 q-135 0 -246 -7l45 661h768v-125h-639z" />
<glyph horiz-adv-x="1207" d="M636 824q115 0 196 -18t144.5 -62.5t94.5 -126.5t31 -204q0 -125 -34.5 -210t-103 -131.5t-155 -65.5t-206.5 -19q-112 0 -194.5 25.5t-134.5 70.5t-83 115.5t-43 150.5t-12 187q0 163 12.5 278.5t45.5 211t86.5 155.5t138.5 101t197.5 57.5t268.5 16.5q39 0 108 -2 l12 -118q-222 -7 -278 -13q-216 -22 -317 -120q-105 -102 -121 -305q232 26 347 26zM596 705q-76 0 -316 -30q-4 -56 -4 -166q0 -68 6 -120t26 -107t54 -90.5t94 -58.5t142 -23q201 0 282 69.5t81 236.5q0 72 -15.5 123.5t-43 83.5t-74.5 50.5t-101 25t-131 6.5z" />
<glyph horiz-adv-x="1005" d="M931 1209l-556 -1206h-157l573 1217h-745v123h790q111 0 111 -76q0 -24 -16 -58z" />
<glyph horiz-adv-x="1217" d="M607 1357q221 0 342 -84t121 -245q0 -119 -44 -197.5t-154 -131.5q220 -94 220 -337q0 -89 -26 -156t-69 -108t-107 -66t-131.5 -34.5t-151.5 -9.5q-108 0 -192 18.5t-151 60.5t-102.5 116.5t-35.5 179.5q0 243 217 336q-106 52 -150.5 131t-44.5 198q0 162 118 245.5 t341 83.5zM607 110q61 0 109 6t93.5 23.5t75.5 45.5t48 74.5t18 109.5q0 134 -92 193.5t-271 72.5q-75 -9 -129 -24.5t-100 -44.5t-69 -78.5t-23 -118.5q0 -76 26 -128.5t75.5 -80t106.5 -39t132 -11.5zM627 754q53 8 94.5 18.5t82.5 30t67.5 45.5t43 65.5t16.5 89.5 q0 69 -25.5 117t-72.5 72.5t-101 34.5t-125 10q-70 0 -123 -10t-100 -34.5t-72 -72t-25 -117.5q0 -223 340 -249z" />
<glyph horiz-adv-x="1205" d="M564 521q-91 0 -160 10.5t-129 38t-97.5 73.5t-59 118.5t-21.5 170.5q0 100 23.5 175t65 122.5t105.5 76.5t137.5 40.5t168.5 11.5q112 0 194.5 -25.5t134.5 -70.5t83 -115.5t43 -150.5t12 -187q0 -163 -12.5 -278.5t-45.5 -211t-86.5 -155.5t-138.5 -101t-197.5 -57.5 t-268.5 -16.5q-39 0 -108 2l-12 118q222 7 278 13q216 23 317 121q105 102 120 304q-230 -26 -346 -26zM604 640q76 0 316 30q4 56 4 166q0 68 -6 120t-26 107t-54 90.5t-94 58.5t-142 23q-201 0 -282 -69.5t-81 -236.5q0 -72 15.5 -123.5t43 -83.5t74.5 -50.5t101 -25 t131 -6.5z" />
<glyph horiz-adv-x="1915" d="M957 -24q-130 0 -232.5 20t-179.5 58t-132.5 100t-92 137.5t-58.5 180t-30.5 218t-8.5 259.5q0 147 8.5 260t30 217.5t58 180t92.5 137.5t133 99.5t179.5 58t232.5 20.5t233 -20t180 -58t133 -100t92.5 -137.5t58.5 -180t30.5 -217.5t8.5 -260q0 -146 -9 -259.5 t-30.5 -218t-58 -180t-92.5 -137.5t-133.5 -100t-180 -58t-232.5 -20zM957 138q110 0 195 21t143 54.5t98.5 94t63 119t34.5 152.5t15 172t3 198t-3 198t-15 172t-34.5 152.5t-63 119.5t-98.5 94t-143 54t-195 21q-97 0 -174 -14t-132.5 -46t-96.5 -68.5t-67.5 -97.5 t-42.5 -116t-24 -140.5t-10 -154.5t-2 -174t2 -174t10 -154.5t24 -140.5t42.5 -116t67.5 -97.5t96.5 -68.5t132.5 -46t174 -14z" />
<glyph horiz-adv-x="1117" d="M643 0v1686q-299 -88 -569 -129l-9 164q163 26 330 76.5t284 102.5h150v-1900h-186z" />
<glyph horiz-adv-x="1705" d="M187 1715l-22 156q341 51 641 51q171 0 302.5 -23.5t230.5 -75t151 -138.5t52 -208q0 -104 -30 -194t-83 -161.5t-133.5 -133.5t-174.5 -110t-213 -91q-141 -51 -238.5 -111.5t-159.5 -138.5t-96 -164.5t-55 -205.5h1182v-167h-1408q20 100 37 171.5t38 147t43 128.5 t50.5 108.5t62.5 96t76.5 81t95.5 72.5t116.5 62.5t142.5 58.5q97 35 176 71.5t153.5 83.5t124.5 98.5t80 116t30 135.5q0 180 -145.5 252t-490.5 72q-247 0 -536 -40z" />
<glyph horiz-adv-x="1630" d="M679 1922q123 0 220 -10.5t194.5 -42.5t162 -84t104.5 -140.5t40 -207.5q0 -188 -83 -319.5t-239 -198.5q67 -19 128.5 -58.5t114 -98.5t84 -146t31.5 -189q0 -142 -35 -248.5t-98.5 -177.5t-161 -115t-213.5 -62.5t-264 -18.5q-299 0 -566 53l24 162q337 -45 480 -45 q168 0 283 20.5t198 70t121.5 134.5t38.5 212q0 172 -106 278t-278 124q-130 13 -309 13q-17 0 -53.5 -0.5t-55.5 -0.5v152q226 6 418 34q165 24 258.5 127t93.5 248q0 56 -9 102t-24 81t-40.5 62.5t-53.5 47t-68.5 33t-79 21.5t-91.5 12.5t-100 6t-110 1.5q-209 0 -495 -43 l-21 158q151 28 273 40.5t287 12.5z" />
<glyph horiz-adv-x="1815" d="M1196 -173v507h-926q-169 0 -169 133q0 75 102 206l869 1122q98 127 199 127q50 0 80.5 -34t30.5 -105v-1289h291v-160h-291v-507h-186zM1196 1673l-909 -1179h909v1179z" />
<glyph horiz-adv-x="1653" d="M431 1731l-46 -674q141 9 240 9q117 0 207 -5.5t184 -21.5t162 -44t129.5 -74t100 -109.5t60.5 -152.5t22 -202q0 -346 -186.5 -499t-560.5 -153q-302 0 -593 55l23 161q246 -44 492 -44q140 0 239.5 14.5t177.5 48t124 91t69.5 142.5t23.5 203q0 78 -18 140t-49.5 106.5 t-83 77t-109 52t-137.5 31t-159 15.5t-182 4q-198 0 -367 -11l68 1009h1169v-169h-1000z" />
<glyph horiz-adv-x="1848" d="M975 1261q140 0 245 -16.5t196.5 -58.5t149 -112.5t90 -181.5t32.5 -262q0 -155 -36 -269.5t-98.5 -187.5t-161 -117.5t-210.5 -62t-258 -17.5q-144 0 -255.5 26t-189.5 78.5t-131 123t-83.5 169.5t-43 206t-12.5 244q0 188 10.5 333t37 273.5t68.5 221.5t108 169.5 t151 126t202 83.5t258.5 48.5t321.5 14.5q46 0 153 -2l17 -161q-34 -1 -101 -3q-112 -3 -168.5 -5.5t-158 -11t-156 -21.5t-137 -38.5t-128 -60.5t-102.5 -88.5t-87 -121.5t-54 -160t-30 -204q349 45 561 45zM396 848v-69q0 -76 4.5 -137.5t18.5 -129.5t37 -120t62.5 -101 t93.5 -80.5t131 -50.5t173 -19q220 0 347.5 50.5t182.5 156.5t55 287q0 83 -12.5 148.5t-35.5 114.5t-61 84t-83.5 57.5t-109 36t-131 18.5t-155.5 5q-152 0 -512 -48q-5 -74 -5 -203z" />
<glyph horiz-adv-x="1535" d="M1424 1708l-868 -1881h-208l898 1906h-1176v167h1220q156 0 156 -106q0 -39 -22 -86z" />
<glyph horiz-adv-x="1860" d="M929 2093q337 0 521.5 -128t184.5 -375q0 -189 -72.5 -311t-253.5 -204q81 -30 143.5 -72t113 -104t77 -151t26.5 -200q0 -137 -39.5 -239.5t-105 -165t-163.5 -101t-200.5 -52.5t-231.5 -14q-132 0 -239 17t-201.5 58t-158.5 105.5t-101 164.5t-37 230q0 112 26 200 t75.5 149.5t111 103t142.5 72.5q-175 79 -248 202t-73 312q0 248 180 375.5t523 127.5zM929 140q99 0 176.5 10t151 37.5t121.5 73.5t77 121t29 177q0 112 -40 192t-119.5 128.5t-182 74t-244.5 34.5q-122 -14 -209.5 -39t-161.5 -72.5t-112 -126.5t-38 -191 q0 -99 29 -173.5t78 -120.5t121.5 -74.5t150 -39.5t173.5 -11zM962 1149q85 13 151.5 30.5t132.5 48.5t110 73.5t71 106t27 144.5q0 90 -28.5 158.5t-75.5 109.5t-117 66.5t-142 35t-162 9.5q-89 0 -161 -9t-141 -34.5t-115.5 -66.5t-74.5 -109.5t-28 -159.5 q0 -364 553 -403z" />
<glyph horiz-adv-x="1843" d="M860 637q-140 0 -244.5 16.5t-196 58.5t-149 112.5t-90 181.5t-32.5 262q0 155 36 269.5t98.5 187.5t161 117.5t210.5 62t258 17.5q144 0 255.5 -26t189.5 -78.5t131 -123t83.5 -169.5t43 -206t12.5 -244q0 -188 -11 -333t-37.5 -273.5t-68.5 -221.5t-107.5 -169.5 t-151 -126t-202.5 -83.5t-258 -48.5t-321 -14.5q-46 0 -153 2l-17 161q34 1 101 3q112 3 168.5 5.5t158 11t156 21.5t137 38.5t128 60.5t102.5 88.5t87 121.5t54 160t30 204q-349 -45 -562 -45zM1440 1050v69q0 76 -4.5 137.5t-18.5 129.5t-37 120t-62.5 101t-93.5 80.5 t-131 50.5t-173 19q-166 0 -277 -27t-180.5 -87.5t-99 -152t-29.5 -227.5q0 -97 16 -170t50.5 -124t81 -84.5t116 -52t146 -26t179.5 -7.5q152 0 512 48q5 92 5 203z" />
<glyph horiz-adv-x="1519" d="M162 180q246 -39 487 -39q101 0 178.5 10t148.5 37t117 71.5t73 115.5t27 167q0 75 -23 135t-61 103t-102.5 80.5t-132.5 64t-166 56.5q-87 26 -146.5 46.5t-126 50t-109.5 59t-85 71t-65 89.5t-37.5 111.5t-14.5 140.5q0 267 140 392.5t423 146.5v289h156v-284 q247 -1 490 -43l-18 -156q-216 34 -405 34q-92 0 -164.5 -5.5t-143 -19t-121.5 -38.5t-90.5 -61.5t-59.5 -90.5t-20 -124q0 -72 8.5 -122.5t34.5 -93t57.5 -70.5t94.5 -57t126.5 -50.5t172.5 -53.5q105 -31 184 -62.5t157 -81t128 -109.5t80.5 -145.5t30.5 -191.5 q0 -270 -141 -405.5t-421 -162.5v-292h-156v284h-9q-163 0 -276 10.5t-239 35.5z" />
<glyph horiz-adv-x="1323" d="M849 220v-281h-151v287q-92 11 -167 40t-129 70.5t-95 101t-66.5 124.5t-41.5 147.5t-22 164t-6 178.5q0 148 13 257.5t47.5 206.5t93.5 161t151.5 107t221.5 58v289h151v-280h10q175 0 340 -42l-15 -143q-150 25 -264 25q-87 0 -156.5 -7.5t-124.5 -21.5t-97 -38.5 t-73 -52.5t-52 -70.5t-34 -85t-20 -104t-9.5 -120t-2.5 -139.5q0 -77 2 -132.5t9 -118.5t19 -107t33 -91t50.5 -78.5t72 -61t96.5 -46t124.5 -26.5t156.5 -10q100 0 270 35l18 -152q-216 -41 -353 -44z" />
<glyph horiz-adv-x="1592" d="M567 1300h723l-33 -144h-695q-1 -40 -1 -122q0 -66 1 -98h646l-31 -143h-611q8 -135 27 -233.5t58 -181t100.5 -133t153.5 -78t218 -27.5q131 0 326 34l15 -153q-190 -45 -391 -45q-187 0 -314.5 47t-208.5 150.5t-120.5 252t-51.5 367.5h-233l32 143h196q-1 32 -1 98 q0 82 1 122h-210l33 144h183q14 212 54.5 356.5t121.5 245t207.5 146t310.5 45.5q200 0 392 -42l-17 -157q-198 35 -325 35q-126 0 -218.5 -26.5t-153.5 -75t-100 -128.5t-57.5 -174t-26.5 -225z" />
<glyph horiz-adv-x="1740" d="M479 968h-322v157h298q-34 227 -34 424q0 128 37.5 224.5t100 157t155.5 98t193.5 52t223.5 14.5q157 0 272 -47t212 -140l-100 -117q-169 136 -373 136q-156 0 -259 -26.5t-163 -84.5t-84.5 -139.5t-24.5 -202.5q0 -113 37 -349h492v-157h-469q17 -134 17 -249 q0 -169 -32 -280t-109 -270h584q230 0 463 33l17 -156q-284 -46 -657 -46h-541q-49 0 -73 21.5t-24 57.5q0 24 29.5 85.5t64.5 131.5t64.5 179.5t29.5 216.5q0 114 -25 276z" />
<glyph horiz-adv-x="1605" d="M120 2073h200l481 -1050l490 1050h193l-529 -1129h306v-147h-370v-198h370v-146h-370v-453h-187v453h-361v146h361v198h-361v147h298z" />
<glyph d="M984 -24q-124 0 -225 17.5t-180 54.5t-139 88.5t-104 126.5t-73 161t-46 199.5t-24 234t-7 272.5t7 272.5t24 234t46 199.5t73 161t104 126.5t139 88.5t180 54.5t225 17.5q142 0 253.5 -24t195.5 -69t145 -118.5t101 -163t63.5 -213t33 -258t9.5 -308.5t-9.5 -308.5 t-33 -258t-63.5 -213t-101 -163t-145 -118.5t-195.5 -69t-253.5 -24zM984 143q95 0 173.5 15.5t137.5 41t104.5 71t77 91.5t53.5 117.5t34 134.5t19 157.5t8.5 170.5t1.5 188q0 128 -2.5 211.5t-11 188t-26 171t-47 140.5t-75 119t-107.5 84t-147.5 56t-192.5 17 q-96 0 -174 -15.5t-137 -40.5t-104.5 -71t-76.5 -91t-52.5 -118t-33.5 -134.5t-18.5 -157.5t-8 -170.5t-1.5 -188.5t1.5 -188.5t8 -170t18.5 -157.5t33.5 -134.5t52.5 -118t76.5 -91.5t104.5 -71t137 -40.5t174 -15.5z" />
<glyph d="M1072 0v2044q-304 -89 -580 -132l-9 166q165 26 334 77t291 105h153v-2260h-189z" />
<glyph d="M296 2064l-20 158q352 62 659 62q141 0 255 -17t209.5 -55.5t160 -98.5t100 -148t35.5 -201q0 -154 -44.5 -280.5t-133 -224.5t-204 -172.5t-271.5 -139.5q-123 -51 -212.5 -110.5t-149.5 -124.5t-100.5 -151.5t-63.5 -175t-41 -212.5h1219v-173h-1450q20 117 37 200 t38 171t43.5 150.5t51.5 127t64 112t79 95t98.5 86t120.5 75t147 70.5q128 54 225.5 111.5t181.5 133t128.5 170.5t44.5 206q0 225 -150 314.5t-505 89.5q-264 0 -552 -48z" />
<glyph d="M835 2284q94 0 173 -5.5t161 -21t146.5 -40t123 -65t97 -94.5t61 -129.5t22.5 -168.5q0 -435 -365 -569v-2q58 -14 113.5 -42.5t109 -75.5t93.5 -106.5t64.5 -140.5t24.5 -173q0 -153 -38.5 -269t-107.5 -193t-175.5 -125t-232.5 -68t-287 -20q-322 0 -612 57l23 163 q13 -2 81 -10.5t91.5 -11.5t82.5 -9.5t93.5 -9t83 -5t90.5 -2.5q148 0 257.5 14.5t197.5 48t143 89t83.5 138.5t28.5 196q0 195 -117.5 312t-311.5 136q-140 14 -351 14q-17 0 -50 -0.5t-50 -0.5v154q231 5 451 37q185 27 289 141t104 277q0 80 -16.5 142t-43 105t-73 73.5 t-94.5 47.5t-120 26.5t-135.5 12.5t-155.5 3q-217 0 -537 -47l-21 160q165 30 296 43.5t310 13.5z" />
<glyph d="M1309 0v556h-1023q-178 0 -178 140q0 78 111 221l954 1230q107 137 212 137q51 0 82.5 -35.5t31.5 -109.5v-1421h319v-162h-319v-556h-190zM1309 2039l-1019 -1321h1019v1321z" />
<glyph d="M544 2088l-51 -752q163 10 271 10q98 0 177.5 -3.5t162.5 -13t148.5 -26t130 -42.5t112 -62t89 -85.5t67.5 -111.5t40.5 -142t14.5 -176q0 -191 -52.5 -327.5t-157.5 -220t-253 -122t-350 -38.5q-335 0 -642 59l22 163q274 -47 534 -47q155 0 265 16t196.5 53t138 101.5 t77.5 158.5t26 226q0 87 -20 156t-55 118.5t-92 85t-120.5 57.5t-152 34.5t-175.5 17t-201 4.5q-210 0 -396 -11l74 1092h1269v-172h-1097z" />
<glyph d="M1040 1372q152 0 266 -18t213.5 -64t162 -122.5t98 -196.5t35.5 -284q0 -141 -26 -251t-78 -187.5t-122 -131t-166.5 -84.5t-201.5 -44t-237 -13q-134 0 -242.5 22t-189 61.5t-140.5 101.5t-99 136t-63 171t-33.5 200t-9.5 230q0 205 11.5 363t40.5 298.5t75 242 t117.5 185t164.5 137.5t220.5 91.5t281.5 53t350 15.5q44 0 161 -2l17 -163q-329 -11 -354 -12q-324 -19 -500 -103q-262 -125 -340 -436q-28 -110 -34 -246q392 50 622 50zM972 1207q-166 0 -568 -53q-7 -124 -7 -304q0 -84 5 -152t20.5 -143.5t41.5 -133t70 -111.5 t103.5 -89t145 -56t192.5 -21q244 0 385.5 56t203 173.5t61.5 318.5q0 93 -14 165.5t-39.5 126.5t-68 93t-93 64t-121 40t-145 20.5t-172.5 5.5z" />
<glyph d="M1698 2059l-949 -2059h-214l985 2091h-1293v169h1331q165 0 165 -109q0 -39 -25 -92z" />
<glyph d="M983 2284q366 0 567 -139t201 -406q0 -210 -82 -343.5t-289 -220.5q408 -147 408 -579q0 -148 -43 -259t-114 -179t-177.5 -109.5t-218.5 -57t-252 -15.5q-143 0 -259.5 18.5t-219.5 63t-172.5 114.5t-109.5 178.5t-40 249.5q0 122 30 218.5t87 164.5t126 113.5t159 78.5 q-198 85 -281.5 220t-83.5 344q0 269 196 407t568 138zM983 143q110 0 195.5 11t167.5 41.5t135 81.5t85.5 135t32.5 197q0 124 -44.5 213t-133 143t-202.5 82t-271 39q-107 -12 -188.5 -31t-157.5 -54.5t-124.5 -86.5t-77.5 -128t-29 -177q0 -110 32.5 -193t86 -134.5 t134.5 -83t166.5 -43.5t192.5 -12zM1019 1250q95 14 169.5 33t148 53.5t121.5 81.5t77.5 118t29.5 161q0 101 -31.5 177t-83.5 122t-129.5 74.5t-158 39t-179.5 10.5q-100 0 -179.5 -10t-156 -38.5t-128 -74.5t-82.5 -122t-31 -178q0 -405 613 -447z" />
<glyph d="M918 888q-152 0 -266 18t-213.5 64t-162 122.5t-98 196.5t-35.5 284q0 141 26 251t78 187.5t122 131t166.5 84.5t201.5 44t237 13q134 0 242.5 -22t189.5 -61.5t141 -101.5t99 -136t63 -171t33.5 -200t9.5 -230q0 -205 -11.5 -363t-40.5 -298.5t-75 -242t-117.5 -185 t-164.5 -137.5t-220.5 -91.5t-281.5 -53t-350 -15.5q-45 0 -162 2l-17 163q329 11 354 12q324 19 500 103q261 124 340 433q28 111 35 249q-392 -50 -623 -50zM1561 1355v55q0 84 -5 152t-20.5 143.5t-41 133t-69.5 111.5t-103.5 89t-145.5 56t-193 21q-244 0 -385 -56 t-202.5 -173.5t-61.5 -318.5q0 -108 17.5 -189t56 -138t90 -93.5t128.5 -57.5t161.5 -29t198.5 -8q168 0 568 53q7 115 7 249z" />
<glyph d="M336 185q257 -41 528 -41q112 0 198 11t164.5 41t129.5 79t81 128.5t30 186.5q0 73 -14.5 130.5t-47.5 103.5t-74 80.5t-107 65.5t-131.5 54.5t-161.5 52.5q-74 22 -127.5 39.5t-113.5 41t-102 45t-86.5 50.5t-73.5 60.5t-56.5 71.5t-43 85.5t-24.5 102t-9 121.5 q0 148 40 255.5t120 176t192 105.5t265 48v316h158v-311q267 -1 536 -46l-18 -157q-243 36 -437 36q-124 0 -217 -8.5t-181 -33t-144 -66t-89.5 -110t-33.5 -161.5q0 -60 5 -105.5t19.5 -85.5t32.5 -69t52.5 -57t71 -48.5t96 -44t119.5 -42.5t150 -45q115 -33 201 -67.5 t171 -88t139 -118.5t87.5 -158t33.5 -207q0 -295 -154.5 -442t-461.5 -176v-319h-158v311h-17q-177 0 -300 11t-257 38z" />
<glyph d="M1185 243v-308h-152v314q-101 11 -183 42t-141.5 76.5t-104.5 110t-73.5 136t-45.5 161t-24 179t-7 195.5q0 162 14.5 281.5t52.5 225.5t102.5 175.5t166.5 115.5t243 62v316h152v-307h17q184 0 366 -45l-15 -143q-150 26 -284 26q-86 0 -157 -6t-129 -20.5t-103.5 -33 t-81 -48.5t-61 -61t-43 -77t-28.5 -91t-17.5 -108t-8.5 -122.5t-2 -139.5q0 -76 2 -132.5t7.5 -120t16.5 -110t28 -96.5t42.5 -85t59.5 -69t80 -56.5t103 -40t128.5 -25.5t157.5 -8q112 0 290 37l18 -153q-226 -45 -386 -47z" />
<glyph d="M726 1415h791l-32 -144h-764q-1 -46 -1 -141q0 -78 1 -115h706l-31 -143h-670q8 -151 28.5 -261t63.5 -202.5t111.5 -148.5t171 -87t242.5 -31q144 0 352 36l15 -154q-209 -48 -422 -48q-203 0 -342 51.5t-226.5 165t-130.5 276.5t-56 403h-253l32 143h216q-1 37 -1 115 q0 95 1 141h-228l32 144h203q14 232 58 390.5t132 268.5t225.5 160t337.5 50q219 0 422 -45l-16 -158q-208 37 -351 37q-141 0 -243.5 -30t-170.5 -84t-111 -143.5t-63.5 -194.5t-28.5 -251z" />
<glyph d="M565 1063h-354v157h329q-39 263 -39 472q0 138 40.5 243t109 170.5t169.5 106.5t210 56.5t243 15.5q171 0 294 -50t227 -148l-100 -118q-181 145 -409 145q-173 0 -287.5 -29t-181 -93.5t-93.5 -155t-27 -225.5q0 -122 42 -390h539v-157h-517q19 -152 19 -282 q0 -187 -35.5 -309t-121.5 -300h651q248 0 501 34l18 -157q-314 -49 -714 -49h-593q-50 0 -74.5 22t-24.5 58q0 22 21 67.5t51.5 107t61 134.5t51.5 170t21 193q0 127 -27 311z" />
<glyph d="M247 2260h205l532 -1162l540 1162h198l-580 -1238h339v-147h-405v-231h405v-147h-405v-497h-193v497h-395v147h395v231h-395v147h330z" />
<glyph horiz-adv-x="985" d="M493 -24q-66 0 -89 33t-23 120t24 122t88 35t88 -35t24 -122t-23 -120t-89 -33z" />
<glyph horiz-adv-x="985" d="M231 -437l230 836h227l-293 -836h-164z" />
<glyph horiz-adv-x="985" d="M492 -24q-66 0 -88.5 33t-22.5 120t23.5 122t87.5 35q65 0 89 -35t24 -122t-23 -120t-90 -33zM492 1258q-66 0 -88.5 33t-22.5 120t23.5 122t87.5 35q65 0 89 -35t24 -122t-23 -120t-90 -33z" />
<glyph horiz-adv-x="985" d="M564 1258q-66 0 -88.5 33t-22.5 120t23.5 122t87.5 35q65 0 89 -35t24 -122t-23 -120t-90 -33zM218 -437l230 836h227l-293 -836h-164z" />
<glyph horiz-adv-x="1810" d="M904 -24q-130 0 -232.5 20t-179.5 58t-132.5 100t-92 137.5t-58.5 180t-30.5 218t-8.5 259.5q0 147 8.5 260t30 217.5t58 180t92.5 137.5t133 99.5t179.5 58t232.5 20.5t233 -20t180 -58t133 -100t92.5 -137.5t58.5 -180t30.5 -217.5t8.5 -260q0 -146 -9 -259.5 t-30.5 -218t-58 -180t-92.5 -137.5t-133.5 -100t-180 -58t-232.5 -20zM904 138q110 0 195 21t143 54.5t98.5 94t63 119t34.5 152.5t15 172t3 198t-3 198t-15 172t-34.5 152.5t-63 119.5t-98.5 94t-143 54t-195 21q-97 0 -174 -14t-132.5 -46t-96.5 -68.5t-67.5 -97.5 t-42.5 -116t-24 -140.5t-10 -154.5t-2 -174t2 -174t10 -154.5t24 -140.5t42.5 -116t67.5 -97.5t96.5 -68.5t132.5 -46t174 -14z" />
<glyph horiz-adv-x="1810" d="M990 0v1686q-299 -88 -569 -129l-9 164q163 26 330 76.5t284 102.5h150v-1900h-186z" />
<glyph horiz-adv-x="1810" d="M240 1715l-22 156q341 51 641 51q171 0 302.5 -23.5t230.5 -75t151 -138.5t52 -208q0 -104 -30 -194t-83 -161.5t-133.5 -133.5t-174.5 -110t-213 -91q-141 -51 -238.5 -111.5t-159.5 -138.5t-96 -164.5t-55 -205.5h1182v-167h-1408q20 100 37 171.5t38 147t43 128.5 t50.5 108.5t62.5 96t76.5 81t95.5 72.5t116.5 62.5t142.5 58.5q97 35 176 71.5t153.5 83.5t124.5 98.5t80 116t30 135.5q0 180 -145.5 252t-490.5 72q-247 0 -536 -40z" />
<glyph horiz-adv-x="1810" d="M769 1922q123 0 220 -10.5t194.5 -42.5t162 -84t104.5 -140.5t40 -207.5q0 -188 -83 -319.5t-239 -198.5q67 -19 128.5 -58.5t114 -98.5t84 -146t31.5 -189q0 -142 -35 -248.5t-98.5 -177.5t-161 -115t-213.5 -62.5t-264 -18.5q-299 0 -566 53l24 162q337 -45 480 -45 q168 0 283 20.5t198 70t121.5 134.5t38.5 212q0 172 -106 278t-278 124q-130 13 -309 13q-17 0 -53.5 -0.5t-55.5 -0.5v152q226 6 418 34q165 24 258.5 127t93.5 248q0 56 -9 102t-24 81t-40.5 62.5t-53.5 47t-68.5 33t-79 21.5t-91.5 12.5t-100 6t-110 1.5q-209 0 -495 -43 l-21 158q151 28 273 40.5t287 12.5z" />
<glyph horiz-adv-x="1810" d="M1193 -173v507h-926q-169 0 -169 133q0 75 102 206l869 1122q98 127 199 127q50 0 80.5 -34t30.5 -105v-1289h291v-160h-291v-507h-186zM1193 1673l-909 -1179h909v1179z" />
<glyph horiz-adv-x="1810" d="M510 1731l-46 -674q141 9 240 9q117 0 207 -5.5t184 -21.5t162 -44t129.5 -74t100 -109.5t60.5 -152.5t22 -202q0 -346 -186.5 -499t-560.5 -153q-302 0 -593 55l23 161q246 -44 492 -44q140 0 239.5 14.5t177.5 48t124 91t69.5 142.5t23.5 203q0 78 -18 140t-49.5 106.5 t-83 77t-109 52t-137.5 31t-159 15.5t-182 4q-198 0 -367 -11l68 1009h1169v-169h-1000z" />
<glyph horiz-adv-x="1810" d="M956 1261q140 0 245 -16.5t196.5 -58.5t149 -112.5t90 -181.5t32.5 -262q0 -155 -36 -269.5t-98.5 -187.5t-161 -117.5t-210.5 -62t-258 -17.5q-144 0 -255.5 26t-189.5 78.5t-131 123t-83.5 169.5t-43 206t-12.5 244q0 188 10.5 333t37 273.5t68.5 221.5t108 169.5 t151 126t202 83.5t258.5 48.5t321.5 14.5q46 0 153 -2l17 -161q-34 -1 -101 -3q-112 -3 -168.5 -5.5t-158 -11t-156 -21.5t-137 -38.5t-128 -60.5t-102.5 -88.5t-87 -121.5t-54 -160t-30 -204q349 45 561 45zM377 848v-69q0 -76 4.5 -137.5t18.5 -129.5t37 -120t62.5 -101 t93.5 -80.5t131 -50.5t173 -19q220 0 347.5 50.5t182.5 156.5t55 287q0 83 -12.5 148.5t-35.5 114.5t-61 84t-83.5 57.5t-109 36t-131 18.5t-155.5 5q-152 0 -512 -48q-5 -74 -5 -203z" />
<glyph horiz-adv-x="1810" d="M1562 1708l-868 -1881h-208l898 1906h-1176v167h1220q156 0 156 -106q0 -39 -22 -86z" />
<glyph horiz-adv-x="1810" d="M904 2093q337 0 521.5 -128t184.5 -375q0 -189 -72.5 -311t-253.5 -204q81 -30 143.5 -72t113 -104t77 -151t26.5 -200q0 -137 -39.5 -239.5t-105 -165t-163.5 -101t-200.5 -52.5t-231.5 -14q-132 0 -239 17t-201.5 58t-158.5 105.5t-101 164.5t-37 230q0 112 26 200 t75.5 149.5t111 103t142.5 72.5q-175 79 -248 202t-73 312q0 248 180 375.5t523 127.5zM904 140q99 0 176.5 10t151 37.5t121.5 73.5t77 121t29 177q0 112 -40 192t-119.5 128.5t-182 74t-244.5 34.5q-122 -14 -209.5 -39t-161.5 -72.5t-112 -126.5t-38 -191 q0 -99 29 -173.5t78 -120.5t121.5 -74.5t150 -39.5t173.5 -11zM937 1149q85 13 151.5 30.5t132.5 48.5t110 73.5t71 106t27 144.5q0 90 -28.5 158.5t-75.5 109.5t-117 66.5t-142 35t-162 9.5q-89 0 -161 -9t-141 -34.5t-115.5 -66.5t-74.5 -109.5t-28 -159.5 q0 -364 553 -403z" />
<glyph horiz-adv-x="1810" d="M843 637q-140 0 -244.5 16.5t-196 58.5t-149 112.5t-90 181.5t-32.5 262q0 155 36 269.5t98.5 187.5t161 117.5t210.5 62t258 17.5q144 0 255.5 -26t189.5 -78.5t131 -123t83.5 -169.5t43 -206t12.5 -244q0 -188 -11 -333t-37.5 -273.5t-68.5 -221.5t-107.5 -169.5 t-151 -126t-202.5 -83.5t-258 -48.5t-321 -14.5q-46 0 -153 2l-17 161q34 1 101 3q112 3 168.5 5.5t158 11t156 21.5t137 38.5t128 60.5t102.5 88.5t87 121.5t54 160t30 204q-349 -45 -562 -45zM1423 1050v69q0 76 -4.5 137.5t-18.5 129.5t-37 120t-62.5 101t-93.5 80.5 t-131 50.5t-173 19q-166 0 -277 -27t-180.5 -87.5t-99 -152t-29.5 -227.5q0 -97 16 -170t50.5 -124t81 -84.5t116 -52t146 -26t179.5 -7.5q152 0 512 48q5 92 5 203z" />
<glyph horiz-adv-x="1810" d="M308 180q246 -39 487 -39q101 0 178.5 10t148.5 37t117 71.5t73 115.5t27 167q0 75 -23 135t-61 103t-102.5 80.5t-132.5 64t-166 56.5q-87 26 -146.5 46.5t-126 50t-109.5 59t-85 71t-65 89.5t-37.5 111.5t-14.5 140.5q0 267 140 392.5t423 146.5v289h156v-284 q247 -1 490 -43l-18 -156q-216 34 -405 34q-92 0 -164.5 -5.5t-143 -19t-121.5 -38.5t-90.5 -61.5t-59.5 -90.5t-20 -124q0 -72 8.5 -122.5t34.5 -93t57.5 -70.5t94.5 -57t126.5 -50.5t172.5 -53.5q105 -31 184 -62.5t157 -81t128 -109.5t80.5 -145.5t30.5 -191.5 q0 -270 -141 -405.5t-421 -162.5v-292h-156v284h-9q-163 0 -276 10.5t-239 35.5z" />
<glyph horiz-adv-x="1810" d="M1093 220v-281h-151v287q-92 11 -167 40t-129 70.5t-95 101t-66.5 124.5t-41.5 147.5t-22 164t-6 178.5q0 148 13 257.5t47.5 206.5t93.5 161t151.5 107t221.5 58v289h151v-280h10q175 0 340 -42l-15 -143q-150 25 -264 25q-87 0 -156.5 -7.5t-124.5 -21.5t-97 -38.5 t-73 -52.5t-52 -70.5t-34 -85t-20 -104t-9.5 -120t-2.5 -139.5q0 -77 2 -132.5t9 -118.5t19 -107t33 -91t50.5 -78.5t72 -61t96.5 -46t124.5 -26.5t156.5 -10q100 0 270 35l18 -152q-216 -41 -353 -44z" />
<glyph horiz-adv-x="1810" d="M676 1300h723l-33 -144h-695q-1 -40 -1 -122q0 -66 1 -98h646l-31 -143h-611q8 -135 27 -233.5t58 -181t100.5 -133t153.5 -78t218 -27.5q131 0 326 34l15 -153q-190 -45 -391 -45q-187 0 -314.5 47t-208.5 150.5t-120.5 252t-51.5 367.5h-233l32 143h196q-1 32 -1 98 q0 82 1 122h-210l33 144h183q14 212 54.5 356.5t121.5 245t207.5 146t310.5 45.5q200 0 392 -42l-17 -157q-198 35 -325 35q-126 0 -218.5 -26.5t-153.5 -75t-100 -128.5t-57.5 -174t-26.5 -225z" />
<glyph horiz-adv-x="1810" d="M514 968h-322v157h298q-34 227 -34 424q0 128 37.5 224.5t100 157t155.5 98t193.5 52t223.5 14.5q157 0 272 -47t212 -140l-100 -117q-169 136 -373 136q-156 0 -259 -26.5t-163 -84.5t-84.5 -139.5t-24.5 -202.5q0 -113 37 -349h492v-157h-469q17 -134 17 -249 q0 -169 -32 -280t-109 -270h584q230 0 463 33l17 -156q-284 -46 -657 -46h-541q-49 0 -73 21.5t-24 57.5q0 24 29.5 85.5t64.5 131.5t64.5 179.5t29.5 216.5q0 114 -25 276z" />
<glyph horiz-adv-x="1810" d="M223 2073h200l481 -1050l490 1050h193l-529 -1129h306v-147h-370v-198h370v-146h-370v-453h-187v453h-361v146h361v198h-361v147h298z" />
<glyph horiz-adv-x="977" d="M712 2663l116 -97q-103 -101 -181 -239.5t-124.5 -279t-75.5 -303.5t-39 -301t-10 -283t10 -282.5t39 -300.5t75.5 -303.5t124.5 -279t181 -239.5l-116 -97q-117 113 -206 251.5t-145.5 282.5t-92 310t-49.5 324t-14 334t14 334.5t49.5 324t92 309.5t145.5 283t206 252z " />
<glyph horiz-adv-x="977" d="M266 -342l-117 97q103 101 181 239.5t124.5 279t75.5 303.5t39 300.5t10 282.5t-10 283t-39 301t-75.5 303.5t-124.5 279t-181 239.5l117 97q144 -140 246 -316.5t157 -373.5t79 -393.5t24 -419.5t-24 -419t-79 -393.5t-157 -373.5t-246 -316z" />
<glyph horiz-adv-x="967" d="M481 2483v-2633h359v-161h-540v2952h542v-158h-361z" />
<glyph horiz-adv-x="966" d="M124 2483v158h542v-2952h-540v161h359v2633h-361z" />
<glyph horiz-adv-x="980" d="M585 543v-180q0 -448 290 -506l-17 -148q-107 22 -185 61.5t-140.5 108t-94.5 177t-32 256.5q0 385 -55.5 561.5t-210.5 218.5v149q155 41 210.5 217.5t55.5 562.5q0 148 32 256t94.5 176.5t140.5 108t185 61.5l17 -148q-78 -16 -135 -61t-90.5 -113t-49 -150.5 t-15.5 -181.5v-180q0 -77 -4 -140.5t-19 -144.5t-41 -141.5t-74 -115t-113 -81.5q251 -114 251 -623z" />
<glyph horiz-adv-x="979" d="M839 1241v-149q-155 -42 -210.5 -218.5t-55.5 -561.5q0 -148 -32 -256.5t-94.5 -177t-140.5 -108t-185 -61.5l-17 148q290 58 290 506v180q0 509 251 623q-65 27 -113 81.5t-74 115t-41 141.5t-19 144.5t-4 140.5v180q0 99 -15.5 181.5t-49 150.5t-90.5 113t-135 61 l17 148q107 -22 185 -61.5t140.5 -108t94.5 -176.5t32 -256q0 -386 55.5 -562.5t210.5 -217.5z" />
<glyph horiz-adv-x="1651" d="M941 1639h167l3 -197q0 -10 0.5 -41t0.5 -43q0 -78 -26.5 -131.5t-70.5 -82.5t-102 -47.5t-121.5 -31t-127 -27t-121.5 -42.5t-102 -71t-70.5 -118t-26.5 -178q0 -102 12.5 -174t44.5 -129t80.5 -92t128 -57.5t180 -31.5t241.5 -9q222 0 489 47l35 -162 q-290 -57 -589 -57q-114 0 -201 6t-176 23.5t-153 47t-122 78.5t-93 116.5t-55.5 162t-20.5 214.5q0 79 10.5 146t24 117t43 93t50.5 71t64.5 54t67 39t76 28.5t73.5 20.5t76 17q65 14 96.5 22t79.5 28t71 43.5t41.5 64.5t19.5 96zM912 2189q0 87 23 120t89 33t89 -33 t23 -120t-24 -122t-88 -35t-88 35t-24 122z" />
<glyph horiz-adv-x="705" d="M352 2032q-64 0 -88 35t-24 122t23 120t89 33t89 -33t23 -120t-24 -122t-88 -35zM237 -12l33 1651h165l33 -1651h-231z" />
<glyph horiz-adv-x="3112" d="M2881 1551q31 -180 31 -386q0 -313 -88 -541t-263 -370.5t-423 -210t-580 -67.5q-266 0 -477.5 42.5t-376.5 133t-274.5 230t-166.5 335.5t-57 448q0 258 60 456.5t173 336.5t284.5 227t386 129t485.5 40q102 0 188 -15.5t163 -53.5t130.5 -96.5t84.5 -148.5t31 -206 v-751q0 -163 -7 -296q-289 -136 -644 -136q-331 0 -481.5 125t-150.5 389q0 210 111 343.5t319 176.5q180 37 669 52q0 258 -93 355t-337 97q-229 0 -407.5 -31.5t-327 -104.5t-245.5 -190t-150 -292t-53 -406q0 -164 26.5 -299.5t76.5 -240.5t125.5 -186t170.5 -137.5 t215 -92.5t254.5 -52t294.5 -16q225 0 402 32.5t322.5 106.5t241.5 191.5t148 291.5t52 402q0 191 -24 333zM2008 1197v385q-456 -8 -608 -46q-304 -73 -304 -365q0 -201 110.5 -279.5t345.5 -78.5q222 0 450 88q6 133 6 296z" />
<glyph horiz-adv-x="970" d="M370 1164l415 -643h-197l-455 643l455 644h197z" />
<glyph horiz-adv-x="970" d="M837 1164l-456 -643h-197l416 643l-415 644h196z" />
<glyph horiz-adv-x="1524" d="M371 1164l414 -643h-196l-456 643l456 644h196zM925 1164l415 -643h-197l-455 643l455 644h196z" />
<glyph horiz-adv-x="1523" d="M836 1164l-455 -643h-197l415 643l-414 644h196zM1391 1164l-456 -643h-196l414 643l-414 644h196z" />
<glyph horiz-adv-x="1348" d="M248 1080v169h852v-169h-852z" />
<glyph horiz-adv-x="2103" d="M248 1087v156h1607v-156h-1607z" />
<glyph horiz-adv-x="3656" d="M248 1087v156h3160v-156h-3160z" />
<glyph horiz-adv-x="709" d="M354 1009q-66 0 -89 33.5t-23 119.5q0 87 24 122.5t88 35.5t88 -35.5t24 -122.5q0 -86 -23 -119.5t-89 -33.5z" />
</font>
</defs>
</svg>
