<?xml version="1.0" encoding="UTF-8" standalone="no"?>
<svg width="24px" height="21px" viewBox="0 0 24 21" version="1.1" xmlns="http://www.w3.org/2000/svg" xmlns:xlink="http://www.w3.org/1999/xlink">
    <!-- Generator: Sketch 41.2 (35397) - http://www.bohemiancoding.com/sketch -->
    <title>Back to Top</title>
    <desc>Created with Sketch.</desc>
    <defs></defs>
    <g id="Page-1" stroke="none" stroke-width="1" fill="none" fill-rule="evenodd">
        <g id="Desktop-Copy-3" transform="translate(-948.000000, -7481.000000)" fill="#000000">
            <g id="Grateful-for-Support" transform="translate(730.000000, 7302.000000)">
                <g id="Back-to-Top" transform="translate(218.000000, 179.000000)">
                    <g id="Group">
                        <path d="M0.61203125,20.2451563 C0.76890625,20.2451563 0.92515625,20.1851563 1.04515625,20.0657813 L11.6326563,9.47828125 L22.2201563,20.0651563 C22.3395313,20.1845313 22.4957813,20.2445313 22.6526563,20.2445313 C22.8089063,20.2445313 22.9657813,20.1845313 23.0851562,20.0651563 C23.3245312,19.8257812 23.3245312,19.4389063 23.0851562,19.1995313 L12.0651563,8.17953125 C11.8264063,7.94015625 11.4389063,7.94015625 11.1995313,8.17953125 L0.17953125,19.2001563 C-0.05984375,19.4395313 -0.05984375,19.8264063 0.17953125,20.0657813 C0.29890625,20.1851563 0.45578125,20.2451563 0.61203125,20.2451563 L0.61203125,20.2451563 Z" id="Shape"></path>
                        <path d="M0.61203125,12.2451563 C0.76890625,12.2451563 0.92515625,12.1851563 1.04515625,12.0657813 L11.6326563,1.47828125 L22.2201563,12.0651563 C22.3395313,12.1845313 22.4957813,12.2445313 22.6526563,12.2445313 C22.8089063,12.2445313 22.9657813,12.1845313 23.0851562,12.0651563 C23.3245312,11.8257813 23.3245312,11.4389063 23.0851562,11.1995313 L12.0651563,0.17953125 C11.8264063,-0.05984375 11.4389063,-0.05984375 11.1995313,0.17953125 L0.17953125,11.2001563 C-0.05984375,11.4395313 -0.05984375,11.8264063 0.17953125,12.0657813 C0.29890625,12.1851563 0.45578125,12.2451563 0.61203125,12.2451563 L0.61203125,12.2451563 Z" id="Shape"></path>
                    </g>
                </g>
            </g>
        </g>
    </g>
</svg>