<?xml version="1.0" encoding="UTF-8" standalone="no"?>
<svg width="50px" height="50px" viewBox="0 0 50 50" version="1.1" xmlns="http://www.w3.org/2000/svg" xmlns:xlink="http://www.w3.org/1999/xlink">
    <!-- Generator: Sketch 41.2 (35397) - http://www.bohemiancoding.com/sketch -->
    <title>Logo</title>
    <desc>Created with Sketch.</desc>
    <defs></defs>
    <g id="Page-1" stroke="none" stroke-width="1" fill="none" fill-rule="evenodd">
        <g id="Desktop-Copy-3" transform="translate(-935.000000, -6791.000000)">
            <g id="Get-in-touch" transform="translate(160.000000, 6641.000000)">
                <g id="Social">
                    <g id="Logo" transform="translate(775.000000, 150.000000)">
                        <circle id="Oval" fill="#FFFFFF" cx="25" cy="25" r="25"></circle>
                        <g id="Group" transform="translate(11.888112, 12.587413)" fill="#00BFD3">
                            <g id="Shape">
                                <path d="M16.7293706,14.3339161 L11.9269231,14.3339161 L11.9269231,9.43636364 L16.7293706,9.43636364 C17.9622378,9.43636364 18.9664336,8.43321678 18.9664336,7.2 C18.9664336,5.96678322 17.9622378,4.96363636 16.7293706,4.96363636 L2.62937063,4.96363636 L2.62937063,0.0678321678 L16.7297203,0.0678321678 C20.6632867,0.0678321678 23.8618881,3.26783217 23.8618881,7.2 C23.8618881,11.1321678 20.6632867,14.3339161 16.7293706,14.3339161 L16.7293706,14.3339161 Z"></path>
                                <path d="M23.8615385,23.6891608 L18.9664336,23.6891608 C18.9664336,18.5304196 14.7681818,14.3339161 9.60769231,14.3339161 L9.60769231,9.43636364 C17.4681818,9.43636364 23.8615385,15.8304196 23.8615385,23.6891608 L23.8615385,23.6891608 Z"></path>
                                <path d="M12.022028,23.7024476 L7.31398601,23.7024476 C3.38006993,23.7024476 0.18006993,20.5017483 0.18006993,16.5702797 C0.18006993,12.6356643 3.38006993,9.43636364 7.31398601,9.43636364 L12.022028,9.43636364 L12.022028,14.3339161 L7.31398601,14.3339161 C6.07937063,14.3339161 5.07692308,15.3370629 5.07692308,16.5702797 C5.07692308,17.8017483 6.07937063,18.8048951 7.31398601,18.8048951 L12.022028,18.8048951 L12.022028,23.7024476 L12.022028,23.7024476 Z"></path>
                            </g>
                            <path d="M30.1818182,21.2741259 C30.1818182,22.6318182 29.0811189,23.7346154 27.7206294,23.7346154 C26.3611888,23.7346154 25.2597902,22.6321678 25.2597902,21.2741259 C25.2597902,19.9146853 26.3611888,18.8122378 27.7206294,18.8122378 C29.0811189,18.8122378 30.1818182,19.9146853 30.1818182,21.2741259 L30.1818182,21.2741259 Z" id="Shape"></path>
                        </g>
                    </g>
                </g>
            </g>
        </g>
    </g>
</svg>