<?xml version="1.0" encoding="UTF-8" standalone="no"?>
<svg width="40px" height="40px" viewBox="0 0 40 40" version="1.1" xmlns="http://www.w3.org/2000/svg" xmlns:xlink="http://www.w3.org/1999/xlink">
    <!-- Generator: Sketch 41.2 (35397) - http://www.bohemiancoding.com/sketch -->
    <title>Logo</title>
    <desc>Created with Sketch.</desc>
    <defs></defs>
    <g id="Page-1" stroke="none" stroke-width="1" fill="none" fill-rule="evenodd">
        <g id="Mobile-Portrait-Copy" transform="translate(-20.000000, -30.000000)">
            <g id="Logo" transform="translate(20.000000, 30.000000)">
                <circle id="Oval" fill="#00BFD3" cx="20" cy="20" r="20"></circle>
                <g id="Group" transform="translate(9.510490, 10.069930)" fill="#FFFFFF">
                    <g id="Shape">
                        <path d="M13.3834965,11.4671329 L9.54153846,11.4671329 L9.54153846,7.54909091 L13.3834965,7.54909091 C14.3697902,7.54909091 15.1731469,6.74657343 15.1731469,5.76 C15.1731469,4.77342657 14.3697902,3.97090909 13.3834965,3.97090909 L2.1034965,3.97090909 L2.1034965,0.0542657343 L13.3837762,0.0542657343 C16.5306294,0.0542657343 19.0895105,2.61426573 19.0895105,5.76 C19.0895105,8.90573427 16.5306294,11.4671329 13.3834965,11.4671329 L13.3834965,11.4671329 Z"></path>
                        <path d="M19.0892308,18.9513287 L15.1731469,18.9513287 C15.1731469,14.8243357 11.8145455,11.4671329 7.68615385,11.4671329 L7.68615385,7.54909091 C13.9745455,7.54909091 19.0892308,12.6643357 19.0892308,18.9513287 L19.0892308,18.9513287 Z"></path>
                        <path d="M9.61762238,18.961958 L5.85118881,18.961958 C2.70405594,18.961958 0.144055944,16.4013986 0.144055944,13.2562238 C0.144055944,10.1085315 2.70405594,7.54909091 5.85118881,7.54909091 L9.61762238,7.54909091 L9.61762238,11.4671329 L5.85118881,11.4671329 C4.8634965,11.4671329 4.06153846,12.2696503 4.06153846,13.2562238 C4.06153846,14.2413986 4.8634965,15.0439161 5.85118881,15.0439161 L9.61762238,15.0439161 L9.61762238,18.961958 L9.61762238,18.961958 Z"></path>
                    </g>
                    <path d="M24.1454545,17.0193007 C24.1454545,18.1054545 23.2648951,18.9876923 22.1765035,18.9876923 C21.088951,18.9876923 20.2078322,18.1057343 20.2078322,17.0193007 C20.2078322,15.9317483 21.088951,15.0497902 22.1765035,15.0497902 C23.2648951,15.0497902 24.1454545,15.9317483 24.1454545,17.0193007 L24.1454545,17.0193007 Z" id="Shape"></path>
                </g>
            </g>
        </g>
    </g>
</svg>